<svg width="21" height="24" viewBox="0 0 21 24" fill="none" xmlns="http://www.w3.org/2000/svg">
<path d="M16.8972 12.6485C16.8871 10.7804 17.7294 9.37041 19.4342 8.33201C18.4803 6.96274 17.0393 6.20939 15.1365 6.06177C13.3352 5.91925 11.3665 7.11545 10.646 7.11545C9.88489 7.11545 8.13942 6.11267 6.76942 6.11267C3.93811 6.15849 0.929199 8.37782 0.929199 12.8928C0.929199 14.2265 1.17275 15.6042 1.65986 17.0261C2.30934 18.8942 4.65355 23.4754 7.09924 23.399C8.3779 23.3685 9.28108 22.4879 10.9454 22.4879C12.5589 22.4879 13.3961 23.399 14.8219 23.399C17.2879 23.3634 19.4089 19.1996 20.0279 17.3264C16.7196 15.7637 16.8972 12.7452 16.8972 12.6485ZM14.0253 4.29038C15.4105 2.64115 15.2837 1.13954 15.2431 0.599976C14.0202 0.671239 12.6046 1.43477 11.7978 2.37646C10.9098 3.38432 10.3872 4.63142 10.4988 6.03632C11.8232 6.13813 13.0308 5.45604 14.0253 4.29038Z" fill="#0E061A"/>
</svg>
