<svg width="43" height="42" viewBox="0 0 43 42" fill="none" xmlns="http://www.w3.org/2000/svg">
<g clip-path="url(#clip0_661_992)">
<path fill-rule="evenodd" clip-rule="evenodd" d="M5.16789 32.1012C4.62756 31.7894 4.17728 31.3428 3.86097 30.8051C3.54465 30.2674 3.37311 29.6568 3.36307 29.033V12.7896C3.36054 12.1536 3.52613 11.5281 3.84307 10.9767C4.16001 10.4252 4.61704 9.96725 5.16789 9.64922L19.6065 1.49141C20.1552 1.1746 20.7777 1.00781 21.4113 1.00781C22.0449 1.00781 22.6674 1.1746 23.2161 1.49141L37.6533 9.64812C38.1936 9.95997 38.6439 10.4065 38.9602 10.9443C39.2765 11.482 39.448 12.0925 39.4581 12.7163V28.9597C39.4606 29.5958 39.295 30.2212 38.9781 30.7727C38.6611 31.3242 38.2041 31.7821 37.6533 32.1001L23.2147 40.2579C22.6659 40.5748 22.0435 40.7415 21.4098 40.7415C20.7762 40.7415 20.1537 40.5748 19.605 40.2579L5.16789 32.1012ZM30.7611 18.3125H25.1481C25.01 17.4666 24.5535 16.7056 23.8723 16.1855C23.1911 15.6654 22.3367 15.4255 21.4843 15.515C18.2357 15.515 17.4776 18.7998 17.4776 20.9295C17.4776 22.247 18.0371 26.344 21.4843 26.344C21.9363 26.4155 22.3985 26.3868 22.8382 26.26C23.2778 26.1331 23.6842 25.9112 24.0286 25.6098C24.373 25.3085 24.6469 24.9351 24.831 24.5162C25.0151 24.0973 25.1049 23.643 25.094 23.1855H30.5085C30.5085 25.9289 28.8119 31.0907 21.5926 31.0907C20.2329 31.1733 18.8711 30.9651 17.5982 30.48C16.3252 29.9949 15.1703 29.2439 14.2105 28.2773C13.2506 27.3106 12.5079 26.1504 12.0318 24.874C11.5557 23.5977 11.3572 22.2345 11.4495 20.8753C11.3652 19.5106 11.568 18.1433 12.0448 16.8617C12.5215 15.5802 13.2616 14.4128 14.2174 13.4349C15.1732 12.457 16.3233 11.6904 17.5937 11.1845C18.864 10.6785 20.2263 10.4445 21.5926 10.4976C23.8319 10.3743 26.0328 11.1169 27.7396 12.5717C29.4464 14.0265 30.5282 16.082 30.7611 18.3125Z" fill="#FBFBFC"/>
</g>
<defs>
<clipPath id="clip0_661_992">
<rect width="36.0965" height="39.7061" fill="white" transform="translate(3.36108 1.02539)"/>
</clipPath>
</defs>
</svg>
