<svg width="562" height="393" viewBox="0 0 562 393" fill="none" xmlns="http://www.w3.org/2000/svg">
<g filter="url(#filter0_d_218_4028)">
<g clip-path="url(#clip0_218_4028)">
<rect x="29" y="26" width="504" height="336" rx="12" fill="#0F0518"/>
<path d="M29 34C29 29.5817 32.5817 26 37 26H525C529.418 26 533 29.5817 533 34V94C533 98.4183 529.418 102 525 102H37C32.5817 102 29 98.4183 29 94V34Z" fill="#0F0518"/>
<path d="M29 34C29 29.5817 32.5817 26 37 26H525C529.418 26 533 29.5817 533 34V94C533 98.4183 529.418 102 525 102H37C32.5817 102 29 98.4183 29 94V34Z" fill="#FBFBFC" fill-opacity="0.08"/>
<g clip-path="url(#clip1_218_4028)">
<rect opacity="0.8" x="533" y="102" width="504" height="75" transform="rotate(-180 533 102)" fill="url(#paint0_diamond_218_4028)"/>
</g>
<path opacity="0.5" d="M46.12 45.8H47.96V57H46.12V45.8ZM54.6141 48.792C56.4061 48.792 57.6861 50.008 57.6861 52.088V57H55.9581V52.264C55.9581 51.048 55.2541 50.408 54.1661 50.408C53.0301 50.408 52.1341 51.08 52.1341 52.712V57H50.4061V49H52.1341V50.024C52.6621 49.192 53.5261 48.792 54.6141 48.792ZM61.4188 51.208C61.4188 52.664 65.7228 51.784 65.7228 54.744C65.7228 56.344 64.3308 57.208 62.6028 57.208C61.0028 57.208 59.8508 56.488 59.3388 55.336L60.8268 54.472C61.0828 55.192 61.7228 55.624 62.6028 55.624C63.3708 55.624 63.9628 55.368 63.9628 54.728C63.9628 53.304 59.6588 54.104 59.6588 51.24C59.6588 49.736 60.9548 48.792 62.5868 48.792C63.8988 48.792 64.9868 49.4 65.5468 50.456L64.0908 51.272C63.8028 50.648 63.2428 50.36 62.5868 50.36C61.9628 50.36 61.4188 50.632 61.4188 51.208ZM71.7132 50.664H69.7292V54.504C69.7292 55.528 70.4012 55.512 71.7132 55.448V57C69.0572 57.32 68.0012 56.584 68.0012 54.504V50.664H66.5292V49H68.0012V47.272L69.7292 46.76V49H71.7132V50.664ZM79.6084 49H81.3364V57H79.6084V55.848C79.0004 56.696 78.0564 57.208 76.8084 57.208C74.6324 57.208 72.8244 55.368 72.8244 53C72.8244 50.616 74.6324 48.792 76.8084 48.792C78.0564 48.792 79.0004 49.304 79.6084 50.136V49ZM77.0804 55.56C78.5204 55.56 79.6084 54.488 79.6084 53C79.6084 51.512 78.5204 50.44 77.0804 50.44C75.6404 50.44 74.5524 51.512 74.5524 53C74.5524 54.488 75.6404 55.56 77.0804 55.56ZM83.6705 57V45.32H85.3985V57H83.6705ZM87.7249 57V45.32H89.4529V57H87.7249Z" fill="#FBFBFC"/>
<path d="M53.274 79.116C53.274 77.842 52.616 77.114 50.558 76.372V73.278C51.398 73.348 52.294 73.628 52.84 73.936L52.686 72.396C52.182 72.13 51.454 71.906 50.558 71.864V70.002H49.088V71.934C47.492 72.214 46.638 73.166 46.638 74.664C46.638 76.064 47.436 76.778 49.088 77.352V80.558C48.178 80.474 47.226 80.18 46.456 79.732L46.61 81.314C47.212 81.664 48.094 81.916 49.088 81.986V83.848H50.558V81.93C52.224 81.65 53.274 80.614 53.274 79.116ZM48.29 74.664C48.29 74.118 48.542 73.684 49.088 73.446V75.798C48.486 75.476 48.29 75.154 48.29 74.664ZM51.608 79.158C51.608 79.746 51.216 80.194 50.558 80.418V77.898C51.328 78.248 51.608 78.598 51.608 79.158ZM70.1075 82.14C71.0175 82.14 71.7175 81.972 72.4455 81.594L72.5295 80.138C71.8015 80.488 71.1715 80.656 70.4575 80.656C69.1555 80.656 67.9235 80.096 67.9235 78.234C67.9235 76.806 68.8615 75.854 70.4155 75.854C71.0875 75.854 71.8295 76.05 72.5295 76.456L72.4035 74.916C71.8155 74.566 70.9475 74.37 70.0655 74.37C67.8255 74.37 66.2155 75.672 66.2155 78.332C66.2155 81.23 68.2315 82.14 70.1075 82.14ZM81.3102 82H82.5142V74.496H80.8342V79.886C80.3022 80.32 79.8262 80.516 79.2662 80.516C78.3282 80.516 77.7962 80.068 77.7962 78.71V74.496H76.1162V78.934C76.1162 81.23 77.0822 82.126 78.7342 82.126C79.5742 82.126 80.3022 81.818 80.9462 81.216L81.3102 82ZM85.6809 75.798H87.7249V80.698H85.6809V82H92.5129V80.698H89.3909V77.758C90.4269 76.764 91.6869 76.19 92.9189 76.162L92.8629 74.37C91.3369 74.37 90.1889 75.028 89.2789 76.428L89.0549 74.496H85.6809V75.798ZM95.4697 72.41H98.1857V80.698H95.4697V82H102.498V80.698H99.8657V71.122H95.4697V72.41ZM118.589 75.98C119.513 75.98 120.045 76.428 120.045 77.786V82H121.725V77.562C121.725 75.28 120.759 74.37 119.107 74.37C118.323 74.37 117.637 74.65 117.007 75.182V71.122H115.327V82H117.007V76.624C117.539 76.176 118.015 75.98 118.589 75.98ZM131.486 81.888L131.668 80.376C131.094 80.516 130.576 80.586 130.044 80.586C128.756 80.586 128.238 80.138 128.238 78.626V75.77H131.472V74.468H128.238V71.5H126.558V74.468H124.752V75.77H126.558V78.71C126.558 81.426 127.748 82.126 129.68 82.126C130.226 82.126 130.884 82.042 131.486 81.888ZM141.289 81.888L141.471 80.376C140.897 80.516 140.379 80.586 139.847 80.586C138.559 80.586 138.041 80.138 138.041 78.626V75.77H141.275V74.468H138.041V71.5H136.361V74.468H134.555V75.77H136.361V78.71C136.361 81.426 137.551 82.126 139.483 82.126C140.029 82.126 140.687 82.042 141.289 81.888ZM148.053 82.14C150.237 82.14 151.693 80.6 151.693 78.206C151.693 75.658 150.321 74.37 148.291 74.37C147.409 74.37 146.723 74.622 146.163 75.07L145.813 74.44H144.693V84.702H146.373V81.776C146.849 82.014 147.381 82.14 148.053 82.14ZM147.927 75.826C149.201 75.826 149.999 76.736 149.999 78.234C149.999 79.774 149.173 80.726 147.899 80.726C147.255 80.726 146.835 80.6 146.373 80.306V76.4C146.849 76.008 147.269 75.826 147.927 75.826ZM157.562 82.126C159.648 82.126 161.034 81.328 161.034 79.746C161.034 78.752 160.6 78.024 158.472 77.604L158.08 77.52C156.554 77.212 156.246 77.016 156.246 76.498C156.246 75.938 156.834 75.644 157.94 75.644C158.864 75.644 159.914 75.826 160.656 76.19L160.53 74.734C159.816 74.44 159.004 74.3 157.968 74.3C155.91 74.3 154.72 75.084 154.72 76.554C154.72 77.688 155.378 78.276 157.282 78.654L157.618 78.71C159.2 79.018 159.438 79.326 159.438 79.788C159.438 80.488 158.724 80.782 157.506 80.782C156.358 80.782 155.28 80.53 154.426 80.04L154.552 81.538C155.364 81.972 156.428 82.126 157.562 82.126ZM166.441 73.936V75.924H168.695V73.936H166.441ZM166.441 79.536V81.524H168.695V79.536H166.441ZM179.478 71.724L173.024 84.702H174.802L181.242 71.724H179.478ZM189.28 71.724L182.826 84.702H184.604L191.044 71.724H189.28ZM200.259 80.908V74.44H199.419L198.999 74.944C198.397 74.538 197.725 74.37 196.955 74.37C194.897 74.37 193.287 75.658 193.287 78.066C193.287 80.348 194.659 81.566 196.689 81.566C197.459 81.566 198.061 81.37 198.579 81.048V81.16C198.579 82.77 198.019 83.512 196.423 83.512C195.555 83.512 194.533 83.358 193.581 82.742L193.777 84.31C194.589 84.73 195.513 84.884 196.367 84.884C199.041 84.87 200.259 83.75 200.259 80.908ZM194.967 78.052C194.967 76.596 195.793 75.742 197.109 75.742C197.725 75.742 198.145 75.854 198.579 76.106V79.76C198.075 80.152 197.641 80.32 196.997 80.32C195.751 80.32 194.967 79.466 194.967 78.052ZM209.474 81.622L209.712 80.194C209.026 80.572 208.242 80.754 207.346 80.754C206.072 80.754 204.966 80.236 204.84 78.528H210.174C210.174 76.022 209.124 74.37 206.786 74.37C204.826 74.37 203.146 75.574 203.146 78.234C203.146 81.104 204.952 82.14 207.038 82.14C208.074 82.14 208.9 81.944 209.474 81.622ZM206.842 75.686C207.892 75.686 208.536 76.274 208.732 77.52H204.882C205.092 76.19 205.96 75.686 206.842 75.686ZM219.71 81.888L219.892 80.376C219.318 80.516 218.8 80.586 218.268 80.586C216.98 80.586 216.462 80.138 216.462 78.626V75.77H219.696V74.468H216.462V71.5H214.782V74.468H212.976V75.77H214.782V78.71C214.782 81.426 215.972 82.126 217.904 82.126C218.45 82.126 219.108 82.042 219.71 81.888ZM225.229 80.012V82H227.483V80.012H225.229ZM237.944 82H239.12L240.576 74.496H239.148L238.364 79.592L236.516 74.496H235.914L234.136 79.564L233.31 74.496H231.784L233.254 82H234.458L236.18 77.184L237.944 82ZM247.775 82H249.007V77.464C249.007 75.462 247.887 74.37 245.731 74.37C244.779 74.37 243.981 74.594 243.253 75.056L242.931 76.736C243.701 76.148 244.499 75.896 245.367 75.896C246.445 75.896 247.257 76.316 247.327 77.394C243.771 77.576 242.469 78.43 242.469 79.984C242.469 81.51 243.533 82.126 244.975 82.126C246.053 82.126 246.907 81.734 247.439 81.132L247.775 82ZM244.065 79.844C244.065 78.99 245.031 78.542 247.327 78.36V80.152C246.823 80.628 246.151 80.88 245.465 80.88C244.555 80.88 244.065 80.516 244.065 79.844ZM255.589 82.126C257.675 82.126 259.061 81.328 259.061 79.746C259.061 78.752 258.627 78.024 256.499 77.604L256.107 77.52C254.581 77.212 254.273 77.016 254.273 76.498C254.273 75.938 254.861 75.644 255.967 75.644C256.891 75.644 257.941 75.826 258.683 76.19L258.557 74.734C257.843 74.44 257.031 74.3 255.995 74.3C253.937 74.3 252.747 75.084 252.747 76.554C252.747 77.688 253.405 78.276 255.309 78.654L255.645 78.71C257.227 79.018 257.465 79.326 257.465 79.788C257.465 80.488 256.751 80.782 255.533 80.782C254.385 80.782 253.307 80.53 252.453 80.04L252.579 81.538C253.391 81.972 254.455 82.126 255.589 82.126ZM263.852 75.854C264.496 75.854 264.846 76.274 264.846 77.478V82H266.302V77.044C266.302 76.792 266.288 76.568 266.26 76.358C266.638 76.036 266.96 75.854 267.352 75.854C268.038 75.854 268.346 76.274 268.346 77.478V82H269.816V77.198C269.816 75.182 269.13 74.384 267.814 74.384C267.1 74.384 266.498 74.734 265.966 75.294C265.63 74.664 265.056 74.384 264.286 74.384C263.656 74.384 263.124 74.692 262.634 75.196L262.312 74.496H261.318V82H262.788V76.4C263.18 76.036 263.46 75.854 263.852 75.854ZM278.093 81.622L278.331 80.194C277.645 80.572 276.861 80.754 275.965 80.754C274.691 80.754 273.585 80.236 273.459 78.528H278.793C278.793 76.022 277.743 74.37 275.405 74.37C273.445 74.37 271.765 75.574 271.765 78.234C271.765 81.104 273.571 82.14 275.657 82.14C276.693 82.14 277.519 81.944 278.093 81.622ZM275.461 75.686C276.511 75.686 277.155 76.274 277.351 77.52H273.501C273.711 76.19 274.579 75.686 275.461 75.686ZM281.736 75.798H283.78V80.698H281.736V82H288.568V80.698H285.446V77.758C286.482 76.764 287.742 76.19 288.974 76.162L288.918 74.37C287.392 74.37 286.244 75.028 285.334 76.428L285.11 74.496H281.736V75.798ZM293.848 80.012V82H296.102V80.012H293.848ZM303.833 70.842V72.606H305.723V70.842H303.833ZM301.299 75.798H304.015V80.698H301.299V82H308.285V80.698H305.695V74.496H301.299V75.798ZM314.546 82.154C316.814 82.154 318.186 80.586 318.186 78.248C318.186 75.91 316.884 74.356 314.588 74.356C312.418 74.356 310.962 75.854 310.962 78.248C310.962 80.6 312.264 82.154 314.546 82.154ZM314.574 80.74C313.44 80.74 312.642 79.9 312.642 78.234C312.642 76.638 313.468 75.77 314.588 75.77C315.75 75.77 316.506 76.666 316.506 78.248C316.506 79.858 315.708 80.74 314.574 80.74ZM331.435 78.528H336.951V76.974H331.435V78.528ZM343.814 82.126C345.9 82.126 347.286 81.328 347.286 79.746C347.286 78.752 346.852 78.024 344.724 77.604L344.332 77.52C342.806 77.212 342.498 77.016 342.498 76.498C342.498 75.938 343.086 75.644 344.192 75.644C345.116 75.644 346.166 75.826 346.908 76.19L346.782 74.734C346.068 74.44 345.256 74.3 344.22 74.3C342.162 74.3 340.972 75.084 340.972 76.554C340.972 77.688 341.63 78.276 343.534 78.654L343.87 78.71C345.452 79.018 345.69 79.326 345.69 79.788C345.69 80.488 344.976 80.782 343.758 80.782C342.61 80.782 341.532 80.53 340.678 80.04L340.804 81.538C341.616 81.972 342.68 82.126 343.814 82.126ZM353.547 82.168C355.843 82.168 357.299 81.034 357.299 79.074C357.299 77.646 356.641 76.89 354.569 76.204L354.177 76.078C352.791 75.63 352.413 75.238 352.413 74.482C352.413 73.628 353.001 73.054 354.233 73.054C355.129 73.054 356.221 73.362 356.991 73.768L356.809 72.13C356.193 71.808 355.213 71.514 354.135 71.514C351.881 71.514 350.635 72.606 350.635 74.496C350.635 76.022 351.447 76.764 353.183 77.324L353.701 77.492C355.115 77.926 355.507 78.346 355.507 79.088C355.507 80.11 354.751 80.642 353.505 80.642C352.399 80.642 351.265 80.292 350.327 79.746L350.509 81.44C351.195 81.86 352.343 82.168 353.547 82.168ZM366.808 80.698H364.036V75.994H366.808V74.692H364.036V74.342C364.036 73.11 364.526 72.536 365.66 72.536C366.066 72.536 366.458 72.564 366.962 72.732L366.864 71.22C366.304 71.066 365.842 71.01 365.31 71.01C363.504 71.01 362.356 71.878 362.356 74.412V74.692H360.368V75.994H362.356V80.698H360.368V82H366.808V80.698ZM370.45 82H376.932V80.474H372.186V71.724H370.45V82ZM392.212 84.702H393.822V71.15H392.212V84.702ZM412.433 82.126C414.519 82.126 415.905 81.328 415.905 79.746C415.905 78.752 415.471 78.024 413.343 77.604L412.951 77.52C411.425 77.212 411.117 77.016 411.117 76.498C411.117 75.938 411.705 75.644 412.811 75.644C413.735 75.644 414.785 75.826 415.527 76.19L415.401 74.734C414.687 74.44 413.875 74.3 412.839 74.3C410.781 74.3 409.591 75.084 409.591 76.554C409.591 77.688 410.249 78.276 412.153 78.654L412.489 78.71C414.071 79.018 414.309 79.326 414.309 79.788C414.309 80.488 413.595 80.782 412.377 80.782C411.229 80.782 410.151 80.53 409.297 80.04L409.423 81.538C410.235 81.972 411.299 82.126 412.433 82.126ZM422.474 75.98C423.398 75.98 423.93 76.428 423.93 77.786V82H425.61V77.562C425.61 75.28 424.644 74.37 422.992 74.37C422.208 74.37 421.522 74.65 420.892 75.182V71.122H419.212V82H420.892V76.624C421.424 76.176 421.9 75.98 422.474 75.98Z" fill="#FBFBFC"/>
<path d="M29 114C29 109.582 32.5817 106 37 106H525C529.418 106 533 109.582 533 114V282C533 286.418 529.418 290 525 290H37C32.5817 290 29 286.418 29 282V114Z" fill="#0F0518"/>
<path d="M29 114C29 109.582 32.5817 106 37 106H525C529.418 106 533 109.582 533 114V282C533 286.418 529.418 290 525 290H37C32.5817 290 29 286.418 29 282V114Z" fill="#FBFBFC" fill-opacity="0.08"/>
<path opacity="0.5" d="M52.504 137L50.136 132.92H47.96V137H46.12V125.8H50.6C52.6 125.8 54.2 127.4 54.2 129.4C54.2 130.84 53.288 132.12 51.976 132.648L54.52 137H52.504ZM47.96 127.528V131.272H50.6C51.576 131.272 52.36 130.44 52.36 129.4C52.36 128.344 51.576 127.528 50.6 127.528H47.96ZM61.3762 129H63.1042V137H61.3762V135.976C60.8482 136.808 59.9843 137.208 58.8962 137.208C57.1042 137.208 55.8242 135.992 55.8242 133.912V129H57.5522V133.736C57.5522 134.952 58.2562 135.592 59.3442 135.592C60.4802 135.592 61.3762 134.92 61.3762 133.288V129ZM69.6529 128.792C71.4449 128.792 72.7249 130.008 72.7249 132.088V137H70.9969V132.264C70.9969 131.048 70.2929 130.408 69.2049 130.408C68.0689 130.408 67.1729 131.08 67.1729 132.712V137H65.4449V129H67.1729V130.024C67.7009 129.192 68.5649 128.792 69.6529 128.792Z" fill="#FBFBFC"/>
<path d="M53.274 163.116C53.274 161.842 52.616 161.114 50.558 160.372V157.278C51.398 157.348 52.294 157.628 52.84 157.936L52.686 156.396C52.182 156.13 51.454 155.906 50.558 155.864V154.002H49.088V155.934C47.492 156.214 46.638 157.166 46.638 158.664C46.638 160.064 47.436 160.778 49.088 161.352V164.558C48.178 164.474 47.226 164.18 46.456 163.732L46.61 165.314C47.212 165.664 48.094 165.916 49.088 165.986V167.848H50.558V165.93C52.224 165.65 53.274 164.614 53.274 163.116ZM48.29 158.664C48.29 158.118 48.542 157.684 49.088 157.446V159.798C48.486 159.476 48.29 159.154 48.29 158.664ZM51.608 163.158C51.608 163.746 51.216 164.194 50.558 164.418V161.898C51.328 162.248 51.608 162.598 51.608 163.158ZM71.2975 166H72.4735L73.9295 158.496H72.5015L71.7175 163.592L69.8695 158.496H69.2675L67.4895 163.564L66.6635 158.496H65.1375L66.6075 166H67.8115L69.5335 161.184L71.2975 166ZM81.1282 166H82.3602V161.464C82.3602 159.462 81.2402 158.37 79.0842 158.37C78.1322 158.37 77.3342 158.594 76.6062 159.056L76.2842 160.736C77.0542 160.148 77.8522 159.896 78.7202 159.896C79.7982 159.896 80.6102 160.316 80.6802 161.394C77.1242 161.576 75.8222 162.43 75.8222 163.984C75.8222 165.51 76.8862 166.126 78.3282 166.126C79.4062 166.126 80.2602 165.734 80.7922 165.132L81.1282 166ZM77.4182 163.844C77.4182 162.99 78.3842 162.542 80.6802 162.36V164.152C80.1762 164.628 79.5042 164.88 78.8182 164.88C77.9082 164.88 77.4182 164.516 77.4182 163.844ZM88.9429 166.126C91.0289 166.126 92.4149 165.328 92.4149 163.746C92.4149 162.752 91.9809 162.024 89.8529 161.604L89.4609 161.52C87.9349 161.212 87.6269 161.016 87.6269 160.498C87.6269 159.938 88.2149 159.644 89.3209 159.644C90.2449 159.644 91.2949 159.826 92.0369 160.19L91.9109 158.734C91.1969 158.44 90.3849 158.3 89.3489 158.3C87.2909 158.3 86.1009 159.084 86.1009 160.554C86.1009 161.688 86.7589 162.276 88.6629 162.654L88.9989 162.71C90.5809 163.018 90.8189 163.326 90.8189 163.788C90.8189 164.488 90.1049 164.782 88.8869 164.782C87.7389 164.782 86.6609 164.53 85.8069 164.04L85.9329 165.538C86.7449 165.972 87.8089 166.126 88.9429 166.126ZM97.2057 159.854C97.8497 159.854 98.1997 160.274 98.1997 161.478V166H99.6557V161.044C99.6557 160.792 99.6417 160.568 99.6137 160.358C99.9917 160.036 100.314 159.854 100.706 159.854C101.392 159.854 101.7 160.274 101.7 161.478V166H103.17V161.198C103.17 159.182 102.484 158.384 101.168 158.384C100.454 158.384 99.8517 158.734 99.3197 159.294C98.9837 158.664 98.4097 158.384 97.6397 158.384C97.0097 158.384 96.4777 158.692 95.9877 159.196L95.6657 158.496H94.6717V166H96.1417V160.4C96.5337 160.036 96.8137 159.854 97.2057 159.854ZM111.446 165.622L111.684 164.194C110.998 164.572 110.214 164.754 109.318 164.754C108.044 164.754 106.938 164.236 106.812 162.528H112.146C112.146 160.022 111.096 158.37 108.758 158.37C106.798 158.37 105.118 159.574 105.118 162.234C105.118 165.104 106.924 166.14 109.01 166.14C110.046 166.14 110.872 165.944 111.446 165.622ZM108.814 159.686C109.864 159.686 110.508 160.274 110.704 161.52H106.854C107.064 160.19 107.932 159.686 108.814 159.686ZM115.089 159.798H117.133V164.698H115.089V166H121.921V164.698H118.799V161.758C119.835 160.764 121.095 160.19 122.327 160.162L122.271 158.37C120.745 158.37 119.597 159.028 118.687 160.428L118.463 158.496H115.089V159.798ZM134.695 159.798H136.739V164.698H134.695V166H141.527V164.698H138.405V161.758C139.441 160.764 140.701 160.19 141.933 160.162L141.877 158.37C140.351 158.37 139.203 159.028 138.293 160.428L138.069 158.496H134.695V159.798ZM149.929 166H151.133V158.496H149.453V163.886C148.921 164.32 148.445 164.516 147.885 164.516C146.947 164.516 146.415 164.068 146.415 162.71V158.496H144.735V162.934C144.735 165.23 145.701 166.126 147.353 166.126C148.193 166.126 148.921 165.818 149.565 165.216L149.929 166ZM157.8 159.98C158.724 159.98 159.256 160.428 159.256 161.786V166H160.936V161.562C160.936 159.28 159.97 158.37 158.318 158.37C157.478 158.37 156.764 158.678 156.106 159.28L155.742 158.496H154.538V166H156.218V160.624C156.75 160.176 157.226 159.98 157.8 159.98ZM177.462 166.14C179.646 166.14 181.102 164.6 181.102 162.206C181.102 159.658 179.73 158.37 177.7 158.37C176.818 158.37 176.132 158.622 175.572 159.07L175.222 158.44H174.102V168.702H175.782V165.776C176.258 166.014 176.79 166.14 177.462 166.14ZM177.336 159.826C178.61 159.826 179.408 160.736 179.408 162.234C179.408 163.774 178.582 164.726 177.308 164.726C176.664 164.726 176.244 164.6 175.782 164.306V160.4C176.258 160.008 176.678 159.826 177.336 159.826ZM190.918 158.496H189.252L187.292 164.068L185.29 158.496H183.414L186.382 165.748L185.22 168.702H186.928L190.918 158.496ZM200.105 165.888L200.287 164.376C199.713 164.516 199.195 164.586 198.663 164.586C197.375 164.586 196.857 164.138 196.857 162.626V159.77H200.091V158.468H196.857V155.5H195.177V158.468H193.371V159.77H195.177V162.71C195.177 165.426 196.367 166.126 198.299 166.126C198.845 166.126 199.503 166.042 200.105 165.888ZM206.814 159.98C207.738 159.98 208.27 160.428 208.27 161.786V166H209.95V161.562C209.95 159.28 208.984 158.37 207.332 158.37C206.548 158.37 205.862 158.65 205.232 159.182V155.122H203.552V166H205.232V160.624C205.764 160.176 206.24 159.98 206.814 159.98ZM216.518 166.154C218.786 166.154 220.158 164.586 220.158 162.248C220.158 159.91 218.856 158.356 216.56 158.356C214.39 158.356 212.934 159.854 212.934 162.248C212.934 164.6 214.236 166.154 216.518 166.154ZM216.546 164.74C215.412 164.74 214.614 163.9 214.614 162.234C214.614 160.638 215.44 159.77 216.56 159.77C217.722 159.77 218.478 160.666 218.478 162.248C218.478 163.858 217.68 164.74 216.546 164.74ZM226.419 159.98C227.343 159.98 227.875 160.428 227.875 161.786V166H229.555V161.562C229.555 159.28 228.589 158.37 226.937 158.37C226.097 158.37 225.383 158.678 224.725 159.28L224.361 158.496H223.157V166H224.837V160.624C225.369 160.176 225.845 159.98 226.419 159.98ZM238.294 155.724L231.84 168.702H233.618L240.058 155.724H238.294ZM246.081 166.14C248.265 166.14 249.721 164.6 249.721 162.206C249.721 159.658 248.349 158.37 246.319 158.37C245.437 158.37 244.751 158.622 244.191 159.07L243.841 158.44H242.721V168.702H244.401V165.776C244.877 166.014 245.409 166.14 246.081 166.14ZM245.955 159.826C247.229 159.826 248.027 160.736 248.027 162.234C248.027 163.774 247.201 164.726 245.927 164.726C245.283 164.726 244.863 164.6 244.401 164.306V160.4C244.877 160.008 245.297 159.826 245.955 159.826ZM259.537 158.496H257.871L255.911 164.068L253.909 158.496H252.033L255.001 165.748L253.839 168.702H255.547L259.537 158.496ZM268.724 165.888L268.906 164.376C268.332 164.516 267.814 164.586 267.282 164.586C265.994 164.586 265.476 164.138 265.476 162.626V159.77H268.71V158.468H265.476V155.5H263.796V158.468H261.99V159.77H263.796V162.71C263.796 165.426 264.986 166.126 266.918 166.126C267.464 166.126 268.122 166.042 268.724 165.888ZM275.433 159.98C276.357 159.98 276.889 160.428 276.889 161.786V166H278.569V161.562C278.569 159.28 277.603 158.37 275.951 158.37C275.167 158.37 274.481 158.65 273.851 159.182V155.122H272.171V166H273.851V160.624C274.383 160.176 274.859 159.98 275.433 159.98ZM285.138 166.154C287.406 166.154 288.778 164.586 288.778 162.248C288.778 159.91 287.476 158.356 285.18 158.356C283.01 158.356 281.554 159.854 281.554 162.248C281.554 164.6 282.856 166.154 285.138 166.154ZM285.166 164.74C284.032 164.74 283.234 163.9 283.234 162.234C283.234 160.638 284.06 159.77 285.18 159.77C286.342 159.77 287.098 160.666 287.098 162.248C287.098 163.858 286.3 164.74 285.166 164.74ZM295.038 159.98C295.962 159.98 296.494 160.428 296.494 161.786V166H298.174V161.562C298.174 159.28 297.208 158.37 295.556 158.37C294.716 158.37 294.002 158.678 293.344 159.28L292.98 158.496H291.776V166H293.456V160.624C293.988 160.176 294.464 159.98 295.038 159.98ZM311.83 162.528H317.346V160.974H311.83V162.528ZM321.633 162.528H327.149V160.974H321.633V162.528ZM341.238 162.528H346.754V160.974H341.238V162.528ZM354.387 166.14C355.297 166.14 355.997 165.972 356.725 165.594L356.809 164.138C356.081 164.488 355.451 164.656 354.737 164.656C353.435 164.656 352.203 164.096 352.203 162.234C352.203 160.806 353.141 159.854 354.695 159.854C355.367 159.854 356.109 160.05 356.809 160.456L356.683 158.916C356.095 158.566 355.227 158.37 354.345 158.37C352.105 158.37 350.495 159.672 350.495 162.332C350.495 165.23 352.511 166.14 354.387 166.14Z" fill="#FBFBFC"/>
<path d="M370.758 160.778H372.438V155.122H370.758V160.778ZM374.37 160.778H376.05V155.122H374.37V160.778ZM386.413 164.698H383.641V159.994H386.413V158.692H383.641V158.342C383.641 157.11 384.131 156.536 385.265 156.536C385.671 156.536 386.063 156.564 386.567 156.732L386.469 155.22C385.909 155.066 385.447 155.01 384.915 155.01C383.109 155.01 381.961 155.878 381.961 158.412V158.692H379.973V159.994H381.961V164.698H379.973V166H386.413V164.698ZM392.968 166.154C395.236 166.154 396.608 164.586 396.608 162.248C396.608 159.91 395.306 158.356 393.01 158.356C390.84 158.356 389.384 159.854 389.384 162.248C389.384 164.6 390.686 166.154 392.968 166.154ZM392.996 164.74C391.862 164.74 391.064 163.9 391.064 162.234C391.064 160.638 391.89 159.77 393.01 159.77C394.172 159.77 394.928 160.666 394.928 162.248C394.928 163.858 394.13 164.74 392.996 164.74ZM399.368 159.798H401.412V164.698H399.368V166H406.2V164.698H403.078V161.758C404.114 160.764 405.374 160.19 406.606 160.162L406.55 158.37C405.024 158.37 403.876 159.028 402.966 160.428L402.742 158.496H399.368V159.798ZM424.392 166H426.268L423.524 162.136L426.198 158.496H424.434L422.488 161.156L420.542 158.496H418.568L421.354 162.234L418.582 166H420.416L422.404 163.228L424.392 166ZM441.071 154.842V156.606H442.961V154.842H441.071ZM438.537 159.798H441.253V164.698H438.537V166H445.523V164.698H442.933V158.496H438.537V159.798ZM451.882 159.98C452.806 159.98 453.338 160.428 453.338 161.786V166H455.018V161.562C455.018 159.28 454.052 158.37 452.4 158.37C451.56 158.37 450.846 158.678 450.188 159.28L449.824 158.496H448.62V166H450.3V160.624C450.832 160.176 451.308 159.98 451.882 159.98ZM46.47 184.798H48.514V189.698H46.47V191H53.302V189.698H50.18V186.758C51.216 185.764 52.476 185.19 53.708 185.162L53.652 183.37C52.126 183.37 50.978 184.028 50.068 185.428L49.844 183.496H46.47V184.798ZM61.5227 191H62.7547V186.464C62.7547 184.462 61.6347 183.37 59.4787 183.37C58.5267 183.37 57.7287 183.594 57.0007 184.056L56.6787 185.736C57.4487 185.148 58.2467 184.896 59.1147 184.896C60.1927 184.896 61.0047 185.316 61.0747 186.394C57.5187 186.576 56.2167 187.43 56.2167 188.984C56.2167 190.51 57.2807 191.126 58.7227 191.126C59.8007 191.126 60.6547 190.734 61.1867 190.132L61.5227 191ZM57.8127 188.844C57.8127 187.99 58.7787 187.542 61.0747 187.36V189.152C60.5707 189.628 59.8987 189.88 59.2127 189.88C58.3027 189.88 57.8127 189.516 57.8127 188.844ZM69.5755 184.98C70.4995 184.98 71.0315 185.428 71.0315 186.786V191H72.7115V186.562C72.7115 184.28 71.7455 183.37 70.0935 183.37C69.2535 183.37 68.5395 183.678 67.8815 184.28L67.5175 183.496H66.3135V191H67.9935V185.624C68.5255 185.176 69.0015 184.98 69.5755 184.98ZM82.6262 189.908V183.44H81.7862L81.3662 183.944C80.7642 183.538 80.0922 183.37 79.3222 183.37C77.2642 183.37 75.6542 184.658 75.6542 187.066C75.6542 189.348 77.0262 190.566 79.0562 190.566C79.8262 190.566 80.4282 190.37 80.9462 190.048V190.16C80.9462 191.77 80.3862 192.512 78.7902 192.512C77.9222 192.512 76.9002 192.358 75.9482 191.742L76.1442 193.31C76.9562 193.73 77.8802 193.884 78.7342 193.884C81.4082 193.87 82.6262 192.75 82.6262 189.908ZM77.3342 187.052C77.3342 185.596 78.1602 184.742 79.4762 184.742C80.0922 184.742 80.5122 184.854 80.9462 185.106V188.76C80.4422 189.152 80.0082 189.32 79.3642 189.32C78.1182 189.32 77.3342 188.466 77.3342 187.052ZM91.8409 190.622L92.0789 189.194C91.3929 189.572 90.6089 189.754 89.7129 189.754C88.4389 189.754 87.3329 189.236 87.2069 187.528H92.5409C92.5409 185.022 91.4909 183.37 89.1529 183.37C87.1929 183.37 85.5129 184.574 85.5129 187.234C85.5129 190.104 87.3189 191.14 89.4049 191.14C90.4409 191.14 91.2669 190.944 91.8409 190.622ZM89.2089 184.686C90.2589 184.686 90.9029 185.274 91.0989 186.52H87.2489C87.4589 185.19 88.3269 184.686 89.2089 184.686ZM99.3897 193.17H101.42C99.5297 191.084 98.4797 189.152 98.4797 186.646C98.4797 184.014 99.5997 182.054 101.462 180.15H99.5017C97.8077 181.9 96.7437 183.902 96.7437 186.66C96.7437 189.404 97.9337 191.504 99.3897 193.17ZM108.226 191.14C110.564 191.14 112.244 189.908 112.244 187.864C112.244 186.38 111.46 184.924 107.442 184.742V182.334H111.852V180.724H105.972L105.986 186.002C109.794 186.114 110.522 186.926 110.522 187.878C110.522 189.096 109.43 189.614 108.044 189.614C107.134 189.614 106.28 189.474 105.384 189.11L105.72 190.72C106.462 190.986 107.232 191.14 108.226 191.14ZM115.747 193.156H117.749C119.513 191.322 120.577 189.376 120.577 186.646C120.577 183.776 119.401 181.844 117.777 180.136H115.817C117.693 182.11 118.827 183.888 118.827 186.674C118.827 189.264 117.777 191.196 115.747 193.156ZM127.23 182.936V184.924H129.484V182.936H127.23ZM127.23 188.536V190.524H129.484V188.536H127.23ZM148.053 191.14C150.237 191.14 151.693 189.6 151.693 187.206C151.693 184.658 150.321 183.37 148.291 183.37C147.409 183.37 146.723 183.622 146.163 184.07L145.813 183.44H144.693V193.702H146.373V190.776C146.849 191.014 147.381 191.14 148.053 191.14ZM147.927 184.826C149.201 184.826 149.999 185.736 149.999 187.234C149.999 188.774 149.173 189.726 147.899 189.726C147.255 189.726 146.835 189.6 146.373 189.306V185.4C146.849 185.008 147.269 184.826 147.927 184.826ZM154.3 184.798H156.344V189.698H154.3V191H161.132V189.698H158.01V186.758C159.046 185.764 160.306 185.19 161.538 185.162L161.482 183.37C159.956 183.37 158.808 184.028 157.898 185.428L157.674 183.496H154.3V184.798ZM166.595 179.842V181.606H168.485V179.842H166.595ZM164.061 184.798H166.777V189.698H164.061V191H171.047V189.698H168.457V183.496H164.061V184.798ZM177.406 184.98C178.33 184.98 178.862 185.428 178.862 186.786V191H180.542V186.562C180.542 184.28 179.576 183.37 177.924 183.37C177.084 183.37 176.37 183.678 175.712 184.28L175.348 183.496H174.144V191H175.824V185.624C176.356 185.176 176.832 184.98 177.406 184.98ZM190.302 190.888L190.484 189.376C189.91 189.516 189.392 189.586 188.86 189.586C187.572 189.586 187.054 189.138 187.054 187.626V184.77H190.288V183.468H187.054V180.5H185.374V183.468H183.568V184.77H185.374V187.71C185.374 190.426 186.564 191.126 188.496 191.126C189.042 191.126 189.7 191.042 190.302 190.888ZM197.417 193.17H199.447C197.557 191.084 196.507 189.152 196.507 186.646C196.507 184.014 197.627 182.054 199.489 180.15H197.529C195.835 181.9 194.771 183.902 194.771 186.66C194.771 189.404 195.961 191.504 197.417 193.17ZM209.964 189.698H207.192V184.994H209.964V183.692H207.192V183.342C207.192 182.11 207.682 181.536 208.816 181.536C209.222 181.536 209.614 181.564 210.118 181.732L210.02 180.22C209.46 180.066 208.998 180.01 208.466 180.01C206.66 180.01 205.512 180.878 205.512 183.412V183.692H203.524V184.994H205.512V189.698H203.524V191H209.964V189.698ZM215.706 185.778H217.386V180.122H215.706V185.778ZM229.079 193.324L229.177 191.728C227.147 191.728 226.615 191.364 226.615 190.594C226.615 189.74 227.287 189.264 227.287 188.312C227.287 187.514 226.783 186.786 225.383 186.548C226.797 186.268 227.287 185.568 227.287 184.784C227.287 183.93 226.615 183.426 226.615 182.558C226.615 181.858 227.371 181.466 229.177 181.466L229.079 179.87C226.055 179.87 224.865 180.626 224.865 181.998C224.865 183.188 225.607 183.762 225.607 184.602C225.607 185.288 225.005 185.89 223.437 185.89V187.318C225.047 187.318 225.593 187.934 225.593 188.522C225.593 189.474 224.865 190.006 224.865 191.224C224.865 192.736 225.985 193.324 229.079 193.324ZM238.14 191H240.016L237.272 187.136L239.946 183.496H238.182L236.236 186.156L234.29 183.496H232.316L235.102 187.234L232.33 191H234.164L236.152 188.228L238.14 191ZM243.225 193.324C246.263 193.324 247.425 192.568 247.425 191.196C247.425 190.048 246.725 189.39 246.725 188.55C246.725 187.892 247.313 187.318 248.811 187.318V185.89C247.243 185.89 246.725 185.274 246.725 184.728C246.725 183.748 247.425 183.146 247.425 181.97C247.425 180.472 246.319 179.87 243.225 179.87L243.127 181.466C245.157 181.466 245.689 181.816 245.689 182.586C245.689 183.412 245.045 183.93 245.045 184.868C245.045 185.68 245.535 186.464 246.935 186.646C245.507 186.898 245.045 187.626 245.045 188.41C245.045 189.25 245.689 189.81 245.689 190.65C245.689 191.35 244.933 191.742 243.127 191.742L243.225 193.324ZM265.392 191.126C267.478 191.126 268.864 190.328 268.864 188.746C268.864 187.752 268.43 187.024 266.302 186.604L265.91 186.52C264.384 186.212 264.076 186.016 264.076 185.498C264.076 184.938 264.664 184.644 265.77 184.644C266.694 184.644 267.744 184.826 268.486 185.19L268.36 183.734C267.646 183.44 266.834 183.3 265.798 183.3C263.74 183.3 262.55 184.084 262.55 185.554C262.55 186.688 263.208 187.276 265.112 187.654L265.448 187.71C267.03 188.018 267.268 188.326 267.268 188.788C267.268 189.488 266.554 189.782 265.336 189.782C264.188 189.782 263.11 189.53 262.256 189.04L262.382 190.538C263.194 190.972 264.258 191.126 265.392 191.126ZM278.597 183.44H277.729L277.295 183.958C276.707 183.566 276.091 183.37 275.237 183.37C273.053 183.37 271.583 184.91 271.583 187.318C271.583 189.852 272.955 191.14 274.985 191.14C275.769 191.14 276.385 190.958 276.917 190.608V193.702H278.597V183.44ZM273.291 187.29C273.291 185.736 274.103 184.798 275.391 184.798C276.035 184.798 276.455 184.924 276.917 185.204V189.11C276.455 189.502 276.021 189.698 275.349 189.698C274.089 189.698 273.291 188.774 273.291 187.29ZM287.168 191H288.372V183.496H286.692V188.886C286.16 189.32 285.684 189.516 285.124 189.516C284.186 189.516 283.654 189.068 283.654 187.71V183.496H281.974V187.934C281.974 190.23 282.94 191.126 284.592 191.126C285.432 191.126 286.16 190.818 286.804 190.216L287.168 191ZM296.788 191H298.02V186.464C298.02 184.462 296.9 183.37 294.744 183.37C293.792 183.37 292.994 183.594 292.266 184.056L291.944 185.736C292.714 185.148 293.512 184.896 294.38 184.896C295.458 184.896 296.27 185.316 296.34 186.394C292.784 186.576 291.482 187.43 291.482 188.984C291.482 190.51 292.546 191.126 293.988 191.126C295.066 191.126 295.92 190.734 296.452 190.132L296.788 191ZM293.078 188.844C293.078 187.99 294.044 187.542 296.34 187.36V189.152C295.836 189.628 295.164 189.88 294.478 189.88C293.568 189.88 293.078 189.516 293.078 188.844ZM301.341 184.798H303.385V189.698H301.341V191H308.173V189.698H305.051V186.758C306.087 185.764 307.347 185.19 308.579 185.162L308.523 183.37C306.997 183.37 305.849 184.028 304.939 185.428L304.715 183.496H301.341V184.798ZM317.304 190.622L317.542 189.194C316.856 189.572 316.072 189.754 315.176 189.754C313.902 189.754 312.796 189.236 312.67 187.528H318.004C318.004 185.022 316.954 183.37 314.616 183.37C312.656 183.37 310.976 184.574 310.976 187.234C310.976 190.104 312.782 191.14 314.868 191.14C315.904 191.14 316.73 190.944 317.304 190.622ZM314.672 184.686C315.722 184.686 316.366 185.274 316.562 186.52H312.712C312.922 185.19 313.79 184.686 314.672 184.686ZM323.285 182.936V184.924H325.539V182.936H323.285ZM323.285 188.536V190.524H325.539V188.536H323.285ZM346.712 193.324L346.81 191.728C344.78 191.728 344.248 191.364 344.248 190.594C344.248 189.74 344.92 189.264 344.92 188.312C344.92 187.514 344.416 186.786 343.016 186.548C344.43 186.268 344.92 185.568 344.92 184.784C344.92 183.93 344.248 183.426 344.248 182.558C344.248 181.858 345.004 181.466 346.81 181.466L346.712 179.87C343.688 179.87 342.498 180.626 342.498 181.998C342.498 183.188 343.24 183.762 343.24 184.602C343.24 185.288 342.638 185.89 341.07 185.89V187.318C342.68 187.318 343.226 187.934 343.226 188.522C343.226 189.474 342.498 190.006 342.498 191.224C342.498 192.736 343.618 193.324 346.712 193.324ZM355.773 191H357.649L354.905 187.136L357.579 183.496H355.815L353.869 186.156L351.923 183.496H349.949L352.735 187.234L349.963 191H351.797L353.785 188.228L355.773 191ZM365.604 188.088L366.738 187.276L364.652 184.518L367.704 183.594L367.27 182.278L364.26 183.342L364.33 179.94H362.944L363.014 183.342L359.864 182.236L359.444 183.552L362.622 184.518L360.522 187.276L361.642 188.088L363.644 185.246L365.604 188.088ZM375.378 191H377.254L374.51 187.136L377.184 183.496H375.42L373.474 186.156L371.528 183.496H369.554L372.34 187.234L369.568 191H371.402L373.39 188.228L375.378 191ZM380.463 193.324C383.501 193.324 384.663 192.568 384.663 191.196C384.663 190.048 383.963 189.39 383.963 188.55C383.963 187.892 384.551 187.318 386.049 187.318V185.89C384.481 185.89 383.963 185.274 383.963 184.728C383.963 183.748 384.663 183.146 384.663 181.97C384.663 180.472 383.557 179.87 380.463 179.87L380.365 181.466C382.395 181.466 382.927 181.816 382.927 182.586C382.927 183.412 382.283 183.93 382.283 184.868C382.283 185.68 382.773 186.464 384.173 186.646C382.745 186.898 382.283 187.626 382.283 188.41C382.283 189.25 382.927 189.81 382.927 190.65C382.927 191.35 382.171 191.742 380.365 191.742L380.463 193.324ZM392.156 185.778H393.836V180.122H392.156V185.778ZM400.026 193.156H402.028C403.792 191.322 404.856 189.376 404.856 186.646C404.856 183.776 403.68 181.844 402.056 180.136H400.096C401.972 182.11 403.106 183.888 403.106 186.674C403.106 189.264 402.056 191.196 400.026 193.156ZM409.969 185.778H411.649V180.122H409.969V185.778ZM413.581 185.778H415.261V180.122H413.581V185.778Z" fill="#02C372"/>
<path d="M65.844 258.63H64.528V261.5H62.246V251.168H65.774C66.8847 251.168 67.7853 251.499 68.476 252.162C69.176 252.815 69.526 253.73 69.526 254.906C69.526 255.569 69.3953 256.171 69.134 256.712C68.8727 257.244 68.5133 257.669 68.056 257.986L70.1 261.5H67.468L65.844 258.63ZM64.528 253.156V257.09H65.34C66.544 257.09 67.146 256.451 67.146 255.172C67.146 254.519 66.992 254.019 66.684 253.674C66.376 253.329 65.928 253.156 65.34 253.156H64.528ZM79.1747 261.5H77.6347L77.1447 260.758C76.5007 261.346 75.7727 261.64 74.9607 261.64C74.0647 261.64 73.3834 261.374 72.9167 260.842C72.4594 260.301 72.2307 259.433 72.2307 258.238V253.898H74.4427V258C74.4427 258.56 74.5454 258.957 74.7507 259.19C74.9654 259.423 75.2781 259.54 75.6887 259.54C76.0994 259.54 76.5241 259.391 76.9627 259.092V253.898H79.1747V261.5ZM85.5195 255.844C85.0808 255.844 84.6561 255.998 84.2455 256.306V261.5H82.0335V253.898H83.5735L84.0635 254.64C84.7168 254.043 85.4448 253.744 86.2475 253.744C87.1435 253.744 87.8201 254.015 88.2775 254.556C88.7441 255.088 88.9775 255.956 88.9775 257.16V261.5H86.7655V257.398C86.7655 256.838 86.6581 256.441 86.4435 256.208C86.2381 255.965 85.9301 255.844 85.5195 255.844ZM107.925 260.59C107.234 261.318 106.292 261.682 105.097 261.682C103.902 261.682 102.964 261.323 102.283 260.604C101.602 259.876 101.261 258.91 101.261 257.706C101.261 256.502 101.606 255.541 102.297 254.822C102.988 254.094 103.926 253.73 105.111 253.73C106.324 253.73 107.267 254.089 107.939 254.808C108.62 255.527 108.961 256.488 108.961 257.692C108.961 258.887 108.616 259.853 107.925 260.59ZM105.111 259.876C105.596 259.876 105.988 259.685 106.287 259.302C106.595 258.91 106.749 258.373 106.749 257.692C106.749 257.02 106.6 256.493 106.301 256.11C106.012 255.727 105.615 255.536 105.111 255.536C104.626 255.536 104.229 255.727 103.921 256.11C103.622 256.483 103.473 257.011 103.473 257.692C103.473 258.392 103.622 258.933 103.921 259.316C104.22 259.689 104.616 259.876 105.111 259.876ZM114.928 255.844C114.489 255.844 114.064 255.998 113.654 256.306V261.5H111.442V253.898H112.982L113.472 254.64C114.125 254.043 114.853 253.744 115.656 253.744C116.552 253.744 117.228 254.015 117.686 254.556C118.152 255.088 118.386 255.956 118.386 257.16V261.5H116.174V257.398C116.174 256.838 116.066 256.441 115.852 256.208C115.646 255.965 115.338 255.844 114.928 255.844ZM123.75 252.274H121.174V250.608H125.962V259.834H128.412V261.5H121.174V259.834H123.75V252.274ZM133.329 252.26V250.118H135.667V252.26H133.329ZM133.469 255.55H130.949V253.898H135.667V259.834H138.075V261.5H130.949V259.834H133.469V255.55ZM144.336 255.844C143.897 255.844 143.473 255.998 143.062 256.306V261.5H140.85V253.898H142.39L142.88 254.64C143.533 254.043 144.261 253.744 145.064 253.744C145.96 253.744 146.637 254.015 147.094 254.556C147.561 255.088 147.794 255.956 147.794 257.16V261.5H145.582V257.398C145.582 256.838 145.475 256.441 145.26 256.208C145.055 255.965 144.747 255.844 144.336 255.844ZM157.247 259.302L156.925 261.108C156.327 261.472 155.483 261.654 154.391 261.654C153.168 261.654 152.174 261.332 151.409 260.688C150.643 260.035 150.261 259.017 150.261 257.636C150.261 256.348 150.625 255.377 151.353 254.724C152.081 254.071 153 253.744 154.111 253.744C155.315 253.744 156.215 254.127 156.813 254.892C157.41 255.657 157.709 256.712 157.709 258.056H152.501C152.585 258.747 152.846 259.227 153.285 259.498C153.714 259.759 154.227 259.89 154.825 259.89C155.749 259.89 156.556 259.694 157.247 259.302ZM154.223 255.424C153.812 255.424 153.448 255.55 153.131 255.802C152.813 256.054 152.613 256.441 152.529 256.964H155.903C155.725 255.937 155.165 255.424 154.223 255.424Z" fill="#FBFBFC"/>
<rect x="45" y="239" width="131" height="35" rx="17.5" stroke="#FBFBFC" stroke-opacity="0.25"/>
<path opacity="0.5" d="M50.328 328.212H47.688V332.5H46.2V321.3H50.68C51.64 321.3 52.4613 321.636 53.144 322.308C53.8267 322.991 54.168 323.812 54.168 324.772C54.168 325.497 53.9547 326.159 53.528 326.756C53.0907 327.353 52.5307 327.775 51.848 328.02L54.488 332.5H52.84L50.328 328.212ZM47.688 326.868H50.68C51.2347 326.868 51.7093 326.66 52.104 326.244C52.488 325.839 52.68 325.348 52.68 324.772C52.68 324.196 52.488 323.705 52.104 323.3C51.7093 322.895 51.2347 322.692 50.68 322.692H47.688V326.868ZM62.8974 324.5V332.5H61.5054V331.348C60.94 332.255 60.076 332.708 58.9134 332.708C57.9747 332.708 57.2227 332.409 56.6574 331.812C56.092 331.225 55.8094 330.425 55.8094 329.412V324.5H57.2014V329.332C57.2014 329.983 57.3774 330.484 57.7294 330.836C58.0814 331.199 58.5667 331.38 59.1854 331.38C59.8787 331.38 60.4387 331.161 60.8654 330.724C61.292 330.297 61.5054 329.636 61.5054 328.74V324.5H62.8974ZM69.3206 324.292C70.2593 324.292 71.0113 324.585 71.5766 325.172C72.142 325.769 72.4246 326.575 72.4246 327.588V332.5H71.0326V327.668C71.0326 327.017 70.8566 326.511 70.5046 326.148C70.1526 325.796 69.6673 325.62 69.0486 325.62C68.3553 325.62 67.7953 325.833 67.3686 326.26C66.942 326.697 66.7286 327.364 66.7286 328.26V332.5H65.3366V324.5H66.7286V325.652C67.294 324.745 68.158 324.292 69.3206 324.292ZM78.6719 324.292C79.6105 324.292 80.3625 324.585 80.9279 325.172C81.4932 325.769 81.7759 326.575 81.7759 327.588V332.5H80.3839V327.668C80.3839 327.017 80.2079 326.511 79.8559 326.148C79.5039 325.796 79.0185 325.62 78.3999 325.62C77.7065 325.62 77.1465 325.833 76.7199 326.26C76.2932 326.697 76.0799 327.364 76.0799 328.26V332.5H74.6879V324.5H76.0799V325.652C76.6452 324.745 77.5092 324.292 78.6719 324.292ZM84.7431 323.044C84.4765 323.044 84.2525 322.953 84.0711 322.772C83.8898 322.591 83.7991 322.372 83.7991 322.116C83.7991 321.86 83.8898 321.636 84.0711 321.444C84.2525 321.263 84.4765 321.172 84.7431 321.172C84.9991 321.172 85.2178 321.263 85.3991 321.444C85.5805 321.636 85.6711 321.86 85.6711 322.116C85.6711 322.372 85.5805 322.591 85.3991 322.772C85.2178 322.953 84.9991 323.044 84.7431 323.044ZM84.0391 324.5H85.4311V332.5H84.0391V324.5ZM91.8587 324.292C92.7974 324.292 93.5494 324.585 94.1147 325.172C94.6801 325.769 94.9627 326.575 94.9627 327.588V332.5H93.5707V327.668C93.5707 327.017 93.3947 326.511 93.0427 326.148C92.6907 325.796 92.2054 325.62 91.5867 325.62C90.8934 325.62 90.3334 325.833 89.9067 326.26C89.4801 326.697 89.2667 327.364 89.2667 328.26V332.5H87.8747V324.5H89.2667V325.652C89.8321 324.745 90.6961 324.292 91.8587 324.292ZM105.242 324.5V332.164C105.242 333.348 104.842 334.271 104.042 334.932C103.242 335.583 102.282 335.908 101.162 335.908C100.266 335.908 99.4927 335.743 98.842 335.412C98.1913 335.071 97.7007 334.585 97.37 333.956L98.586 333.268C99.0233 334.164 99.8927 334.612 101.194 334.612C102.026 334.612 102.682 334.393 103.162 333.956C103.631 333.519 103.866 332.921 103.866 332.164V331.028C103.162 332.095 102.159 332.628 100.858 332.628C99.7167 332.628 98.7513 332.223 97.962 331.412C97.1727 330.601 96.778 329.615 96.778 328.452C96.778 327.289 97.1727 326.303 97.962 325.492C98.7513 324.692 99.7167 324.292 100.858 324.292C102.17 324.292 103.173 324.82 103.866 325.876V324.5H105.242ZM101.018 331.3C101.829 331.3 102.506 331.028 103.05 330.484C103.594 329.94 103.866 329.263 103.866 328.452C103.866 327.652 103.594 326.98 103.05 326.436C102.506 325.892 101.829 325.62 101.018 325.62C100.207 325.62 99.53 325.892 98.986 326.436C98.442 326.98 98.17 327.652 98.17 328.452C98.17 329.263 98.442 329.94 98.986 330.484C99.53 331.028 100.207 331.3 101.018 331.3Z" fill="#FBFBFC"/>
<path opacity="0.5" d="M118.248 322.3C120.36 322.3 121.96 323.9 121.96 325.98C121.96 328.044 120.36 329.66 118.248 329.66H115.96V333.5H114.12V322.3H118.248ZM118.248 327.932C119.336 327.932 120.12 327.1 120.12 325.98C120.12 324.844 119.336 324.028 118.248 324.028H115.96V327.932H118.248ZM129.157 325.5H130.998L127.925 333.756C127.174 335.788 125.861 336.812 124.021 336.7V335.084C125.141 335.148 125.749 334.572 126.149 333.516L126.229 333.356L122.837 325.5H124.725L127.109 331.308L129.157 325.5ZM136.862 327.164H134.878V331.004C134.878 332.028 135.55 332.012 136.862 331.948V333.5C134.206 333.82 133.15 333.084 133.15 331.004V327.164H131.678V325.5H133.15V323.772L134.878 323.26V325.5H136.862V327.164ZM142.957 325.292C144.749 325.292 146.029 326.508 146.029 328.588V333.5H144.301V328.764C144.301 327.548 143.597 326.908 142.509 326.908C141.373 326.908 140.477 327.58 140.477 329.212V333.5H138.749V322.3H140.477V326.524C141.005 325.692 141.869 325.292 142.957 325.292ZM151.986 333.708C149.65 333.708 147.762 331.868 147.762 329.5C147.762 327.116 149.65 325.292 151.986 325.292C154.338 325.292 156.21 327.116 156.21 329.5C156.21 331.868 154.338 333.708 151.986 333.708ZM151.986 332.028C153.394 332.028 154.482 330.956 154.482 329.5C154.482 328.044 153.394 326.972 151.986 326.972C150.578 326.972 149.49 328.044 149.49 329.5C149.49 330.956 150.578 332.028 151.986 332.028ZM162.3 325.292C164.092 325.292 165.372 326.508 165.372 328.588V333.5H163.644V328.764C163.644 327.548 162.94 326.908 161.852 326.908C160.716 326.908 159.82 327.58 159.82 329.212V333.5H158.092V325.5H159.82V326.524C160.348 325.692 161.212 325.292 162.3 325.292Z" fill="#FBFBFC"/>
<path opacity="0.5" d="M179 326L175 330L171 326" stroke="#FBFBFC" stroke-width="1.5"/>
<path opacity="0.5" d="M186.76 323.044C186.493 323.044 186.269 322.953 186.088 322.772C185.907 322.591 185.816 322.372 185.816 322.116C185.816 321.86 185.907 321.636 186.088 321.444C186.269 321.263 186.493 321.172 186.76 321.172C187.016 321.172 187.235 321.263 187.416 321.444C187.597 321.636 187.688 321.86 187.688 322.116C187.688 322.372 187.597 322.591 187.416 322.772C187.235 322.953 187.016 323.044 186.76 323.044ZM186.056 324.5H187.448V332.5H186.056V324.5ZM193.876 324.292C194.814 324.292 195.566 324.585 196.132 325.172C196.697 325.769 196.98 326.575 196.98 327.588V332.5H195.588V327.668C195.588 327.017 195.412 326.511 195.06 326.148C194.708 325.796 194.222 325.62 193.604 325.62C192.91 325.62 192.35 325.833 191.924 326.26C191.497 326.697 191.284 327.364 191.284 328.26V332.5H189.892V324.5H191.284V325.652C191.849 324.745 192.713 324.292 193.876 324.292Z" fill="#FBFBFC"/>
<path opacity="0.5" d="M210.416 333.708C207.008 333.708 204.56 331.148 204.56 327.9C204.56 324.652 207.008 322.092 210.416 322.092C212.464 322.092 214.288 323.132 215.232 324.764L213.632 325.692C213.04 324.588 211.824 323.884 210.416 323.884C208 323.884 206.4 325.596 206.4 327.9C206.4 330.204 208 331.916 210.416 331.916C211.824 331.916 213.056 331.212 213.632 330.108L215.232 331.02C214.304 332.652 212.48 333.708 210.416 333.708ZM218.921 331.74H223.481V333.5H217.081V322.3H218.921V331.74ZM225.166 322.3H227.006V333.5H225.166V322.3Z" fill="#FBFBFC"/>
<path opacity="0.5" d="M241 326L237 330L233 326" stroke="#FBFBFC" stroke-width="1.5"/>
<path opacity="0.1" d="M29 362L533 362" stroke="#FBFBFC"/>
</g>
<rect x="27" y="24" width="508" height="340" rx="14" stroke="#0F0518" stroke-width="4"/>
</g>
<defs>
<filter id="filter0_d_218_4028" x="0.660627" y="0.0546641" width="560.679" height="392.679" filterUnits="userSpaceOnUse" color-interpolation-filters="sRGB">
<feFlood flood-opacity="0" result="BackgroundImageFix"/>
<feColorMatrix in="SourceAlpha" type="matrix" values="0 0 0 0 0 0 0 0 0 0 0 0 0 0 0 0 0 0 127 0" result="hardAlpha"/>
<feOffset dy="2.39404"/>
<feGaussianBlur stdDeviation="12.1697"/>
<feColorMatrix type="matrix" values="0 0 0 0 0.054902 0 0 0 0 0.0235294 0 0 0 0 0.101961 0 0 0 0.137324 0"/>
<feBlend mode="multiply" in2="BackgroundImageFix" result="effect1_dropShadow_218_4028"/>
<feBlend mode="normal" in="SourceGraphic" in2="effect1_dropShadow_218_4028" result="shape"/>
</filter>
<radialGradient id="paint0_diamond_218_4028" cx="0" cy="0" r="1" gradientUnits="userSpaceOnUse" gradientTransform="translate(1037 99) rotate(90) scale(77.9999 524.16)">
<stop stop-color="#FBFBFC" stop-opacity="0.3"/>
<stop offset="1" stop-color="#FBFBFC" stop-opacity="0"/>
</radialGradient>
<clipPath id="clip0_218_4028">
<rect x="29" y="26" width="504" height="336" rx="12" fill="white"/>
</clipPath>
<clipPath id="clip1_218_4028">
<rect x="29" y="27" width="504" height="75" rx="8" fill="white"/>
</clipPath>
</defs>
</svg>
