<svg width="49" height="49" viewBox="0 0 49 49" fill="none" xmlns="http://www.w3.org/2000/svg">
<path fill-rule="evenodd" clip-rule="evenodd" d="M13.4143 25.4766C13.3892 30.2461 16.8865 33.0894 22.4674 31.7966V19.1566C16.816 17.4355 13.4379 20.9175 13.4143 25.4766ZM22.6382 0.879395H30.3247V37.2627C22.9569 38.4672 15.9003 39.2312 10.8521 36.4085C4.35208 32.7743 3.82953 21.2255 8.97301 16.0818C11.5808 13.4742 16.8309 11.6384 22.4674 12.8364V1.39195C22.4527 1.1494 22.4391 0.907939 22.6382 0.879395Z" fill="black"/>
<path fill-rule="evenodd" clip-rule="evenodd" d="M42.7938 8.90761H35.1072V0.879395H42.7938V8.90761Z" fill="black"/>
<path fill-rule="evenodd" clip-rule="evenodd" d="M42.7938 12.9731C42.785 18.6334 42.7863 22.7006 42.7858 29.577C42.4592 36.3347 42.5352 41.716 40.0608 44.9495C39.5728 45.5871 38.5365 46.5173 37.6694 47.1702C36.9412 47.7184 35.5534 48.83 34.7655 48.8784C33.9714 48.9272 31.931 47.7759 31.0075 47.341C29.795 46.7699 28.6741 46.0115 27.4206 45.6329C30.3444 43.8211 33.1199 42.4627 34.253 38.8004C35.2384 35.6153 35.1072 30.9998 35.1072 26.5018C35.1072 22.0603 35.127 16.8966 35.127 12.9752L42.7938 12.9731Z" fill="black"/>
</svg>
