<svg width="43" height="42" viewBox="0 0 43 42" fill="none" xmlns="http://www.w3.org/2000/svg">
<g clip-path="url(#clip0_661_987)">
<path d="M36.5407 16.753C36.3337 15.2188 35.4814 13.9039 33.9351 12.6985L33.0462 12.1019L32.4496 12.9907C31.6947 14.1352 31.3051 15.7302 31.4269 17.2522C31.4877 17.7879 31.6582 18.7498 32.2061 19.5899C31.6582 19.8821 30.5746 20.2961 29.1257 20.2718H1.48681L1.43811 20.5883C1.18242 22.1225 1.18242 26.8953 4.28722 30.5724C6.64931 33.3606 10.1803 34.7852 14.807 34.7852C24.8155 34.7852 32.2183 30.1828 35.6884 21.8059C37.052 21.8302 39.9864 21.8181 41.4962 18.9324C41.5327 18.8716 41.6301 18.6889 41.8858 18.1532L42.0319 17.8488L41.1796 17.2765C40.2664 16.6677 38.16 16.4486 36.5407 16.753ZM23.5979 6.52539H19.3973V10.3486H23.5979V6.52539ZM23.5979 11.1156H19.3973V14.9266H23.5979V11.1156ZM18.6302 11.1156H14.4296V14.9266H18.6302V11.1156ZM13.6625 11.1156H9.46189V14.9266H13.6625V11.1156ZM8.69483 15.6937H4.49421V19.5169H8.69483V15.6937ZM13.6625 15.6937H9.46189V19.5169H13.6625V15.6937ZM18.6302 15.6937H14.4296V19.5169H18.6302V15.6937ZM23.5979 15.6937H19.3973V19.5169H23.5979V15.6937ZM28.5656 15.6937H24.365V19.5169H28.5656V15.6937Z" fill="#FAFBFD"/>
</g>
<defs>
<clipPath id="clip0_661_987">
<rect x="0.328979" width="41.7578" height="41.7578" rx="5.53881" fill="white"/>
</clipPath>
</defs>
</svg>
