<svg width="31" height="19" viewBox="0 0 31 19" fill="none" xmlns="http://www.w3.org/2000/svg">
<path d="M15.2616 5.52952C14.0007 5.89548 13.14 6.16995 11.8991 6.53591C11.5989 6.6274 11.5789 6.65027 11.3187 6.30718C11.0185 5.91835 10.7983 5.66675 10.378 5.43803C9.11709 4.72898 7.89619 4.93483 6.75536 5.78112C5.39437 6.78751 4.69385 8.27422 4.71387 10.1269C4.73388 11.9567 5.83469 13.4663 7.41584 13.7179C8.77684 13.9237 9.91767 13.3748 10.8183 12.2083C10.9985 11.9567 11.1586 11.6822 11.3587 11.362C10.6382 11.362 9.73754 11.362 7.4959 11.362C7.07559 11.362 6.97552 11.0647 7.11562 10.6758C7.37581 9.96679 7.85617 8.77742 8.13637 8.18273C8.19641 8.0455 8.33652 7.81677 8.63674 7.81677C9.65748 7.81677 13.4202 7.81677 15.9221 7.81677C15.882 8.43433 15.882 9.05188 15.802 9.66944C15.5818 11.3163 15.0414 12.8258 14.1608 14.1525C12.7197 16.3253 10.8383 17.6748 8.4566 18.0408C6.49517 18.3381 4.67384 17.9035 3.07267 16.5312C1.59159 15.2503 0.750972 13.5578 0.530811 11.4535C0.270621 8.96039 0.911089 6.71889 2.23205 4.75185C3.65309 2.62471 5.53447 1.27523 7.83615 0.794912C9.71753 0.40608 11.5188 0.657677 13.14 1.91566C14.2008 2.7162 14.9614 3.81408 15.4617 5.14069C15.5818 5.34654 15.5018 5.4609 15.2616 5.52952Z" fill="#FAFBFD"/>
<path d="M21.8912 18.1791C20.0699 18.1334 18.4086 17.5387 17.0076 16.1663C15.8268 14.9998 15.0862 13.5131 14.846 11.7519C14.4858 9.16734 15.1062 6.88009 16.4672 4.84444C17.9283 2.64868 19.6896 1.50505 22.0713 1.02473C24.1128 0.613027 26.0342 0.841752 27.7755 2.19123C29.3566 3.42635 30.3374 5.09604 30.5975 7.2918C30.9378 10.3796 30.1572 12.8956 28.2959 15.0456C26.9749 16.578 25.3537 17.5387 23.4924 17.9733C22.952 18.0876 22.4116 18.1105 21.8912 18.1791ZM26.6547 8.93862C26.6347 8.64128 26.6347 8.41255 26.5946 8.18383C26.2344 5.91945 24.413 4.63859 22.5116 5.14178C20.6503 5.62211 19.4494 6.97158 19.0091 9.1216C18.6488 10.9057 19.4094 12.7126 20.8504 13.4445C21.9512 13.9934 23.052 13.9248 24.1128 13.3073C25.694 12.3695 26.5546 10.9057 26.6547 8.93862Z" fill="#FAFBFD"/>
</svg>
