<svg width="72" height="24" viewBox="0 0 72 24" fill="none" xmlns="http://www.w3.org/2000/svg">
<g clip-path="url(#clip0_630_16518)">
<path d="M31.0235 12.3076C31.0235 15.6389 28.4174 18.0937 25.2191 18.0937C22.0209 18.0937 19.4148 15.6389 19.4148 12.3076C19.4148 8.95279 22.0209 6.52148 25.2191 6.52148C28.4174 6.52148 31.0235 8.95279 31.0235 12.3076ZM28.4826 12.3076C28.4826 10.2258 26.9722 8.80148 25.2191 8.80148C23.4661 8.80148 21.9557 10.2258 21.9557 12.3076C21.9557 14.3684 23.4661 15.8137 25.2191 15.8137C26.9722 15.8137 28.4826 14.3658 28.4826 12.3076Z" fill="#0E061A"/>
<path d="M43.5464 12.3076C43.5464 15.6389 40.9404 18.0937 37.7421 18.0937C34.5438 18.0937 31.9377 15.6389 31.9377 12.3076C31.9377 8.9554 34.5438 6.52148 37.7421 6.52148C40.9404 6.52148 43.5464 8.95279 43.5464 12.3076ZM41.0056 12.3076C41.0056 10.2258 39.4951 8.80148 37.7421 8.80148C35.989 8.80148 34.4786 10.2258 34.4786 12.3076C34.4786 14.3684 35.989 15.8137 37.7421 15.8137C39.4951 15.8137 41.0056 14.3658 41.0056 12.3076Z" fill="#0E061A"/>
<path d="M55.547 6.87105V17.2589C55.547 21.5319 53.027 23.2771 50.0479 23.2771C47.2435 23.2771 45.5557 21.4015 44.9192 19.8676L47.1314 18.9467C47.5253 19.8884 48.4905 20.9997 50.0453 20.9997C51.9522 20.9997 53.134 19.8232 53.134 17.6084V16.7763H53.0453C52.4766 17.478 51.3809 18.091 49.9983 18.091C47.1053 18.091 44.4548 15.571 44.4548 12.3284C44.4548 9.06235 47.1053 6.52148 49.9983 6.52148C51.3783 6.52148 52.474 7.13453 53.0453 7.8154H53.134V6.87366H55.547V6.87105ZM53.314 12.3284C53.314 10.291 51.9548 8.80148 50.2253 8.80148C48.4722 8.80148 47.0035 10.291 47.0035 12.3284C47.0035 14.345 48.4722 15.8137 50.2253 15.8137C51.9548 15.8137 53.314 14.345 53.314 12.3284Z" fill="#0E061A"/>
<path d="M59.5249 0.782227V17.7387H57.0466V0.782227H59.5249Z" fill="#0E061A"/>
<path d="M69.182 14.2116L71.1542 15.5264C70.5176 16.4681 68.9837 18.0907 66.3333 18.0907C63.0463 18.0907 60.5916 15.5499 60.5916 12.3046C60.5916 8.86377 63.0672 6.51855 66.0489 6.51855C69.0516 6.51855 70.5202 8.90812 71.0002 10.1994L71.2637 10.8568L63.5289 14.0603C64.1211 15.2212 65.042 15.8133 66.3333 15.8133C67.6272 15.8133 68.5246 15.1768 69.182 14.2116ZM63.1116 12.1299L68.282 9.9829C67.9976 9.26029 67.142 8.75682 66.135 8.75682C64.8437 8.75682 63.0463 9.89682 63.1116 12.1299Z" fill="#0E061A"/>
<path d="M10.0348 10.803V8.34826H18.307C18.3878 8.77609 18.4296 9.28218 18.4296 9.83C18.4296 11.6717 17.9261 13.9491 16.3035 15.5717C14.7252 17.2152 12.7087 18.0917 10.0374 18.0917C5.08609 18.0917 0.922607 14.0587 0.922607 9.10739C0.922607 4.15609 5.08609 0.123047 10.0374 0.123047C12.7765 0.123047 14.7278 1.19783 16.1939 2.5987L14.4617 4.33087C13.4104 3.34479 11.9861 2.57783 10.0348 2.57783C6.41913 2.57783 3.5913 5.49174 3.5913 9.10739C3.5913 12.723 6.41913 15.637 10.0348 15.637C12.38 15.637 13.7157 14.6952 14.5713 13.8396C15.2652 13.1457 15.7217 12.1544 15.9017 10.8004L10.0348 10.803Z" fill="#0E061A"/>
</g>
<defs>
<clipPath id="clip0_630_16518">
<rect width="70.9565" height="24" fill="white" transform="translate(0.828125)"/>
</clipPath>
</defs>
</svg>
