<svg width="377" height="108" viewBox="0 0 377 108" fill="none" xmlns="http://www.w3.org/2000/svg">
<g filter="url(#filter0_dddd_218_3919)">
<g filter="url(#filter1_dddd_218_3919)">
<g clip-path="url(#clip0_218_3919)">
<rect x="22" y="16" width="64" height="64" rx="12" fill="#FAFBFD"/>
<g opacity="0.7">
<rect width="64" height="64" transform="translate(22 16)" fill="#FAFBFD"/>
<path d="M73.3433 35.0794L56.3059 25.1865C55.2314 24.5745 53.8324 24.5745 52.7494 25.1865L35.5299 35.0794C34.4211 35.7173 33.6364 36.9162 33.6364 38.1985V57.9579C33.6364 59.2402 34.4415 60.4395 35.5504 61.0809L40.0998 63.6649C42.2743 64.7359 43.0428 64.7359 44.0322 64.7359C47.2518 64.7359 49.0909 62.789 49.0909 59.3932V39.8857C49.0909 39.6103 48.9476 39.2003 48.6771 39.2003H46.5046C46.2295 39.2003 45.6136 39.6103 45.6136 39.8854V59.3929C45.6136 60.8981 44.2521 62.3961 41.7075 61.1238L37.0066 58.4142C36.8428 58.3253 36.7273 58.1464 36.7273 57.9579V38.1985C36.7273 38.0123 36.9417 37.8253 37.1067 37.7298L54.2705 27.854C54.4308 27.7632 54.6665 27.7632 54.8265 27.854L71.7809 37.7275C71.9431 37.8253 71.886 38.0065 71.886 38.1985V57.9579C71.886 58.1464 71.9567 58.33 71.7963 58.4208L54.7631 68.3024C54.6171 68.3901 54.4359 68.3901 54.2759 68.3024L49.9073 65.6948C49.7755 65.6183 49.6191 65.5909 49.4927 65.6616C48.2772 66.3505 48.0531 66.4421 46.913 66.8373C46.6325 66.9351 46.2187 67.1047 47.0714 67.5826L52.7888 70.9648C53.3346 71.2801 53.9539 71.4461 54.5842 71.4462C55.2186 71.4462 55.8399 71.2817 56.3874 70.9648L73.3429 61.0809C74.4518 60.4349 74.9773 59.2402 74.9773 57.9579V38.1985C74.9773 36.9162 74.4518 35.7204 73.3433 35.0794V35.0794ZM59.8743 54.8268C55.3438 54.8268 54.3458 53.5769 54.0132 51.324C53.9745 51.0814 53.7686 50.7912 53.5217 50.7912H51.3075C51.0335 50.7912 50.8133 51.1235 50.8133 51.3963C50.8133 54.2809 52.3816 57.7759 59.8747 57.7759C65.2989 57.7759 68.4087 55.6683 68.4087 51.9384C68.4087 48.2401 65.9101 47.2695 60.6497 46.5733C55.3326 45.8705 54.7925 45.5154 54.7925 44.2698C54.7925 43.2429 55.2499 41.8732 59.187 41.8732C62.7048 41.8732 64.0014 42.6282 64.535 44.9993C64.5806 45.2222 64.7842 45.3822 65.0141 45.3822H67.2372C67.374 45.3822 67.5046 45.3269 67.6004 45.2292C67.6931 45.1241 67.7422 44.9923 67.7299 44.8509C67.3856 40.7678 64.6729 38.865 59.1866 38.865C54.3064 38.865 51.3952 40.9258 51.3952 44.3803C51.3952 48.1273 54.2917 49.1627 58.9764 49.626C64.5806 50.1754 65.0164 50.9945 65.0164 52.0968C65.0164 54.0112 63.4795 54.8268 59.8743 54.8268Z" fill="#83CD29"/>
</g>
</g>
<rect x="22.5" y="16.5" width="63" height="63" rx="11.5" stroke="#FAFBFD"/>
<rect x="22.5" y="16.5" width="63" height="63" rx="11.5" stroke="#0E061A" stroke-opacity="0.2"/>
</g>
</g>
<g filter="url(#filter2_dddd_218_3919)">
<g filter="url(#filter3_dddd_218_3919)">
<g clip-path="url(#clip1_218_3919)">
<rect x="118" y="16" width="64" height="64" rx="12" fill="#FAFBFD"/>
<g opacity="0.7">
<rect width="64" height="64" transform="translate(118 16)" fill="#FAFBFD"/>
<path d="M167.188 43.3324C166.959 41.6325 166.015 40.1755 164.301 38.8399L163.316 38.1788L162.655 39.1637C161.819 40.4318 161.387 42.1991 161.522 43.8855C161.59 44.4791 161.778 45.5449 162.386 46.4757C161.778 46.7995 160.578 47.2582 158.972 47.2312H128.348L128.294 47.582C128.011 49.2818 128.011 54.5703 131.451 58.6445C134.068 61.7339 137.981 63.3124 143.107 63.3124C154.197 63.3124 162.399 58.2128 166.244 48.9311C167.755 48.9581 171.006 48.9446 172.679 45.7472C172.72 45.6798 172.828 45.4774 173.111 44.8838L173.273 44.5465L172.328 43.9125C171.317 43.2379 168.983 42.9951 167.188 43.3324ZM152.848 32H148.193V36.2361H152.848V32ZM152.848 37.0861H148.193V41.3087H152.848V37.0861ZM147.343 37.0861H142.689V41.3087H147.343V37.0861ZM141.839 37.0861H137.185V41.3087H141.839V37.0861ZM136.335 42.1586H131.68V46.3948H136.335V42.1586ZM141.839 42.1586H137.185V46.3948H141.839V42.1586ZM147.343 42.1586H142.689V46.3948H147.343V42.1586ZM152.848 42.1586H148.193V46.3948H152.848V42.1586ZM158.352 42.1586H153.697V46.3948H158.352V42.1586Z" fill="#019BC6"/>
</g>
</g>
<rect x="118.5" y="16.5" width="63" height="63" rx="11.5" stroke="#FAFBFD"/>
<rect x="118.5" y="16.5" width="63" height="63" rx="11.5" stroke="#0E061A" stroke-opacity="0.2"/>
</g>
</g>
<g filter="url(#filter4_dddd_218_3919)">
<g clip-path="url(#clip2_218_3919)">
<rect x="214" y="16" width="64" height="64" rx="12" fill="#FAFBFD"/>
<g opacity="0.5">
<rect width="64" height="64" transform="translate(214 16)" fill="#FAFBFD"/>
<g clip-path="url(#clip3_218_3919)">
<path d="M266.364 27.6362H225.636V68.3635H266.364V27.6362Z" fill="#F7DF1E"/>
<path d="M252.994 59.4542C253.815 60.7937 254.882 61.7783 256.77 61.7783C258.355 61.7783 259.368 60.9857 259.368 59.8906C259.368 58.5783 258.328 58.1135 256.582 57.35L255.625 56.9395C252.864 55.7629 251.029 54.289 251.029 51.173C251.029 48.3027 253.216 46.1177 256.634 46.1177C259.067 46.1177 260.816 46.9645 262.077 49.1819L259.097 51.0955C258.441 49.9189 257.733 49.4554 256.634 49.4554C255.513 49.4554 254.802 50.1665 254.802 51.0955C254.802 52.2436 255.513 52.7084 257.155 53.4195L258.112 53.8294C261.364 55.2238 263.2 56.6454 263.2 59.8415C263.2 63.2871 260.493 65.1748 256.858 65.1748C253.304 65.1748 251.008 63.4811 249.884 61.2611L252.994 59.4542ZM239.475 59.7859C240.076 60.8525 240.623 61.7544 241.938 61.7544C243.195 61.7544 243.988 61.2624 243.988 59.3495V46.3362H247.815V59.4012C247.815 63.3641 245.492 65.1677 242.101 65.1677C239.036 65.1677 237.262 63.5819 236.359 61.6719L239.475 59.7859Z" fill="black"/>
</g>
</g>
</g>
<rect x="214.5" y="16.5" width="63" height="63" rx="11.5" stroke="#FAFBFD"/>
<rect x="214.5" y="16.5" width="63" height="63" rx="11.5" stroke="#0E061A" stroke-opacity="0.2"/>
</g>
<g filter="url(#filter5_dddd_218_3919)">
<g filter="url(#filter6_dddd_218_3919)">
<g clip-path="url(#clip4_218_3919)">
<rect x="310" y="16" width="64" height="64" rx="12" fill="#FAFBFD"/>
<g opacity="0.7">
<rect width="64" height="64" transform="translate(310 16)" fill="#FAFBFD"/>
<path d="M342.048 70.9967C354.699 70.9967 364.956 60.7405 364.956 48.0887C364.956 35.4369 354.699 25.1807 342.048 25.1807C329.396 25.1807 319.14 35.4369 319.14 48.0887C319.14 60.7405 329.396 70.9967 342.048 70.9967Z" fill="white"/>
<path d="M356.626 52.2527C356.626 44.2013 350.099 37.6743 342.048 37.6743C333.997 37.6743 327.47 44.2013 327.47 52.2527H331.635C331.635 46.5016 336.297 41.8399 342.048 41.8399C347.799 41.8399 352.461 46.5016 352.461 52.2527" fill="black" fill-opacity="0.1"/>
<path d="M343.09 58.9179C347.46 58.9179 351.003 55.3749 351.003 51.0044C351.003 46.6338 347.46 43.0908 343.09 43.0908C338.719 43.0908 335.176 46.6338 335.176 51.0044C335.176 55.3749 338.719 58.9179 343.09 58.9179Z" fill="black" fill-opacity="0.1"/>
<path d="M342.047 56.6262C346.763 56.6262 350.585 52.8034 350.585 48.0878C350.585 43.3721 346.763 39.5493 342.047 39.5493C337.331 39.5493 333.509 43.3721 333.509 48.0878C333.509 52.8034 337.331 56.6262 342.047 56.6262Z" fill="url(#paint0_linear_218_3919)"/>
<path d="M362.873 37.6752C357.14 26.1399 343.141 21.4366 331.605 27.1697C328.008 28.9574 324.934 31.6436 322.68 34.9683L332.052 51.2119C330.326 45.7266 333.374 39.8801 338.86 38.1541C339.824 37.8504 340.828 37.6893 341.84 37.6756" fill="url(#paint1_linear_218_3919)"/>
<path d="M322.68 34.9683C315.507 45.6684 318.367 60.1566 329.066 67.3296C332.377 69.5487 336.201 70.8829 340.173 71.2049L349.961 54.5444C346.301 58.98 339.739 59.6091 335.303 55.949C333.796 54.7063 332.67 53.0649 332.052 51.2122" fill="url(#paint2_linear_218_3919)"/>
<path d="M340.173 71.2051C353.018 72.1759 364.218 62.5498 365.19 49.705C365.503 45.5604 364.703 41.4074 362.872 37.6758H341.84C347.59 37.7021 352.231 42.3855 352.204 48.1363C352.193 50.463 351.404 52.7191 349.961 54.5446" fill="url(#paint3_linear_218_3919)"/>
<path d="M322.68 34.9682L332.052 51.2117C331.358 48.8756 331.505 46.37 332.468 44.1312L323.096 34.3433" fill="url(#paint4_linear_218_3919)"/>
<path d="M340.173 71.2044L349.96 54.5439C348.416 56.3855 346.282 57.6361 343.921 58.0839L339.756 71.2044" fill="url(#paint5_linear_218_3919)"/>
<path d="M362.873 37.6743H341.839C343.403 37.6816 344.946 38.0412 346.352 38.7262C347.758 39.4113 348.991 40.4043 349.961 41.6315L363.29 38.2992" fill="url(#paint6_linear_218_3919)"/>
</g>
</g>
<rect x="310.5" y="16.5" width="63" height="63" rx="11.5" stroke="#FAFBFD"/>
<rect x="310.5" y="16.5" width="63" height="63" rx="11.5" stroke="#0E061A" stroke-opacity="0.2"/>
</g>
</g>
<defs>
<filter id="filter0_dddd_218_3919" x="0" y="0" width="108" height="108" filterUnits="userSpaceOnUse" color-interpolation-filters="sRGB">
<feFlood flood-opacity="0" result="BackgroundImageFix"/>
<feColorMatrix in="SourceAlpha" type="matrix" values="0 0 0 0 0 0 0 0 0 0 0 0 0 0 0 0 0 0 127 0" result="hardAlpha"/>
<feOffset dy="0.271728"/>
<feGaussianBlur stdDeviation="0.498168"/>
<feColorMatrix type="matrix" values="0 0 0 0 0.137255 0 0 0 0 0.0627451 0 0 0 0 0.266667 0 0 0 0.0274 0"/>
<feBlend mode="normal" in2="BackgroundImageFix" result="effect1_dropShadow_218_3919"/>
<feColorMatrix in="SourceAlpha" type="matrix" values="0 0 0 0 0 0 0 0 0 0 0 0 0 0 0 0 0 0 127 0" result="hardAlpha"/>
<feOffset dy="0.751293"/>
<feGaussianBlur stdDeviation="1.37737"/>
<feColorMatrix type="matrix" values="0 0 0 0 0.137255 0 0 0 0 0.0627451 0 0 0 0 0.266667 0 0 0 0.035 0"/>
<feBlend mode="normal" in2="effect1_dropShadow_218_3919" result="effect2_dropShadow_218_3919"/>
<feColorMatrix in="SourceAlpha" type="matrix" values="0 0 0 0 0 0 0 0 0 0 0 0 0 0 0 0 0 0 127 0" result="hardAlpha"/>
<feOffset dy="1.80882"/>
<feGaussianBlur stdDeviation="3.31618"/>
<feColorMatrix type="matrix" values="0 0 0 0 0.137255 0 0 0 0 0.0627451 0 0 0 0 0.266667 0 0 0 0.0426 0"/>
<feBlend mode="normal" in2="effect2_dropShadow_218_3919" result="effect3_dropShadow_218_3919"/>
<feColorMatrix in="SourceAlpha" type="matrix" values="0 0 0 0 0 0 0 0 0 0 0 0 0 0 0 0 0 0 127 0" result="hardAlpha"/>
<feOffset dy="6"/>
<feGaussianBlur stdDeviation="11"/>
<feColorMatrix type="matrix" values="0 0 0 0 0.137255 0 0 0 0 0.0627451 0 0 0 0 0.266667 0 0 0 0.05 0"/>
<feBlend mode="normal" in2="effect3_dropShadow_218_3919" result="effect4_dropShadow_218_3919"/>
<feBlend mode="normal" in="SourceGraphic" in2="effect4_dropShadow_218_3919" result="shape"/>
</filter>
<filter id="filter1_dddd_218_3919" x="0" y="0" width="108" height="108" filterUnits="userSpaceOnUse" color-interpolation-filters="sRGB">
<feFlood flood-opacity="0" result="BackgroundImageFix"/>
<feColorMatrix in="SourceAlpha" type="matrix" values="0 0 0 0 0 0 0 0 0 0 0 0 0 0 0 0 0 0 127 0" result="hardAlpha"/>
<feOffset dy="0.271728"/>
<feGaussianBlur stdDeviation="0.498168"/>
<feColorMatrix type="matrix" values="0 0 0 0 0.137255 0 0 0 0 0.0627451 0 0 0 0 0.266667 0 0 0 0.0274 0"/>
<feBlend mode="normal" in2="BackgroundImageFix" result="effect1_dropShadow_218_3919"/>
<feColorMatrix in="SourceAlpha" type="matrix" values="0 0 0 0 0 0 0 0 0 0 0 0 0 0 0 0 0 0 127 0" result="hardAlpha"/>
<feOffset dy="0.751293"/>
<feGaussianBlur stdDeviation="1.37737"/>
<feColorMatrix type="matrix" values="0 0 0 0 0.137255 0 0 0 0 0.0627451 0 0 0 0 0.266667 0 0 0 0.035 0"/>
<feBlend mode="normal" in2="effect1_dropShadow_218_3919" result="effect2_dropShadow_218_3919"/>
<feColorMatrix in="SourceAlpha" type="matrix" values="0 0 0 0 0 0 0 0 0 0 0 0 0 0 0 0 0 0 127 0" result="hardAlpha"/>
<feOffset dy="1.80882"/>
<feGaussianBlur stdDeviation="3.31618"/>
<feColorMatrix type="matrix" values="0 0 0 0 0.137255 0 0 0 0 0.0627451 0 0 0 0 0.266667 0 0 0 0.0426 0"/>
<feBlend mode="normal" in2="effect2_dropShadow_218_3919" result="effect3_dropShadow_218_3919"/>
<feColorMatrix in="SourceAlpha" type="matrix" values="0 0 0 0 0 0 0 0 0 0 0 0 0 0 0 0 0 0 127 0" result="hardAlpha"/>
<feOffset dy="6"/>
<feGaussianBlur stdDeviation="11"/>
<feColorMatrix type="matrix" values="0 0 0 0 0.137255 0 0 0 0 0.0627451 0 0 0 0 0.266667 0 0 0 0.05 0"/>
<feBlend mode="normal" in2="effect3_dropShadow_218_3919" result="effect4_dropShadow_218_3919"/>
<feBlend mode="normal" in="SourceGraphic" in2="effect4_dropShadow_218_3919" result="shape"/>
</filter>
<filter id="filter2_dddd_218_3919" x="96" y="0" width="108" height="108" filterUnits="userSpaceOnUse" color-interpolation-filters="sRGB">
<feFlood flood-opacity="0" result="BackgroundImageFix"/>
<feColorMatrix in="SourceAlpha" type="matrix" values="0 0 0 0 0 0 0 0 0 0 0 0 0 0 0 0 0 0 127 0" result="hardAlpha"/>
<feOffset dy="0.271728"/>
<feGaussianBlur stdDeviation="0.498168"/>
<feColorMatrix type="matrix" values="0 0 0 0 0.137255 0 0 0 0 0.0627451 0 0 0 0 0.266667 0 0 0 0.0274 0"/>
<feBlend mode="normal" in2="BackgroundImageFix" result="effect1_dropShadow_218_3919"/>
<feColorMatrix in="SourceAlpha" type="matrix" values="0 0 0 0 0 0 0 0 0 0 0 0 0 0 0 0 0 0 127 0" result="hardAlpha"/>
<feOffset dy="0.751293"/>
<feGaussianBlur stdDeviation="1.37737"/>
<feColorMatrix type="matrix" values="0 0 0 0 0.137255 0 0 0 0 0.0627451 0 0 0 0 0.266667 0 0 0 0.035 0"/>
<feBlend mode="normal" in2="effect1_dropShadow_218_3919" result="effect2_dropShadow_218_3919"/>
<feColorMatrix in="SourceAlpha" type="matrix" values="0 0 0 0 0 0 0 0 0 0 0 0 0 0 0 0 0 0 127 0" result="hardAlpha"/>
<feOffset dy="1.80882"/>
<feGaussianBlur stdDeviation="3.31618"/>
<feColorMatrix type="matrix" values="0 0 0 0 0.137255 0 0 0 0 0.0627451 0 0 0 0 0.266667 0 0 0 0.0426 0"/>
<feBlend mode="normal" in2="effect2_dropShadow_218_3919" result="effect3_dropShadow_218_3919"/>
<feColorMatrix in="SourceAlpha" type="matrix" values="0 0 0 0 0 0 0 0 0 0 0 0 0 0 0 0 0 0 127 0" result="hardAlpha"/>
<feOffset dy="6"/>
<feGaussianBlur stdDeviation="11"/>
<feColorMatrix type="matrix" values="0 0 0 0 0.137255 0 0 0 0 0.0627451 0 0 0 0 0.266667 0 0 0 0.05 0"/>
<feBlend mode="normal" in2="effect3_dropShadow_218_3919" result="effect4_dropShadow_218_3919"/>
<feBlend mode="normal" in="SourceGraphic" in2="effect4_dropShadow_218_3919" result="shape"/>
</filter>
<filter id="filter3_dddd_218_3919" x="96" y="0" width="108" height="108" filterUnits="userSpaceOnUse" color-interpolation-filters="sRGB">
<feFlood flood-opacity="0" result="BackgroundImageFix"/>
<feColorMatrix in="SourceAlpha" type="matrix" values="0 0 0 0 0 0 0 0 0 0 0 0 0 0 0 0 0 0 127 0" result="hardAlpha"/>
<feOffset dy="0.271728"/>
<feGaussianBlur stdDeviation="0.498168"/>
<feColorMatrix type="matrix" values="0 0 0 0 0.137255 0 0 0 0 0.0627451 0 0 0 0 0.266667 0 0 0 0.0274 0"/>
<feBlend mode="normal" in2="BackgroundImageFix" result="effect1_dropShadow_218_3919"/>
<feColorMatrix in="SourceAlpha" type="matrix" values="0 0 0 0 0 0 0 0 0 0 0 0 0 0 0 0 0 0 127 0" result="hardAlpha"/>
<feOffset dy="0.751293"/>
<feGaussianBlur stdDeviation="1.37737"/>
<feColorMatrix type="matrix" values="0 0 0 0 0.137255 0 0 0 0 0.0627451 0 0 0 0 0.266667 0 0 0 0.035 0"/>
<feBlend mode="normal" in2="effect1_dropShadow_218_3919" result="effect2_dropShadow_218_3919"/>
<feColorMatrix in="SourceAlpha" type="matrix" values="0 0 0 0 0 0 0 0 0 0 0 0 0 0 0 0 0 0 127 0" result="hardAlpha"/>
<feOffset dy="1.80882"/>
<feGaussianBlur stdDeviation="3.31618"/>
<feColorMatrix type="matrix" values="0 0 0 0 0.137255 0 0 0 0 0.0627451 0 0 0 0 0.266667 0 0 0 0.0426 0"/>
<feBlend mode="normal" in2="effect2_dropShadow_218_3919" result="effect3_dropShadow_218_3919"/>
<feColorMatrix in="SourceAlpha" type="matrix" values="0 0 0 0 0 0 0 0 0 0 0 0 0 0 0 0 0 0 127 0" result="hardAlpha"/>
<feOffset dy="6"/>
<feGaussianBlur stdDeviation="11"/>
<feColorMatrix type="matrix" values="0 0 0 0 0.137255 0 0 0 0 0.0627451 0 0 0 0 0.266667 0 0 0 0.05 0"/>
<feBlend mode="normal" in2="effect3_dropShadow_218_3919" result="effect4_dropShadow_218_3919"/>
<feBlend mode="normal" in="SourceGraphic" in2="effect4_dropShadow_218_3919" result="shape"/>
</filter>
<filter id="filter4_dddd_218_3919" x="192" y="0" width="108" height="108" filterUnits="userSpaceOnUse" color-interpolation-filters="sRGB">
<feFlood flood-opacity="0" result="BackgroundImageFix"/>
<feColorMatrix in="SourceAlpha" type="matrix" values="0 0 0 0 0 0 0 0 0 0 0 0 0 0 0 0 0 0 127 0" result="hardAlpha"/>
<feOffset dy="0.271728"/>
<feGaussianBlur stdDeviation="0.498168"/>
<feColorMatrix type="matrix" values="0 0 0 0 0.137255 0 0 0 0 0.0627451 0 0 0 0 0.266667 0 0 0 0.0274 0"/>
<feBlend mode="normal" in2="BackgroundImageFix" result="effect1_dropShadow_218_3919"/>
<feColorMatrix in="SourceAlpha" type="matrix" values="0 0 0 0 0 0 0 0 0 0 0 0 0 0 0 0 0 0 127 0" result="hardAlpha"/>
<feOffset dy="0.751293"/>
<feGaussianBlur stdDeviation="1.37737"/>
<feColorMatrix type="matrix" values="0 0 0 0 0.137255 0 0 0 0 0.0627451 0 0 0 0 0.266667 0 0 0 0.035 0"/>
<feBlend mode="normal" in2="effect1_dropShadow_218_3919" result="effect2_dropShadow_218_3919"/>
<feColorMatrix in="SourceAlpha" type="matrix" values="0 0 0 0 0 0 0 0 0 0 0 0 0 0 0 0 0 0 127 0" result="hardAlpha"/>
<feOffset dy="1.80882"/>
<feGaussianBlur stdDeviation="3.31618"/>
<feColorMatrix type="matrix" values="0 0 0 0 0.137255 0 0 0 0 0.0627451 0 0 0 0 0.266667 0 0 0 0.0426 0"/>
<feBlend mode="normal" in2="effect2_dropShadow_218_3919" result="effect3_dropShadow_218_3919"/>
<feColorMatrix in="SourceAlpha" type="matrix" values="0 0 0 0 0 0 0 0 0 0 0 0 0 0 0 0 0 0 127 0" result="hardAlpha"/>
<feOffset dy="6"/>
<feGaussianBlur stdDeviation="11"/>
<feColorMatrix type="matrix" values="0 0 0 0 0.137255 0 0 0 0 0.0627451 0 0 0 0 0.266667 0 0 0 0.05 0"/>
<feBlend mode="normal" in2="effect3_dropShadow_218_3919" result="effect4_dropShadow_218_3919"/>
<feBlend mode="normal" in="SourceGraphic" in2="effect4_dropShadow_218_3919" result="shape"/>
</filter>
<filter id="filter5_dddd_218_3919" x="288" y="0" width="108" height="108" filterUnits="userSpaceOnUse" color-interpolation-filters="sRGB">
<feFlood flood-opacity="0" result="BackgroundImageFix"/>
<feColorMatrix in="SourceAlpha" type="matrix" values="0 0 0 0 0 0 0 0 0 0 0 0 0 0 0 0 0 0 127 0" result="hardAlpha"/>
<feOffset dy="0.271728"/>
<feGaussianBlur stdDeviation="0.498168"/>
<feColorMatrix type="matrix" values="0 0 0 0 0.137255 0 0 0 0 0.0627451 0 0 0 0 0.266667 0 0 0 0.0274 0"/>
<feBlend mode="normal" in2="BackgroundImageFix" result="effect1_dropShadow_218_3919"/>
<feColorMatrix in="SourceAlpha" type="matrix" values="0 0 0 0 0 0 0 0 0 0 0 0 0 0 0 0 0 0 127 0" result="hardAlpha"/>
<feOffset dy="0.751293"/>
<feGaussianBlur stdDeviation="1.37737"/>
<feColorMatrix type="matrix" values="0 0 0 0 0.137255 0 0 0 0 0.0627451 0 0 0 0 0.266667 0 0 0 0.035 0"/>
<feBlend mode="normal" in2="effect1_dropShadow_218_3919" result="effect2_dropShadow_218_3919"/>
<feColorMatrix in="SourceAlpha" type="matrix" values="0 0 0 0 0 0 0 0 0 0 0 0 0 0 0 0 0 0 127 0" result="hardAlpha"/>
<feOffset dy="1.80882"/>
<feGaussianBlur stdDeviation="3.31618"/>
<feColorMatrix type="matrix" values="0 0 0 0 0.137255 0 0 0 0 0.0627451 0 0 0 0 0.266667 0 0 0 0.0426 0"/>
<feBlend mode="normal" in2="effect2_dropShadow_218_3919" result="effect3_dropShadow_218_3919"/>
<feColorMatrix in="SourceAlpha" type="matrix" values="0 0 0 0 0 0 0 0 0 0 0 0 0 0 0 0 0 0 127 0" result="hardAlpha"/>
<feOffset dy="6"/>
<feGaussianBlur stdDeviation="11"/>
<feColorMatrix type="matrix" values="0 0 0 0 0.137255 0 0 0 0 0.0627451 0 0 0 0 0.266667 0 0 0 0.05 0"/>
<feBlend mode="normal" in2="effect3_dropShadow_218_3919" result="effect4_dropShadow_218_3919"/>
<feBlend mode="normal" in="SourceGraphic" in2="effect4_dropShadow_218_3919" result="shape"/>
</filter>
<filter id="filter6_dddd_218_3919" x="288" y="0" width="108" height="108" filterUnits="userSpaceOnUse" color-interpolation-filters="sRGB">
<feFlood flood-opacity="0" result="BackgroundImageFix"/>
<feColorMatrix in="SourceAlpha" type="matrix" values="0 0 0 0 0 0 0 0 0 0 0 0 0 0 0 0 0 0 127 0" result="hardAlpha"/>
<feOffset dy="0.271728"/>
<feGaussianBlur stdDeviation="0.498168"/>
<feColorMatrix type="matrix" values="0 0 0 0 0.137255 0 0 0 0 0.0627451 0 0 0 0 0.266667 0 0 0 0.0274 0"/>
<feBlend mode="normal" in2="BackgroundImageFix" result="effect1_dropShadow_218_3919"/>
<feColorMatrix in="SourceAlpha" type="matrix" values="0 0 0 0 0 0 0 0 0 0 0 0 0 0 0 0 0 0 127 0" result="hardAlpha"/>
<feOffset dy="0.751293"/>
<feGaussianBlur stdDeviation="1.37737"/>
<feColorMatrix type="matrix" values="0 0 0 0 0.137255 0 0 0 0 0.0627451 0 0 0 0 0.266667 0 0 0 0.035 0"/>
<feBlend mode="normal" in2="effect1_dropShadow_218_3919" result="effect2_dropShadow_218_3919"/>
<feColorMatrix in="SourceAlpha" type="matrix" values="0 0 0 0 0 0 0 0 0 0 0 0 0 0 0 0 0 0 127 0" result="hardAlpha"/>
<feOffset dy="1.80882"/>
<feGaussianBlur stdDeviation="3.31618"/>
<feColorMatrix type="matrix" values="0 0 0 0 0.137255 0 0 0 0 0.0627451 0 0 0 0 0.266667 0 0 0 0.0426 0"/>
<feBlend mode="normal" in2="effect2_dropShadow_218_3919" result="effect3_dropShadow_218_3919"/>
<feColorMatrix in="SourceAlpha" type="matrix" values="0 0 0 0 0 0 0 0 0 0 0 0 0 0 0 0 0 0 127 0" result="hardAlpha"/>
<feOffset dy="6"/>
<feGaussianBlur stdDeviation="11"/>
<feColorMatrix type="matrix" values="0 0 0 0 0.137255 0 0 0 0 0.0627451 0 0 0 0 0.266667 0 0 0 0.05 0"/>
<feBlend mode="normal" in2="effect3_dropShadow_218_3919" result="effect4_dropShadow_218_3919"/>
<feBlend mode="normal" in="SourceGraphic" in2="effect4_dropShadow_218_3919" result="shape"/>
</filter>
<linearGradient id="paint0_linear_218_3919" x1="342.052" y1="39.5358" x2="342.052" y2="56.627" gradientUnits="userSpaceOnUse">
<stop stop-color="#81B4E0"/>
<stop offset="1" stop-color="#0C5A94"/>
</linearGradient>
<linearGradient id="paint1_linear_218_3919" x1="342.777" y1="24.7635" x2="342.777" y2="43.7148" gradientUnits="userSpaceOnUse">
<stop stop-color="#F06B59"/>
<stop offset="1" stop-color="#DF2227"/>
</linearGradient>
<linearGradient id="paint2_linear_218_3919" x1="324.403" y1="64.6673" x2="333.982" y2="48.8402" gradientUnits="userSpaceOnUse">
<stop stop-color="#388B41"/>
<stop offset="1" stop-color="#4CB749"/>
</linearGradient>
<linearGradient id="paint3_linear_218_3919" x1="356.493" y1="66.3507" x2="346.289" y2="41.7768" gradientUnits="userSpaceOnUse">
<stop stop-color="#E4B022"/>
<stop offset="0.3" stop-color="#FCD209"/>
</linearGradient>
<linearGradient id="paint4_linear_218_3919" x1="327.574" y1="50.5872" x2="327.574" y2="33.9272" gradientUnits="userSpaceOnUse">
<stop stop-opacity="0.15"/>
<stop offset="0.3" stop-opacity="0.06"/>
<stop offset="1" stop-opacity="0.03"/>
</linearGradient>
<linearGradient id="paint5_linear_218_3919" x1="350.569" y1="55.9665" x2="339.115" y2="67.6288" gradientUnits="userSpaceOnUse">
<stop stop-opacity="0.15"/>
<stop offset="0.3" stop-opacity="0.06"/>
<stop offset="1" stop-opacity="0.03"/>
</linearGradient>
<linearGradient id="paint6_linear_218_3919" x1="350.404" y1="59.3231" x2="352.07" y2="42.8704" gradientUnits="userSpaceOnUse">
<stop stop-opacity="0.15"/>
<stop offset="0.3" stop-opacity="0.06"/>
<stop offset="1" stop-opacity="0.03"/>
</linearGradient>
<clipPath id="clip0_218_3919">
<rect x="22" y="16" width="64" height="64" rx="12" fill="white"/>
</clipPath>
<clipPath id="clip1_218_3919">
<rect x="118" y="16" width="64" height="64" rx="12" fill="white"/>
</clipPath>
<clipPath id="clip2_218_3919">
<rect x="214" y="16" width="64" height="64" rx="12" fill="white"/>
</clipPath>
<clipPath id="clip3_218_3919">
<rect width="40.7273" height="40.7273" fill="white" transform="translate(225.636 27.6362)"/>
</clipPath>
<clipPath id="clip4_218_3919">
<rect x="310" y="16" width="64" height="64" rx="12" fill="white"/>
</clipPath>
</defs>
</svg>
