<svg width="354" height="108" viewBox="0 0 354 108" fill="none" xmlns="http://www.w3.org/2000/svg">
<g filter="url(#filter0_dddd_218_3950)">
<g filter="url(#filter1_dddd_218_3950)">
<g clip-path="url(#clip0_218_3950)">
<rect x="22" y="16" width="64" height="64" rx="12" fill="#FAFBFD"/>
<g opacity="0.7">
<rect width="64" height="64" transform="translate(22 16)" fill="#FAFBFD"/>
<path d="M31.6734 42.9727C31.5739 42.9727 31.549 42.9158 31.5987 42.8305L32.1213 42.0626C32.1711 41.9773 32.2955 41.9204 32.3951 41.9204H41.2793C41.3789 41.9204 41.4037 42.0057 41.354 42.091L40.9309 42.8305C40.8811 42.9158 40.7567 43.0011 40.6821 43.0011L31.6734 42.9727Z" fill="#111013"/>
<path d="M27.9177 45.5864C27.8182 45.5864 27.7933 45.5296 27.8431 45.4442L28.3657 44.6764C28.4154 44.5911 28.5399 44.5342 28.6394 44.5342H39.9873C40.0869 44.5342 40.1366 44.6195 40.1118 44.7048L39.9127 45.3874C39.8878 45.5011 39.7882 45.558 39.6887 45.558L27.9177 45.5864Z" fill="#111013"/>
<path d="M33.939 48.2031C33.8395 48.2031 33.8146 48.1178 33.8644 48.0325L34.2128 47.3215C34.2625 47.2362 34.3621 47.1509 34.4616 47.1509H39.4388C39.5383 47.1509 39.5881 47.2362 39.5881 47.35L39.5383 48.0325C39.5383 48.1463 39.4388 48.2316 39.3641 48.2316L33.939 48.2031Z" fill="#111013"/>
<path d="M59.7676 42.4595C58.1998 42.9146 57.1297 43.2558 55.5868 43.7109C55.2135 43.8246 55.1886 43.853 54.8651 43.4265C54.4918 42.943 54.218 42.6302 53.6954 42.3458C52.1276 41.4642 50.6096 41.7201 49.1911 42.7724C47.4989 44.0237 46.6279 45.8722 46.6528 48.1758C46.6776 50.451 48.0464 52.3279 50.0123 52.6408C51.7046 52.8967 53.1231 52.2142 54.2429 50.7638C54.4669 50.451 54.666 50.1097 54.9148 49.7115C54.019 49.7115 52.8991 49.7115 50.1119 49.7115C49.5893 49.7115 49.4648 49.3418 49.639 48.8584C49.9626 47.9767 50.5598 46.4979 50.9082 45.7585C50.9829 45.5878 51.1571 45.3034 51.5304 45.3034C52.7995 45.3034 57.4781 45.3034 60.5888 45.3034C60.539 46.0713 60.539 46.8392 60.4395 47.607C60.1657 49.6547 59.4938 51.5316 58.3989 53.1811C56.6071 55.8828 54.2678 57.5608 51.3064 58.0158C48.8676 58.3855 46.603 57.8451 44.6121 56.1388C42.7706 54.5462 41.7254 52.4417 41.4516 49.8253C41.1281 46.7254 41.9244 43.9384 43.5669 41.4926C45.3338 38.8477 47.6731 37.1698 50.5349 36.5726C52.8742 36.0891 55.1139 36.402 57.1297 37.9661C58.4486 38.9615 59.3943 40.3266 60.0164 41.9761C60.1657 42.232 60.0662 42.3742 59.7676 42.4595Z" fill="#111013"/>
<path d="M68.0059 58.1872C65.7413 58.1304 63.6757 57.3909 61.9337 55.6846C60.4655 54.2342 59.5447 52.3856 59.2461 50.1958C58.7981 46.9822 59.5696 44.1383 61.2618 41.6072C63.0785 38.877 65.2684 37.455 68.2298 36.8578C70.7682 36.3459 73.1572 36.6303 75.3223 38.3082C77.2883 39.8439 78.5077 41.92 78.8312 44.6502C79.2542 48.4895 78.2837 51.6178 75.9693 54.2911C74.3269 56.1965 72.3111 57.3909 69.9967 57.9313C69.3248 58.0735 68.6529 58.1019 68.0059 58.1872ZM73.9287 46.6978C73.9038 46.3281 73.9038 46.0437 73.854 45.7593C73.4061 42.9438 71.1415 41.3512 68.7773 41.9769C66.4629 42.5741 64.9698 44.252 64.4223 46.9253C63.9744 49.1436 64.92 51.3903 66.7118 52.3003C68.0805 52.9829 69.4492 52.8975 70.7682 52.1297C72.7342 50.9637 73.8043 49.1436 73.9287 46.6978Z" fill="#111013"/>
</g>
</g>
<rect x="22.5" y="16.5" width="63" height="63" rx="11.5" stroke="#FAFBFD"/>
<rect x="22.5" y="16.5" width="63" height="63" rx="11.5" stroke="#0E061A" stroke-opacity="0.2"/>
</g>
</g>
<g filter="url(#filter2_dddd_218_3950)">
<g filter="url(#filter3_dddd_218_3950)">
<g clip-path="url(#clip1_218_3950)">
<rect x="118" y="16" width="64" height="64" rx="12" fill="#FAFBFD"/>
<g opacity="0.7">
<rect width="64" height="64" transform="translate(118 16)" fill="#FAFBFD"/>
<path d="M149.999 27.6387C138.753 27.6387 129.636 36.7552 129.636 48.0023C129.636 58.9223 138.234 67.8352 149.029 68.3411C149.351 68.3561 149.674 68.3647 149.999 68.3647C155.007 68.3715 159.841 66.5259 163.57 63.1831C161.183 64.7654 158.392 65.6764 155.41 65.6764C150.56 65.6764 146.217 63.2703 143.297 59.4769C141.045 56.8194 139.587 52.8909 139.487 48.4809V47.5225C139.587 43.1128 141.045 39.1839 143.297 36.5264C146.218 32.7321 150.561 30.327 155.409 30.327C158.392 30.327 161.183 31.2379 163.571 32.8215C159.985 29.6149 155.26 27.6584 150.076 27.6387H149.999Z" fill="url(#paint0_linear_218_3950)"/>
<path d="M143.297 36.5276C145.165 34.3213 147.579 32.9904 150.215 32.9904C156.144 32.9904 160.949 39.7119 160.949 48.0022C160.949 56.2924 156.143 63.014 150.215 63.014C147.579 63.014 145.165 61.684 143.297 59.478C146.218 63.2727 150.561 65.6775 155.41 65.6775C158.393 65.6775 161.184 64.7665 163.57 63.1842C167.739 59.4554 170.363 54.0352 170.363 48.0022C170.363 41.9691 167.739 36.5514 163.571 32.8227C161.185 31.2391 158.394 30.3281 155.411 30.3281C150.561 30.3281 146.218 32.7342 143.297 36.5276" fill="url(#paint1_linear_218_3950)"/>
</g>
</g>
<rect x="118.5" y="16.5" width="63" height="63" rx="11.5" stroke="#FAFBFD"/>
<rect x="118.5" y="16.5" width="63" height="63" rx="11.5" stroke="#0E061A" stroke-opacity="0.2"/>
</g>
</g>
<g filter="url(#filter4_dddd_218_3950)">
<g filter="url(#filter5_dddd_218_3950)">
<g clip-path="url(#clip2_218_3950)">
<rect x="214" y="16" width="64" height="64" rx="12" fill="#FAFBFD"/>
<g opacity="0.7">
<rect width="64" height="64" transform="translate(214 16)" fill="#FAFBFD"/>
<path d="M265.387 37.1475L246.487 48.0004L265.387 58.8532C265.666 58.3881 265.836 57.8455 265.883 57.3028V38.6979C265.836 38.1552 265.666 37.6126 265.387 37.1475ZM259.402 48.7135H257.976V50.1554H256.534V48.7135H255.092V47.2872H256.534V45.8453H257.976V47.2872H259.402V48.7135ZM263.418 48.7135V50.1554H261.991V48.7135H260.441V47.2872H261.991V45.8453H263.356V47.2872H264.798L264.86 48.7135H263.418Z" fill="#111013"/>
<path d="M246.486 48L240.905 51.2094C241.447 52.1706 242.238 53.0078 243.261 53.597C246.362 55.38 250.316 54.3102 252.083 51.2249L257.68 54.4652C255.37 58.4808 251.091 60.9459 246.455 60.9459C241.664 60.9304 237.494 58.3102 235.277 54.4342L227.587 58.8529C227.866 59.3645 228.284 59.7986 228.78 60.1087L244.796 69.4112C245.851 69.9538 247.106 69.9538 248.161 69.4112L264.192 60.1087C264.688 59.7986 265.091 59.3645 265.37 58.8529L246.486 48Z" fill="#111013"/>
<path d="M233.572 47.9998C233.556 43.3641 236.037 39.085 240.052 36.7748C246.239 33.2244 254.13 35.3485 257.681 41.5346L252.084 44.775C251.51 43.7827 250.688 42.961 249.711 42.4028C246.611 40.6199 242.657 41.6896 240.89 44.775C239.696 46.837 239.804 49.2712 240.905 51.2092L246.487 47.9998L265.371 37.1469C265.092 36.6353 264.688 36.2012 264.192 35.8911L248.161 26.5886C247.107 26.046 245.851 26.046 244.797 26.5886L228.781 35.8911C227.804 36.5113 227.184 37.55 227.091 38.6973V57.3023C227.137 57.8449 227.308 58.3876 227.587 58.8527L235.277 54.434C234.192 52.5425 233.572 50.3409 233.572 47.9998Z" fill="#111013"/>
</g>
</g>
<rect x="214.5" y="16.5" width="63" height="63" rx="11.5" stroke="#FAFBFD"/>
<rect x="214.5" y="16.5" width="63" height="63" rx="11.5" stroke="#0E061A" stroke-opacity="0.2"/>
</g>
</g>
<g filter="url(#filter6_dddd_218_3950)">
<g filter="url(#filter7_dddd_218_3950)">
<g clip-path="url(#clip3_218_3950)">
<rect x="310" y="16" width="64" height="64" rx="12" fill="#FAFBFD"/>
<g opacity="0.7">
<rect width="64" height="64" transform="translate(310 16)" fill="#FAFBFD"/>
<path d="M324.51 59.2305C323.093 59.2305 321.636 60.3658 321.636 62.3531C321.636 64.1699 322.917 65.4532 324.51 65.4532C325.825 65.4532 326.411 64.5707 326.411 64.5707V64.9554C326.411 65.1372 326.583 65.34 326.796 65.34H327.746V59.3662H326.411V60.1243C326.411 60.1243 325.82 59.2305 324.51 59.2305V59.2305ZM324.748 60.452C325.914 60.452 326.526 61.4778 326.526 62.3527C326.526 63.3272 325.8 64.2527 324.75 64.2528C323.873 64.2528 322.995 63.5424 322.995 62.3398C322.995 61.2544 323.751 60.452 324.748 60.452Z" fill="black" fill-opacity="0.5"/>
<path d="M329.602 65.3414C329.397 65.3414 329.217 65.1942 329.217 64.9567V59.3676H330.552V60.1068C330.855 59.6521 331.446 59.23 332.353 59.23C333.836 59.23 334.625 60.412 334.625 61.5172V65.3413H333.698C333.454 65.3413 333.29 65.1377 333.29 64.934V61.8114C333.29 61.1987 332.915 60.4547 332.047 60.4547C331.11 60.4547 330.552 61.34 330.552 62.1734V65.3413L329.602 65.3414Z" fill="black" fill-opacity="0.5"/>
<path d="M338.516 59.232C337.099 59.232 335.642 60.3674 335.642 62.3547C335.642 64.1714 336.923 65.4547 338.516 65.4547C339.831 65.4547 340.417 64.5722 340.417 64.5722V64.9569C340.417 65.1387 340.588 65.3415 340.801 65.3415H341.752V56.3809H340.417V60.1258C340.417 60.1258 339.826 59.232 338.516 59.232V59.232ZM338.754 60.4535C339.92 60.4535 340.532 61.4793 340.532 62.3542C340.532 63.3287 339.805 64.2543 338.756 64.2543C337.879 64.2543 337 63.5439 337 62.3414C337 61.2559 337.756 60.4535 338.754 60.4535Z" fill="black" fill-opacity="0.5"/>
<path d="M343.608 65.34C343.403 65.34 343.223 65.1929 343.223 64.9553V59.3662H344.558V60.3619C344.788 59.8041 345.284 59.2983 346.165 59.2983C346.41 59.2983 346.64 59.3436 346.64 59.3436V60.7239C346.64 60.7239 346.353 60.6108 346.006 60.6108C345.07 60.6108 344.558 61.496 344.558 62.3295V65.34H343.608Z" fill="black" fill-opacity="0.5"/>
<path d="M350.161 59.2271C348.677 59.2271 347.047 60.3347 347.047 62.3411C347.047 64.1695 348.435 65.452 350.158 65.452C352.28 65.452 353.317 63.7457 353.317 62.3527C353.317 60.6433 351.982 59.2271 350.161 59.2271V59.2271ZM350.166 60.4738C351.192 60.4738 351.957 61.3008 351.957 62.3449C351.957 63.407 351.145 64.2266 350.169 64.2266C349.263 64.2266 348.382 63.4893 348.382 62.3627C348.382 61.2173 349.22 60.4738 350.166 60.4738V60.4738Z" fill="black" fill-opacity="0.5"/>
<path d="M351.53 36.9202L354.689 31.4985C354.867 31.1945 354.759 30.8084 354.456 30.6318C354.154 30.4552 353.76 30.5579 353.586 30.8618L350.385 36.3534C347.943 35.2485 345.195 34.6324 342.239 34.6324C339.283 34.6324 336.534 35.2485 334.093 36.3534L330.892 30.8618C330.714 30.5579 330.324 30.4552 330.017 30.6318C329.71 30.8084 329.607 31.1945 329.785 31.4985L332.944 36.9202C327.497 39.8446 323.807 45.3074 323.198 51.7026H361.28C360.671 45.3074 356.981 39.8446 351.53 36.9202H351.53ZM333.496 46.4041C332.613 46.4041 331.899 45.6935 331.899 44.8228C331.899 43.9479 332.617 43.2414 333.496 43.2414C334.379 43.2414 335.092 43.952 335.092 44.8228C335.096 45.6935 334.379 46.4041 333.496 46.4041ZM350.978 46.4041C350.095 46.4041 349.382 45.6935 349.382 44.8228C349.382 43.9479 350.099 43.2414 350.978 43.2414C351.861 43.2414 352.574 43.952 352.574 44.8228C352.578 45.6935 351.861 46.4041 350.978 46.4041Z" fill="#32DE84"/>
</g>
</g>
<rect x="310.5" y="16.5" width="63" height="63" rx="11.5" stroke="#FAFBFD"/>
<rect x="310.5" y="16.5" width="63" height="63" rx="11.5" stroke="#0E061A" stroke-opacity="0.2"/>
</g>
</g>
<defs>
<filter id="filter0_dddd_218_3950" x="0" y="0" width="108" height="108" filterUnits="userSpaceOnUse" color-interpolation-filters="sRGB">
<feFlood flood-opacity="0" result="BackgroundImageFix"/>
<feColorMatrix in="SourceAlpha" type="matrix" values="0 0 0 0 0 0 0 0 0 0 0 0 0 0 0 0 0 0 127 0" result="hardAlpha"/>
<feOffset dy="0.271728"/>
<feGaussianBlur stdDeviation="0.498168"/>
<feColorMatrix type="matrix" values="0 0 0 0 0.137255 0 0 0 0 0.0627451 0 0 0 0 0.266667 0 0 0 0.0274 0"/>
<feBlend mode="normal" in2="BackgroundImageFix" result="effect1_dropShadow_218_3950"/>
<feColorMatrix in="SourceAlpha" type="matrix" values="0 0 0 0 0 0 0 0 0 0 0 0 0 0 0 0 0 0 127 0" result="hardAlpha"/>
<feOffset dy="0.751293"/>
<feGaussianBlur stdDeviation="1.37737"/>
<feColorMatrix type="matrix" values="0 0 0 0 0.137255 0 0 0 0 0.0627451 0 0 0 0 0.266667 0 0 0 0.035 0"/>
<feBlend mode="normal" in2="effect1_dropShadow_218_3950" result="effect2_dropShadow_218_3950"/>
<feColorMatrix in="SourceAlpha" type="matrix" values="0 0 0 0 0 0 0 0 0 0 0 0 0 0 0 0 0 0 127 0" result="hardAlpha"/>
<feOffset dy="1.80882"/>
<feGaussianBlur stdDeviation="3.31618"/>
<feColorMatrix type="matrix" values="0 0 0 0 0.137255 0 0 0 0 0.0627451 0 0 0 0 0.266667 0 0 0 0.0426 0"/>
<feBlend mode="normal" in2="effect2_dropShadow_218_3950" result="effect3_dropShadow_218_3950"/>
<feColorMatrix in="SourceAlpha" type="matrix" values="0 0 0 0 0 0 0 0 0 0 0 0 0 0 0 0 0 0 127 0" result="hardAlpha"/>
<feOffset dy="6"/>
<feGaussianBlur stdDeviation="11"/>
<feColorMatrix type="matrix" values="0 0 0 0 0.137255 0 0 0 0 0.0627451 0 0 0 0 0.266667 0 0 0 0.05 0"/>
<feBlend mode="normal" in2="effect3_dropShadow_218_3950" result="effect4_dropShadow_218_3950"/>
<feBlend mode="normal" in="SourceGraphic" in2="effect4_dropShadow_218_3950" result="shape"/>
</filter>
<filter id="filter1_dddd_218_3950" x="0" y="0" width="108" height="108" filterUnits="userSpaceOnUse" color-interpolation-filters="sRGB">
<feFlood flood-opacity="0" result="BackgroundImageFix"/>
<feColorMatrix in="SourceAlpha" type="matrix" values="0 0 0 0 0 0 0 0 0 0 0 0 0 0 0 0 0 0 127 0" result="hardAlpha"/>
<feOffset dy="0.271728"/>
<feGaussianBlur stdDeviation="0.498168"/>
<feColorMatrix type="matrix" values="0 0 0 0 0.137255 0 0 0 0 0.0627451 0 0 0 0 0.266667 0 0 0 0.0274 0"/>
<feBlend mode="normal" in2="BackgroundImageFix" result="effect1_dropShadow_218_3950"/>
<feColorMatrix in="SourceAlpha" type="matrix" values="0 0 0 0 0 0 0 0 0 0 0 0 0 0 0 0 0 0 127 0" result="hardAlpha"/>
<feOffset dy="0.751293"/>
<feGaussianBlur stdDeviation="1.37737"/>
<feColorMatrix type="matrix" values="0 0 0 0 0.137255 0 0 0 0 0.0627451 0 0 0 0 0.266667 0 0 0 0.035 0"/>
<feBlend mode="normal" in2="effect1_dropShadow_218_3950" result="effect2_dropShadow_218_3950"/>
<feColorMatrix in="SourceAlpha" type="matrix" values="0 0 0 0 0 0 0 0 0 0 0 0 0 0 0 0 0 0 127 0" result="hardAlpha"/>
<feOffset dy="1.80882"/>
<feGaussianBlur stdDeviation="3.31618"/>
<feColorMatrix type="matrix" values="0 0 0 0 0.137255 0 0 0 0 0.0627451 0 0 0 0 0.266667 0 0 0 0.0426 0"/>
<feBlend mode="normal" in2="effect2_dropShadow_218_3950" result="effect3_dropShadow_218_3950"/>
<feColorMatrix in="SourceAlpha" type="matrix" values="0 0 0 0 0 0 0 0 0 0 0 0 0 0 0 0 0 0 127 0" result="hardAlpha"/>
<feOffset dy="6"/>
<feGaussianBlur stdDeviation="11"/>
<feColorMatrix type="matrix" values="0 0 0 0 0.137255 0 0 0 0 0.0627451 0 0 0 0 0.266667 0 0 0 0.05 0"/>
<feBlend mode="normal" in2="effect3_dropShadow_218_3950" result="effect4_dropShadow_218_3950"/>
<feBlend mode="normal" in="SourceGraphic" in2="effect4_dropShadow_218_3950" result="shape"/>
</filter>
<filter id="filter2_dddd_218_3950" x="96" y="0" width="108" height="108" filterUnits="userSpaceOnUse" color-interpolation-filters="sRGB">
<feFlood flood-opacity="0" result="BackgroundImageFix"/>
<feColorMatrix in="SourceAlpha" type="matrix" values="0 0 0 0 0 0 0 0 0 0 0 0 0 0 0 0 0 0 127 0" result="hardAlpha"/>
<feOffset dy="0.271728"/>
<feGaussianBlur stdDeviation="0.498168"/>
<feColorMatrix type="matrix" values="0 0 0 0 0.137255 0 0 0 0 0.0627451 0 0 0 0 0.266667 0 0 0 0.0274 0"/>
<feBlend mode="normal" in2="BackgroundImageFix" result="effect1_dropShadow_218_3950"/>
<feColorMatrix in="SourceAlpha" type="matrix" values="0 0 0 0 0 0 0 0 0 0 0 0 0 0 0 0 0 0 127 0" result="hardAlpha"/>
<feOffset dy="0.751293"/>
<feGaussianBlur stdDeviation="1.37737"/>
<feColorMatrix type="matrix" values="0 0 0 0 0.137255 0 0 0 0 0.0627451 0 0 0 0 0.266667 0 0 0 0.035 0"/>
<feBlend mode="normal" in2="effect1_dropShadow_218_3950" result="effect2_dropShadow_218_3950"/>
<feColorMatrix in="SourceAlpha" type="matrix" values="0 0 0 0 0 0 0 0 0 0 0 0 0 0 0 0 0 0 127 0" result="hardAlpha"/>
<feOffset dy="1.80882"/>
<feGaussianBlur stdDeviation="3.31618"/>
<feColorMatrix type="matrix" values="0 0 0 0 0.137255 0 0 0 0 0.0627451 0 0 0 0 0.266667 0 0 0 0.0426 0"/>
<feBlend mode="normal" in2="effect2_dropShadow_218_3950" result="effect3_dropShadow_218_3950"/>
<feColorMatrix in="SourceAlpha" type="matrix" values="0 0 0 0 0 0 0 0 0 0 0 0 0 0 0 0 0 0 127 0" result="hardAlpha"/>
<feOffset dy="6"/>
<feGaussianBlur stdDeviation="11"/>
<feColorMatrix type="matrix" values="0 0 0 0 0.137255 0 0 0 0 0.0627451 0 0 0 0 0.266667 0 0 0 0.05 0"/>
<feBlend mode="normal" in2="effect3_dropShadow_218_3950" result="effect4_dropShadow_218_3950"/>
<feBlend mode="normal" in="SourceGraphic" in2="effect4_dropShadow_218_3950" result="shape"/>
</filter>
<filter id="filter3_dddd_218_3950" x="96" y="0" width="108" height="108" filterUnits="userSpaceOnUse" color-interpolation-filters="sRGB">
<feFlood flood-opacity="0" result="BackgroundImageFix"/>
<feColorMatrix in="SourceAlpha" type="matrix" values="0 0 0 0 0 0 0 0 0 0 0 0 0 0 0 0 0 0 127 0" result="hardAlpha"/>
<feOffset dy="0.271728"/>
<feGaussianBlur stdDeviation="0.498168"/>
<feColorMatrix type="matrix" values="0 0 0 0 0.137255 0 0 0 0 0.0627451 0 0 0 0 0.266667 0 0 0 0.0274 0"/>
<feBlend mode="normal" in2="BackgroundImageFix" result="effect1_dropShadow_218_3950"/>
<feColorMatrix in="SourceAlpha" type="matrix" values="0 0 0 0 0 0 0 0 0 0 0 0 0 0 0 0 0 0 127 0" result="hardAlpha"/>
<feOffset dy="0.751293"/>
<feGaussianBlur stdDeviation="1.37737"/>
<feColorMatrix type="matrix" values="0 0 0 0 0.137255 0 0 0 0 0.0627451 0 0 0 0 0.266667 0 0 0 0.035 0"/>
<feBlend mode="normal" in2="effect1_dropShadow_218_3950" result="effect2_dropShadow_218_3950"/>
<feColorMatrix in="SourceAlpha" type="matrix" values="0 0 0 0 0 0 0 0 0 0 0 0 0 0 0 0 0 0 127 0" result="hardAlpha"/>
<feOffset dy="1.80882"/>
<feGaussianBlur stdDeviation="3.31618"/>
<feColorMatrix type="matrix" values="0 0 0 0 0.137255 0 0 0 0 0.0627451 0 0 0 0 0.266667 0 0 0 0.0426 0"/>
<feBlend mode="normal" in2="effect2_dropShadow_218_3950" result="effect3_dropShadow_218_3950"/>
<feColorMatrix in="SourceAlpha" type="matrix" values="0 0 0 0 0 0 0 0 0 0 0 0 0 0 0 0 0 0 127 0" result="hardAlpha"/>
<feOffset dy="6"/>
<feGaussianBlur stdDeviation="11"/>
<feColorMatrix type="matrix" values="0 0 0 0 0.137255 0 0 0 0 0.0627451 0 0 0 0 0.266667 0 0 0 0.05 0"/>
<feBlend mode="normal" in2="effect3_dropShadow_218_3950" result="effect4_dropShadow_218_3950"/>
<feBlend mode="normal" in="SourceGraphic" in2="effect4_dropShadow_218_3950" result="shape"/>
</filter>
<filter id="filter4_dddd_218_3950" x="192" y="0" width="108" height="108" filterUnits="userSpaceOnUse" color-interpolation-filters="sRGB">
<feFlood flood-opacity="0" result="BackgroundImageFix"/>
<feColorMatrix in="SourceAlpha" type="matrix" values="0 0 0 0 0 0 0 0 0 0 0 0 0 0 0 0 0 0 127 0" result="hardAlpha"/>
<feOffset dy="0.271728"/>
<feGaussianBlur stdDeviation="0.498168"/>
<feColorMatrix type="matrix" values="0 0 0 0 0.137255 0 0 0 0 0.0627451 0 0 0 0 0.266667 0 0 0 0.0274 0"/>
<feBlend mode="normal" in2="BackgroundImageFix" result="effect1_dropShadow_218_3950"/>
<feColorMatrix in="SourceAlpha" type="matrix" values="0 0 0 0 0 0 0 0 0 0 0 0 0 0 0 0 0 0 127 0" result="hardAlpha"/>
<feOffset dy="0.751293"/>
<feGaussianBlur stdDeviation="1.37737"/>
<feColorMatrix type="matrix" values="0 0 0 0 0.137255 0 0 0 0 0.0627451 0 0 0 0 0.266667 0 0 0 0.035 0"/>
<feBlend mode="normal" in2="effect1_dropShadow_218_3950" result="effect2_dropShadow_218_3950"/>
<feColorMatrix in="SourceAlpha" type="matrix" values="0 0 0 0 0 0 0 0 0 0 0 0 0 0 0 0 0 0 127 0" result="hardAlpha"/>
<feOffset dy="1.80882"/>
<feGaussianBlur stdDeviation="3.31618"/>
<feColorMatrix type="matrix" values="0 0 0 0 0.137255 0 0 0 0 0.0627451 0 0 0 0 0.266667 0 0 0 0.0426 0"/>
<feBlend mode="normal" in2="effect2_dropShadow_218_3950" result="effect3_dropShadow_218_3950"/>
<feColorMatrix in="SourceAlpha" type="matrix" values="0 0 0 0 0 0 0 0 0 0 0 0 0 0 0 0 0 0 127 0" result="hardAlpha"/>
<feOffset dy="6"/>
<feGaussianBlur stdDeviation="11"/>
<feColorMatrix type="matrix" values="0 0 0 0 0.137255 0 0 0 0 0.0627451 0 0 0 0 0.266667 0 0 0 0.05 0"/>
<feBlend mode="normal" in2="effect3_dropShadow_218_3950" result="effect4_dropShadow_218_3950"/>
<feBlend mode="normal" in="SourceGraphic" in2="effect4_dropShadow_218_3950" result="shape"/>
</filter>
<filter id="filter5_dddd_218_3950" x="192" y="0" width="108" height="108" filterUnits="userSpaceOnUse" color-interpolation-filters="sRGB">
<feFlood flood-opacity="0" result="BackgroundImageFix"/>
<feColorMatrix in="SourceAlpha" type="matrix" values="0 0 0 0 0 0 0 0 0 0 0 0 0 0 0 0 0 0 127 0" result="hardAlpha"/>
<feOffset dy="0.271728"/>
<feGaussianBlur stdDeviation="0.498168"/>
<feColorMatrix type="matrix" values="0 0 0 0 0.137255 0 0 0 0 0.0627451 0 0 0 0 0.266667 0 0 0 0.0274 0"/>
<feBlend mode="normal" in2="BackgroundImageFix" result="effect1_dropShadow_218_3950"/>
<feColorMatrix in="SourceAlpha" type="matrix" values="0 0 0 0 0 0 0 0 0 0 0 0 0 0 0 0 0 0 127 0" result="hardAlpha"/>
<feOffset dy="0.751293"/>
<feGaussianBlur stdDeviation="1.37737"/>
<feColorMatrix type="matrix" values="0 0 0 0 0.137255 0 0 0 0 0.0627451 0 0 0 0 0.266667 0 0 0 0.035 0"/>
<feBlend mode="normal" in2="effect1_dropShadow_218_3950" result="effect2_dropShadow_218_3950"/>
<feColorMatrix in="SourceAlpha" type="matrix" values="0 0 0 0 0 0 0 0 0 0 0 0 0 0 0 0 0 0 127 0" result="hardAlpha"/>
<feOffset dy="1.80882"/>
<feGaussianBlur stdDeviation="3.31618"/>
<feColorMatrix type="matrix" values="0 0 0 0 0.137255 0 0 0 0 0.0627451 0 0 0 0 0.266667 0 0 0 0.0426 0"/>
<feBlend mode="normal" in2="effect2_dropShadow_218_3950" result="effect3_dropShadow_218_3950"/>
<feColorMatrix in="SourceAlpha" type="matrix" values="0 0 0 0 0 0 0 0 0 0 0 0 0 0 0 0 0 0 127 0" result="hardAlpha"/>
<feOffset dy="6"/>
<feGaussianBlur stdDeviation="11"/>
<feColorMatrix type="matrix" values="0 0 0 0 0.137255 0 0 0 0 0.0627451 0 0 0 0 0.266667 0 0 0 0.05 0"/>
<feBlend mode="normal" in2="effect3_dropShadow_218_3950" result="effect4_dropShadow_218_3950"/>
<feBlend mode="normal" in="SourceGraphic" in2="effect4_dropShadow_218_3950" result="shape"/>
</filter>
<filter id="filter6_dddd_218_3950" x="288" y="0" width="108" height="108" filterUnits="userSpaceOnUse" color-interpolation-filters="sRGB">
<feFlood flood-opacity="0" result="BackgroundImageFix"/>
<feColorMatrix in="SourceAlpha" type="matrix" values="0 0 0 0 0 0 0 0 0 0 0 0 0 0 0 0 0 0 127 0" result="hardAlpha"/>
<feOffset dy="0.271728"/>
<feGaussianBlur stdDeviation="0.498168"/>
<feColorMatrix type="matrix" values="0 0 0 0 0.137255 0 0 0 0 0.0627451 0 0 0 0 0.266667 0 0 0 0.0274 0"/>
<feBlend mode="normal" in2="BackgroundImageFix" result="effect1_dropShadow_218_3950"/>
<feColorMatrix in="SourceAlpha" type="matrix" values="0 0 0 0 0 0 0 0 0 0 0 0 0 0 0 0 0 0 127 0" result="hardAlpha"/>
<feOffset dy="0.751293"/>
<feGaussianBlur stdDeviation="1.37737"/>
<feColorMatrix type="matrix" values="0 0 0 0 0.137255 0 0 0 0 0.0627451 0 0 0 0 0.266667 0 0 0 0.035 0"/>
<feBlend mode="normal" in2="effect1_dropShadow_218_3950" result="effect2_dropShadow_218_3950"/>
<feColorMatrix in="SourceAlpha" type="matrix" values="0 0 0 0 0 0 0 0 0 0 0 0 0 0 0 0 0 0 127 0" result="hardAlpha"/>
<feOffset dy="1.80882"/>
<feGaussianBlur stdDeviation="3.31618"/>
<feColorMatrix type="matrix" values="0 0 0 0 0.137255 0 0 0 0 0.0627451 0 0 0 0 0.266667 0 0 0 0.0426 0"/>
<feBlend mode="normal" in2="effect2_dropShadow_218_3950" result="effect3_dropShadow_218_3950"/>
<feColorMatrix in="SourceAlpha" type="matrix" values="0 0 0 0 0 0 0 0 0 0 0 0 0 0 0 0 0 0 127 0" result="hardAlpha"/>
<feOffset dy="6"/>
<feGaussianBlur stdDeviation="11"/>
<feColorMatrix type="matrix" values="0 0 0 0 0.137255 0 0 0 0 0.0627451 0 0 0 0 0.266667 0 0 0 0.05 0"/>
<feBlend mode="normal" in2="effect3_dropShadow_218_3950" result="effect4_dropShadow_218_3950"/>
<feBlend mode="normal" in="SourceGraphic" in2="effect4_dropShadow_218_3950" result="shape"/>
</filter>
<filter id="filter7_dddd_218_3950" x="288" y="0" width="108" height="108" filterUnits="userSpaceOnUse" color-interpolation-filters="sRGB">
<feFlood flood-opacity="0" result="BackgroundImageFix"/>
<feColorMatrix in="SourceAlpha" type="matrix" values="0 0 0 0 0 0 0 0 0 0 0 0 0 0 0 0 0 0 127 0" result="hardAlpha"/>
<feOffset dy="0.271728"/>
<feGaussianBlur stdDeviation="0.498168"/>
<feColorMatrix type="matrix" values="0 0 0 0 0.137255 0 0 0 0 0.0627451 0 0 0 0 0.266667 0 0 0 0.0274 0"/>
<feBlend mode="normal" in2="BackgroundImageFix" result="effect1_dropShadow_218_3950"/>
<feColorMatrix in="SourceAlpha" type="matrix" values="0 0 0 0 0 0 0 0 0 0 0 0 0 0 0 0 0 0 127 0" result="hardAlpha"/>
<feOffset dy="0.751293"/>
<feGaussianBlur stdDeviation="1.37737"/>
<feColorMatrix type="matrix" values="0 0 0 0 0.137255 0 0 0 0 0.0627451 0 0 0 0 0.266667 0 0 0 0.035 0"/>
<feBlend mode="normal" in2="effect1_dropShadow_218_3950" result="effect2_dropShadow_218_3950"/>
<feColorMatrix in="SourceAlpha" type="matrix" values="0 0 0 0 0 0 0 0 0 0 0 0 0 0 0 0 0 0 127 0" result="hardAlpha"/>
<feOffset dy="1.80882"/>
<feGaussianBlur stdDeviation="3.31618"/>
<feColorMatrix type="matrix" values="0 0 0 0 0.137255 0 0 0 0 0.0627451 0 0 0 0 0.266667 0 0 0 0.0426 0"/>
<feBlend mode="normal" in2="effect2_dropShadow_218_3950" result="effect3_dropShadow_218_3950"/>
<feColorMatrix in="SourceAlpha" type="matrix" values="0 0 0 0 0 0 0 0 0 0 0 0 0 0 0 0 0 0 127 0" result="hardAlpha"/>
<feOffset dy="6"/>
<feGaussianBlur stdDeviation="11"/>
<feColorMatrix type="matrix" values="0 0 0 0 0.137255 0 0 0 0 0.0627451 0 0 0 0 0.266667 0 0 0 0.05 0"/>
<feBlend mode="normal" in2="effect3_dropShadow_218_3950" result="effect4_dropShadow_218_3950"/>
<feBlend mode="normal" in="SourceGraphic" in2="effect4_dropShadow_218_3950" result="shape"/>
</filter>
<linearGradient id="paint0_linear_218_3950" x1="146.604" y1="28.3027" x2="146.604" y2="67.7725" gradientUnits="userSpaceOnUse">
<stop stop-color="#FF1B2D"/>
<stop offset="0.614" stop-color="#FF1B2D"/>
<stop offset="1" stop-color="#A70014"/>
</linearGradient>
<linearGradient id="paint1_linear_218_3950" x1="156.829" y1="30.6294" x2="156.829" y2="65.5381" gradientUnits="userSpaceOnUse">
<stop stop-color="#9C0000"/>
<stop offset="0.7" stop-color="#FF4B4B"/>
</linearGradient>
<clipPath id="clip0_218_3950">
<rect x="22" y="16" width="64" height="64" rx="12" fill="white"/>
</clipPath>
<clipPath id="clip1_218_3950">
<rect x="118" y="16" width="64" height="64" rx="12" fill="white"/>
</clipPath>
<clipPath id="clip2_218_3950">
<rect x="214" y="16" width="64" height="64" rx="12" fill="white"/>
</clipPath>
<clipPath id="clip3_218_3950">
<rect x="310" y="16" width="64" height="64" rx="12" fill="white"/>
</clipPath>
</defs>
</svg>
