<svg width="414" height="112" viewBox="0 0 414 112" fill="none" xmlns="http://www.w3.org/2000/svg">
<g filter="url(#filter0_dddd_218_3936)">
<g clip-path="url(#clip0_218_3936)">
<rect x="22" y="18" width="64" height="64" rx="32" fill="#FAFBFD"/>
<g opacity="0.5">
<rect width="64" height="64" transform="translate(22 18)" fill="#FAFBFD"/>
<path d="M40.5173 38.3638L50.6587 48.5052L40.5173 58.6466" stroke="black" stroke-width="3" stroke-linecap="round" stroke-linejoin="round"/>
<path d="M57.4092 57.7676H68.21" stroke="black" stroke-width="3" stroke-linecap="round" stroke-linejoin="round"/>
</g>
</g>
<rect x="22.5" y="18.5" width="63" height="63" rx="31.5" stroke="#FAFBFD"/>
<rect x="22.5" y="18.5" width="63" height="63" rx="31.5" stroke="#0E061A" stroke-opacity="0.2"/>
</g>
<g filter="url(#filter1_dddd_218_3936)">
<g filter="url(#filter2_dddd_218_3936)">
<g clip-path="url(#clip1_218_3936)">
<rect x="118" y="18" width="64" height="64" rx="12" fill="#FAFBFD"/>
<g opacity="0.7">
<rect width="64" height="64" transform="translate(118 18)" fill="#FAFBFD"/>
<path d="M172.846 49.4248L170.899 48.2189V47.6476L172.571 46.082C172.655 46.0013 172.718 45.9013 172.755 45.7908C172.792 45.6802 172.801 45.5623 172.782 45.4473C172.756 45.3382 172.704 45.2369 172.63 45.1522C172.557 45.0675 172.464 45.0018 172.359 44.9607L170.244 44.1567C170.164 43.9814 170.072 43.8118 169.969 43.649L171.323 41.7871C171.375 41.6856 171.402 41.5732 171.402 41.4592C171.402 41.3452 171.375 41.2328 171.323 41.1313C171.28 41.0261 171.211 40.9337 171.122 40.8632C171.033 40.7928 170.927 40.7466 170.815 40.7293L168.551 40.3485C168.551 40.1792 168.382 40.0099 168.276 39.8407L169.228 37.725C169.281 37.6212 169.305 37.5051 169.299 37.3888C169.292 37.2724 169.254 37.16 169.19 37.063C169.125 36.9661 169.036 36.8881 168.931 36.8371C168.826 36.7861 168.71 36.7639 168.593 36.7729H166.308L165.928 36.3286L166.456 34.086C166.486 33.9747 166.487 33.8574 166.457 33.746C166.427 33.6346 166.369 33.533 166.287 33.4515C166.205 33.37 166.104 33.3114 165.992 33.2816C165.881 33.2519 165.764 33.252 165.653 33.282L163.41 33.8109C163.271 33.6797 163.123 33.5594 162.966 33.4513V31.1452C162.971 31.0293 162.947 30.914 162.895 30.8103C162.843 30.7065 162.765 30.6179 162.669 30.5528C162.57 30.4952 162.457 30.4649 162.341 30.4649C162.226 30.4649 162.113 30.4952 162.013 30.5528L159.898 31.5048L159.39 31.2298L159.2 29.0083C159.182 28.8961 159.136 28.7903 159.066 28.7013C158.995 28.6123 158.903 28.5431 158.798 28.5005C158.696 28.4485 158.584 28.4214 158.47 28.4214C158.356 28.4214 158.243 28.4485 158.142 28.5005L156.238 29.918L155.688 29.7488L154.884 27.6331C154.842 27.5286 154.777 27.4356 154.692 27.362C154.607 27.2883 154.506 27.2362 154.397 27.2099C154.282 27.1912 154.164 27.2006 154.054 27.2375C153.943 27.2743 153.843 27.3375 153.762 27.4215L152.197 29.0929H151.625L150.462 27.0407C150.401 26.9446 150.316 26.8654 150.216 26.8106C150.117 26.7558 150.004 26.7271 149.891 26.7271C149.777 26.7271 149.665 26.7558 149.565 26.8106C149.465 26.8654 149.38 26.9446 149.319 27.0407L148.113 28.9871H147.542L145.976 27.3792C145.899 27.2964 145.801 27.2345 145.693 27.1994C145.585 27.1642 145.47 27.1568 145.358 27.1778C145.246 27.1989 145.142 27.2478 145.054 27.32C144.966 27.3921 144.898 27.4853 144.855 27.5908L144.051 29.7065L143.543 29.918L141.639 28.564C141.545 28.498 141.436 28.4569 141.322 28.4445C141.208 28.4322 141.093 28.449 140.987 28.4934C140.882 28.5378 140.789 28.6084 140.718 28.6984C140.647 28.7885 140.6 28.8951 140.581 29.0083L140.201 31.2721L139.693 31.5471L137.577 30.5951C137.477 30.5375 137.364 30.5072 137.249 30.5072C137.134 30.5072 137.021 30.5375 136.921 30.5951C136.825 30.6602 136.748 30.7488 136.696 30.8526C136.644 30.9563 136.62 31.0716 136.625 31.1875V33.4936L136.181 33.8533L134.065 33.3666C133.954 33.3366 133.836 33.3365 133.725 33.3663C133.614 33.396 133.512 33.4546 133.431 33.5361C133.349 33.6177 133.29 33.7192 133.261 33.8306C133.231 33.942 133.231 34.0593 133.261 34.1706L133.79 36.4133L133.43 36.8576H131.124C131.008 36.8521 130.893 36.8764 130.789 36.9283C130.686 36.9801 130.597 37.0578 130.532 37.1537C130.474 37.2535 130.444 37.3666 130.444 37.4817C130.444 37.5968 130.474 37.7099 130.532 37.8096L131.484 39.9253L131.209 40.4331L128.903 40.687C128.791 40.7043 128.685 40.7505 128.596 40.8209C128.507 40.8914 128.438 40.9837 128.395 41.089C128.343 41.1905 128.316 41.3029 128.316 41.4169C128.316 41.5309 128.343 41.6433 128.395 41.7448L129.813 43.649C129.744 43.8283 129.687 44.0121 129.643 44.199L127.528 45.003C127.423 45.0441 127.33 45.1098 127.256 45.1945C127.183 45.2792 127.131 45.3805 127.104 45.4896C127.086 45.6046 127.095 45.7225 127.132 45.8331C127.169 45.9436 127.232 46.0436 127.316 46.1243L128.987 47.6899V48.2612L127.041 49.4671C126.945 49.5283 126.866 49.6127 126.811 49.7125C126.756 49.8124 126.727 49.9245 126.727 50.0384C126.727 50.1523 126.756 50.2644 126.811 50.3642C126.866 50.4641 126.945 50.5485 127.041 50.6096L128.987 51.8156V52.3868L127.316 53.9524C127.232 54.0332 127.169 54.1331 127.132 54.2437C127.095 54.3543 127.086 54.4721 127.104 54.5871C127.131 54.6963 127.183 54.7975 127.256 54.8822C127.33 54.9669 127.423 55.0326 127.528 55.0738L129.643 55.8777C129.687 56.0647 129.744 56.2485 129.813 56.4278L128.458 58.2896C128.406 58.3911 128.379 58.5035 128.379 58.6176C128.379 58.7316 128.406 58.844 128.458 58.9455C128.501 59.0507 128.57 59.1431 128.659 59.2135C128.748 59.284 128.854 59.3301 128.966 59.3475L131.23 59.7283L131.505 60.2361L130.553 62.3518C130.495 62.4515 130.465 62.5646 130.465 62.6797C130.465 62.7948 130.495 62.9079 130.553 63.0076C130.618 63.1036 130.707 63.1813 130.811 63.2331C130.914 63.285 131.03 63.3093 131.145 63.3038H133.452C133.56 63.4611 133.68 63.6096 133.811 63.7481L133.282 65.9908C133.252 66.1021 133.252 66.2194 133.282 66.3308C133.312 66.4421 133.37 66.5437 133.452 66.6252C133.533 66.7068 133.635 66.7654 133.746 66.7951C133.858 66.8249 133.975 66.8248 134.086 66.7947L136.329 66.2658L136.773 66.6255V68.9316C136.768 69.0475 136.792 69.1628 136.844 69.2665C136.896 69.3702 136.973 69.4589 137.069 69.524C137.169 69.5816 137.282 69.6119 137.397 69.6119C137.512 69.6119 137.626 69.5816 137.725 69.524L139.841 68.5719L140.349 68.847L140.73 71.1108C140.747 71.223 140.793 71.3287 140.863 71.4177C140.934 71.5067 141.026 71.5759 141.132 71.6185C141.233 71.6705 141.345 71.6976 141.459 71.6976C141.573 71.6976 141.686 71.6705 141.787 71.6185L143.543 70.0741L144.093 70.2433L144.897 72.359C144.939 72.4635 145.004 72.5565 145.089 72.6302C145.174 72.7038 145.275 72.756 145.384 72.7822C145.499 72.801 145.617 72.7915 145.728 72.7547C145.838 72.7178 145.938 72.6547 146.019 72.5706L147.584 70.8992H148.156L149.362 72.8457C149.423 72.9418 149.507 73.0209 149.607 73.0757C149.707 73.1306 149.819 73.1593 149.933 73.1593C150.047 73.1593 150.159 73.1306 150.259 73.0757C150.359 73.0209 150.443 72.9418 150.504 72.8457L151.71 70.8992H152.281L153.847 72.5706C153.928 72.6547 154.028 72.7178 154.138 72.7547C154.249 72.7915 154.367 72.801 154.482 72.7822C154.591 72.756 154.692 72.7038 154.777 72.6302C154.861 72.5565 154.927 72.4635 154.968 72.359L155.772 70.2433L156.322 70.0741L158.184 71.4281C158.286 71.4801 158.398 71.5072 158.512 71.5072C158.626 71.5072 158.738 71.4801 158.84 71.4281C158.945 71.3855 159.038 71.3163 159.108 71.2273C159.178 71.1383 159.225 71.0326 159.242 70.9204L159.623 68.6566L160.131 68.3815L162.246 69.3336C162.346 69.3912 162.459 69.4215 162.574 69.4215C162.689 69.4215 162.802 69.3912 162.902 69.3336C162.998 69.2685 163.076 69.1798 163.128 69.0761C163.179 68.9724 163.204 68.857 163.198 68.7412V66.4351C163.356 66.327 163.504 66.2067 163.643 66.0754L165.885 66.6043C165.997 66.6343 166.114 66.6345 166.225 66.6047C166.337 66.575 166.438 66.5164 166.52 66.4348C166.601 66.3533 166.66 66.2517 166.69 66.1403C166.719 66.029 166.719 65.9117 166.689 65.8004L166.16 63.5577L166.541 63.1134H168.826C168.942 63.1224 169.059 63.1003 169.164 63.0493C169.268 62.9983 169.358 62.9203 169.422 62.8233C169.487 62.7263 169.525 62.6139 169.531 62.4976C169.538 62.3812 169.514 62.2652 169.461 62.1614L168.509 60.0457C168.614 59.8764 168.699 59.7071 168.784 59.5379L171.048 59.1571C171.16 59.1397 171.266 59.0936 171.355 59.0231C171.444 58.9526 171.513 58.8603 171.555 58.7551C171.607 58.6536 171.634 58.5412 171.634 58.4271C171.634 58.3131 171.607 58.2007 171.555 58.0992L169.969 56.3432C170.037 56.1639 170.094 55.9801 170.138 55.7931L172.253 54.9891C172.358 54.948 172.451 54.8823 172.525 54.7976C172.598 54.7129 172.65 54.6117 172.677 54.5025C172.695 54.3875 172.686 54.2696 172.649 54.1591C172.612 54.0485 172.549 53.9485 172.465 53.8678L170.794 52.3022V51.7309L172.74 50.525C172.836 50.4638 172.915 50.3794 172.97 50.2796C173.025 50.1797 173.054 50.0677 173.054 49.9538C173.054 49.8398 173.025 49.7278 172.97 49.6279C172.915 49.5281 172.836 49.4437 172.74 49.3825L172.846 49.4248ZM159.771 65.6311C159.412 65.5554 159.097 65.34 158.897 65.0326C158.697 64.7251 158.627 64.3506 158.702 63.9914C158.778 63.6323 158.993 63.318 159.301 63.1176C159.608 62.9173 159.983 62.8473 160.342 62.923C160.7 63.004 161.011 63.2225 161.209 63.5313C161.407 63.8401 161.476 64.2144 161.4 64.5733C161.365 64.7509 161.294 64.9198 161.193 65.0698C161.091 65.2198 160.961 65.3479 160.809 65.4465C160.657 65.5451 160.487 65.6123 160.309 65.644C160.13 65.6757 159.947 65.6713 159.771 65.6311V65.6311ZM159.094 61.1458C158.933 61.1118 158.766 61.1101 158.604 61.1406C158.443 61.1712 158.288 61.2336 158.151 61.324C158.013 61.4145 157.895 61.5313 157.802 61.6678C157.71 61.8042 157.646 61.9576 157.613 62.119L156.915 65.3561C154.713 66.3754 152.317 66.9094 149.891 66.9217C147.415 66.92 144.969 66.3861 142.718 65.3561L142.02 62.0556C141.99 61.8928 141.927 61.7377 141.836 61.5998C141.744 61.4618 141.626 61.3438 141.487 61.2529C141.349 61.162 141.194 61.1 141.031 61.0707C140.868 61.0414 140.7 61.0453 140.539 61.0823L137.683 61.6959C137.149 61.1453 136.655 60.5586 136.202 59.9399H150.102C150.271 59.9399 150.356 59.9399 150.356 59.7706V54.8622C150.356 54.7141 150.356 54.6929 150.102 54.6929H146.04V51.5617H150.441C151.096 51.5732 151.726 51.8148 152.221 52.2441C152.716 52.6734 153.045 53.2632 153.149 53.9101C153.318 54.6083 153.699 56.8298 153.953 57.5491C154.207 58.2685 155.286 59.9399 156.428 59.9399H163.6C163.113 60.5888 162.59 61.2103 162.035 61.8017L159.094 61.1458ZM139.862 65.5676C139.686 65.6079 139.503 65.6122 139.324 65.5805C139.146 65.5488 138.976 65.4817 138.824 65.383C138.672 65.2844 138.541 65.1563 138.44 65.0063C138.338 64.8563 138.268 64.6875 138.233 64.5098C138.193 64.3319 138.188 64.1477 138.219 63.968C138.251 63.7883 138.318 63.6167 138.416 63.4631C138.515 63.3095 138.643 63.1771 138.793 63.0734C138.943 62.9698 139.112 62.8971 139.291 62.8595C139.65 62.7838 140.024 62.8538 140.332 63.0542C140.639 63.2545 140.855 63.5689 140.931 63.928C141.006 64.2871 140.936 64.6616 140.736 64.9691C140.536 65.2766 140.221 65.4919 139.862 65.5676V65.5676ZM134.594 44.1779C134.704 44.4264 134.738 44.7019 134.692 44.9696C134.645 45.2374 134.521 45.4854 134.333 45.6823C134.146 45.8793 133.905 46.0163 133.64 46.0762C133.375 46.1361 133.098 46.1161 132.844 46.0187C132.59 45.9214 132.371 45.751 132.214 45.5292C132.057 45.3074 131.969 45.044 131.962 44.7724C131.954 44.5007 132.028 44.233 132.172 44.0029C132.317 43.7728 132.526 43.5908 132.774 43.4797C132.939 43.4027 133.118 43.3598 133.3 43.3534C133.481 43.3469 133.663 43.3772 133.833 43.4424C134.002 43.5076 134.157 43.6063 134.288 43.7326C134.419 43.859 134.523 44.0104 134.594 44.1779V44.1779ZM132.965 48.0285L135.948 46.6956C136.101 46.6292 136.239 46.5329 136.354 46.4124C136.469 46.2918 136.559 46.1495 136.618 45.9937C136.677 45.8379 136.704 45.6719 136.698 45.5054C136.692 45.3389 136.653 45.1752 136.583 45.0242L135.969 43.649H138.381V54.5237H133.515C132.939 52.4099 132.753 50.209 132.965 48.0285V48.0285ZM146.04 46.9706V43.7547H151.773C152.07 43.7547 153.889 44.0933 153.889 45.4473C153.889 46.8014 152.514 46.9706 151.393 46.9706H146.04ZM166.816 49.848C166.816 50.2711 166.816 50.6942 166.816 51.1174H165.124C164.933 51.1174 164.87 51.2232 164.87 51.3924V52.1118C164.87 53.9947 163.812 54.4179 162.881 54.5237C161.95 54.6295 160.998 54.1428 160.871 53.5928C160.811 52.6528 160.528 51.7407 160.046 50.9315C159.564 50.1222 158.897 49.439 158.099 48.9382C159.034 48.479 159.841 47.7968 160.45 46.9519C161.059 46.107 161.451 45.1252 161.59 44.0933C161.554 43.183 161.291 42.2961 160.826 41.513C160.36 40.7298 159.707 40.0751 158.925 39.608C157.827 38.9014 156.567 38.4864 155.264 38.402H137.196C139.707 35.6272 143.059 33.754 146.738 33.0704L148.854 35.3131C148.972 35.4314 149.112 35.5253 149.266 35.5894C149.42 35.6535 149.586 35.6865 149.753 35.6865C149.92 35.6865 150.086 35.6535 150.24 35.5894C150.394 35.5253 150.534 35.4314 150.652 35.3131L153.022 33.0704C155.457 33.5293 157.763 34.5125 159.779 35.952C161.796 37.3915 163.475 39.2527 164.7 41.4063L163.071 45.0876C163.001 45.2387 162.962 45.4023 162.956 45.5689C162.95 45.7354 162.977 45.9014 163.036 46.0572C163.095 46.213 163.185 46.3553 163.3 46.4759C163.415 46.5964 163.553 46.6927 163.706 46.759L166.837 48.1554C166.863 48.7195 166.855 49.2846 166.816 49.848ZM148.769 31.2298C149.031 30.9701 149.384 30.8244 149.753 30.8244C150.122 30.8244 150.475 30.9701 150.737 31.2298C150.865 31.3575 150.966 31.5092 151.035 31.6762C151.105 31.8432 151.14 32.0222 151.14 32.203C151.14 32.3838 151.105 32.5628 151.035 32.7298C150.966 32.8968 150.865 33.0485 150.737 33.1762C150.475 33.4359 150.122 33.5817 149.753 33.5817C149.384 33.5817 149.031 33.4359 148.769 33.1762C148.647 33.043 148.552 32.8869 148.49 32.7169C148.427 32.5469 148.4 32.3663 148.407 32.1854C148.415 32.0046 148.459 31.8271 148.535 31.6631C148.612 31.4991 148.72 31.3519 148.854 31.2298H148.769ZM164.954 44.2414C165.037 44.0796 165.151 43.9359 165.29 43.8184C165.428 43.701 165.589 43.6121 165.762 43.557C165.935 43.502 166.117 43.4817 166.298 43.4975C166.479 43.5133 166.655 43.5648 166.816 43.649C167.064 43.76 167.274 43.9421 167.418 44.1722C167.563 44.4022 167.636 44.67 167.629 44.9416C167.621 45.2133 167.534 45.4766 167.377 45.6985C167.22 45.9203 167 46.0906 166.747 46.188C166.493 46.2853 166.216 46.3053 165.951 46.2455C165.686 46.1856 165.445 46.0485 165.257 45.8516C165.07 45.6546 164.945 45.4066 164.899 45.1389C164.853 44.8711 164.887 44.5956 164.997 44.3471L164.954 44.2414Z" fill="#0E061A"/>
</g>
</g>
<rect x="118.5" y="18.5" width="63" height="63" rx="11.5" stroke="#FAFBFD"/>
<rect x="118.5" y="18.5" width="63" height="63" rx="11.5" stroke="#0E061A" stroke-opacity="0.2"/>
</g>
</g>
<g filter="url(#filter3_dddd_218_3936)">
<g clip-path="url(#clip2_218_3936)">
<rect x="214" y="18" width="64" height="64" rx="12" fill="#FAFBFD"/>
<path d="M232.517 38.3638L242.659 48.5052L232.517 58.6466" stroke="#1A1225" stroke-width="3" stroke-linecap="round" stroke-linejoin="round"/>
<path d="M249.409 57.7676H260.21" stroke="#1A1225" stroke-width="3" stroke-linecap="round" stroke-linejoin="round"/>
</g>
<rect x="213" y="17" width="66" height="66" rx="13" stroke="#261F31" stroke-width="2"/>
</g>
<g filter="url(#filter4_dddd_218_3936)">
<g clip-path="url(#clip3_218_3936)">
<rect x="310" y="18" width="64" height="64" rx="12" fill="#FAFBFD"/>
<g opacity="0.5">
<rect width="64" height="64" transform="translate(310 18)" fill="#FAFBFD"/>
<path d="M341.483 29.6365C339.948 29.6438 338.482 29.7743 337.192 30.0027C333.392 30.674 332.703 32.0791 332.703 34.6707V38.0929H341.682V39.2336H329.333C326.723 39.2336 324.438 40.802 323.723 43.7867C322.898 47.2067 322.862 49.3412 323.723 52.9125C324.361 55.5711 325.886 57.4649 328.496 57.4649H331.583V53.3623C331.583 50.3983 334.147 47.7842 337.193 47.7842H346.162C348.658 47.7842 350.651 45.7282 350.651 43.2212V34.6711C350.651 32.2372 348.598 30.4092 346.162 30.0031C344.618 29.7463 343.018 29.6296 341.483 29.6365V29.6365ZM336.627 32.3889C337.554 32.3889 338.312 33.1587 338.312 34.1056C338.312 35.0485 337.555 35.8111 336.627 35.8111C335.696 35.8111 334.942 35.0485 334.942 34.1056C334.942 33.1587 335.696 32.3889 336.627 32.3889V32.3889Z" fill="url(#paint0_linear_218_3936)"/>
<path d="M351.771 39.2333V43.2209C351.771 46.3118 349.15 48.9136 346.162 48.9136H337.193C334.736 48.9136 332.703 51.0165 332.703 53.4769V62.0278C332.703 64.4609 334.819 65.8925 337.193 66.5904C340.035 67.4256 342.761 67.5769 346.162 66.5904C348.422 65.9355 350.651 64.6184 350.651 62.0278V58.6053H341.682V57.4642H355.141C357.751 57.4642 358.724 55.6442 359.631 52.9118C360.569 50.0991 360.529 47.394 359.631 43.786C358.986 41.1878 357.755 39.2329 355.141 39.2329H351.771V39.2333ZM346.726 60.8867C347.658 60.8867 348.411 61.6493 348.411 62.5929C348.411 63.5391 347.657 64.3089 346.726 64.3089C345.799 64.3089 345.042 63.5391 345.042 62.5929C345.042 61.6493 345.799 60.8867 346.726 60.8867V60.8867Z" fill="url(#paint1_linear_218_3936)"/>
<path opacity="0.444" d="M353.817 68.6728C353.817 69.9612 348.429 71.0059 341.783 71.0059C335.138 71.0059 329.75 69.9612 329.75 68.6728C329.75 67.3841 335.137 66.3394 341.783 66.3394C348.429 66.3394 353.817 67.3837 353.817 68.6728Z" fill="url(#paint2_radial_218_3936)"/>
</g>
</g>
<rect x="310.5" y="18.5" width="63" height="63" rx="11.5" stroke="#FAFBFD"/>
<rect x="310.5" y="18.5" width="63" height="63" rx="11.5" stroke="#0E061A" stroke-opacity="0.2"/>
</g>
<g filter="url(#filter5_dddd_218_3936)">
<g filter="url(#filter6_dddd_218_3936)">
<g clip-path="url(#clip4_218_3936)">
<rect x="406" y="18" width="64" height="64" rx="12" fill="#FAFBFD"/>
<g opacity="0.7">
<rect width="64" height="64" transform="translate(406 18)" fill="#FAFBFD"/>
</g>
</g>
<rect x="406.5" y="18.5" width="63" height="63" rx="11.5" stroke="#FAFBFD"/>
<rect x="406.5" y="18.5" width="63" height="63" rx="11.5" stroke="#0E061A" stroke-opacity="0.2"/>
</g>
</g>
<defs>
<filter id="filter0_dddd_218_3936" x="0" y="2" width="108" height="108" filterUnits="userSpaceOnUse" color-interpolation-filters="sRGB">
<feFlood flood-opacity="0" result="BackgroundImageFix"/>
<feColorMatrix in="SourceAlpha" type="matrix" values="0 0 0 0 0 0 0 0 0 0 0 0 0 0 0 0 0 0 127 0" result="hardAlpha"/>
<feOffset dy="0.271728"/>
<feGaussianBlur stdDeviation="0.498168"/>
<feColorMatrix type="matrix" values="0 0 0 0 0.137255 0 0 0 0 0.0627451 0 0 0 0 0.266667 0 0 0 0.0274 0"/>
<feBlend mode="normal" in2="BackgroundImageFix" result="effect1_dropShadow_218_3936"/>
<feColorMatrix in="SourceAlpha" type="matrix" values="0 0 0 0 0 0 0 0 0 0 0 0 0 0 0 0 0 0 127 0" result="hardAlpha"/>
<feOffset dy="0.751293"/>
<feGaussianBlur stdDeviation="1.37737"/>
<feColorMatrix type="matrix" values="0 0 0 0 0.137255 0 0 0 0 0.0627451 0 0 0 0 0.266667 0 0 0 0.035 0"/>
<feBlend mode="normal" in2="effect1_dropShadow_218_3936" result="effect2_dropShadow_218_3936"/>
<feColorMatrix in="SourceAlpha" type="matrix" values="0 0 0 0 0 0 0 0 0 0 0 0 0 0 0 0 0 0 127 0" result="hardAlpha"/>
<feOffset dy="1.80882"/>
<feGaussianBlur stdDeviation="3.31618"/>
<feColorMatrix type="matrix" values="0 0 0 0 0.137255 0 0 0 0 0.0627451 0 0 0 0 0.266667 0 0 0 0.0426 0"/>
<feBlend mode="normal" in2="effect2_dropShadow_218_3936" result="effect3_dropShadow_218_3936"/>
<feColorMatrix in="SourceAlpha" type="matrix" values="0 0 0 0 0 0 0 0 0 0 0 0 0 0 0 0 0 0 127 0" result="hardAlpha"/>
<feOffset dy="6"/>
<feGaussianBlur stdDeviation="11"/>
<feColorMatrix type="matrix" values="0 0 0 0 0.137255 0 0 0 0 0.0627451 0 0 0 0 0.266667 0 0 0 0.05 0"/>
<feBlend mode="normal" in2="effect3_dropShadow_218_3936" result="effect4_dropShadow_218_3936"/>
<feBlend mode="normal" in="SourceGraphic" in2="effect4_dropShadow_218_3936" result="shape"/>
</filter>
<filter id="filter1_dddd_218_3936" x="96" y="2" width="108" height="108" filterUnits="userSpaceOnUse" color-interpolation-filters="sRGB">
<feFlood flood-opacity="0" result="BackgroundImageFix"/>
<feColorMatrix in="SourceAlpha" type="matrix" values="0 0 0 0 0 0 0 0 0 0 0 0 0 0 0 0 0 0 127 0" result="hardAlpha"/>
<feOffset dy="0.271728"/>
<feGaussianBlur stdDeviation="0.498168"/>
<feColorMatrix type="matrix" values="0 0 0 0 0.137255 0 0 0 0 0.0627451 0 0 0 0 0.266667 0 0 0 0.0274 0"/>
<feBlend mode="normal" in2="BackgroundImageFix" result="effect1_dropShadow_218_3936"/>
<feColorMatrix in="SourceAlpha" type="matrix" values="0 0 0 0 0 0 0 0 0 0 0 0 0 0 0 0 0 0 127 0" result="hardAlpha"/>
<feOffset dy="0.751293"/>
<feGaussianBlur stdDeviation="1.37737"/>
<feColorMatrix type="matrix" values="0 0 0 0 0.137255 0 0 0 0 0.0627451 0 0 0 0 0.266667 0 0 0 0.035 0"/>
<feBlend mode="normal" in2="effect1_dropShadow_218_3936" result="effect2_dropShadow_218_3936"/>
<feColorMatrix in="SourceAlpha" type="matrix" values="0 0 0 0 0 0 0 0 0 0 0 0 0 0 0 0 0 0 127 0" result="hardAlpha"/>
<feOffset dy="1.80882"/>
<feGaussianBlur stdDeviation="3.31618"/>
<feColorMatrix type="matrix" values="0 0 0 0 0.137255 0 0 0 0 0.0627451 0 0 0 0 0.266667 0 0 0 0.0426 0"/>
<feBlend mode="normal" in2="effect2_dropShadow_218_3936" result="effect3_dropShadow_218_3936"/>
<feColorMatrix in="SourceAlpha" type="matrix" values="0 0 0 0 0 0 0 0 0 0 0 0 0 0 0 0 0 0 127 0" result="hardAlpha"/>
<feOffset dy="6"/>
<feGaussianBlur stdDeviation="11"/>
<feColorMatrix type="matrix" values="0 0 0 0 0.137255 0 0 0 0 0.0627451 0 0 0 0 0.266667 0 0 0 0.05 0"/>
<feBlend mode="normal" in2="effect3_dropShadow_218_3936" result="effect4_dropShadow_218_3936"/>
<feBlend mode="normal" in="SourceGraphic" in2="effect4_dropShadow_218_3936" result="shape"/>
</filter>
<filter id="filter2_dddd_218_3936" x="96" y="2" width="108" height="108" filterUnits="userSpaceOnUse" color-interpolation-filters="sRGB">
<feFlood flood-opacity="0" result="BackgroundImageFix"/>
<feColorMatrix in="SourceAlpha" type="matrix" values="0 0 0 0 0 0 0 0 0 0 0 0 0 0 0 0 0 0 127 0" result="hardAlpha"/>
<feOffset dy="0.271728"/>
<feGaussianBlur stdDeviation="0.498168"/>
<feColorMatrix type="matrix" values="0 0 0 0 0.137255 0 0 0 0 0.0627451 0 0 0 0 0.266667 0 0 0 0.0274 0"/>
<feBlend mode="normal" in2="BackgroundImageFix" result="effect1_dropShadow_218_3936"/>
<feColorMatrix in="SourceAlpha" type="matrix" values="0 0 0 0 0 0 0 0 0 0 0 0 0 0 0 0 0 0 127 0" result="hardAlpha"/>
<feOffset dy="0.751293"/>
<feGaussianBlur stdDeviation="1.37737"/>
<feColorMatrix type="matrix" values="0 0 0 0 0.137255 0 0 0 0 0.0627451 0 0 0 0 0.266667 0 0 0 0.035 0"/>
<feBlend mode="normal" in2="effect1_dropShadow_218_3936" result="effect2_dropShadow_218_3936"/>
<feColorMatrix in="SourceAlpha" type="matrix" values="0 0 0 0 0 0 0 0 0 0 0 0 0 0 0 0 0 0 127 0" result="hardAlpha"/>
<feOffset dy="1.80882"/>
<feGaussianBlur stdDeviation="3.31618"/>
<feColorMatrix type="matrix" values="0 0 0 0 0.137255 0 0 0 0 0.0627451 0 0 0 0 0.266667 0 0 0 0.0426 0"/>
<feBlend mode="normal" in2="effect2_dropShadow_218_3936" result="effect3_dropShadow_218_3936"/>
<feColorMatrix in="SourceAlpha" type="matrix" values="0 0 0 0 0 0 0 0 0 0 0 0 0 0 0 0 0 0 127 0" result="hardAlpha"/>
<feOffset dy="6"/>
<feGaussianBlur stdDeviation="11"/>
<feColorMatrix type="matrix" values="0 0 0 0 0.137255 0 0 0 0 0.0627451 0 0 0 0 0.266667 0 0 0 0.05 0"/>
<feBlend mode="normal" in2="effect3_dropShadow_218_3936" result="effect4_dropShadow_218_3936"/>
<feBlend mode="normal" in="SourceGraphic" in2="effect4_dropShadow_218_3936" result="shape"/>
</filter>
<filter id="filter3_dddd_218_3936" x="190" y="0" width="112" height="112" filterUnits="userSpaceOnUse" color-interpolation-filters="sRGB">
<feFlood flood-opacity="0" result="BackgroundImageFix"/>
<feColorMatrix in="SourceAlpha" type="matrix" values="0 0 0 0 0 0 0 0 0 0 0 0 0 0 0 0 0 0 127 0" result="hardAlpha"/>
<feOffset dy="0.271728"/>
<feGaussianBlur stdDeviation="0.498168"/>
<feColorMatrix type="matrix" values="0 0 0 0 0.137255 0 0 0 0 0.0627451 0 0 0 0 0.266667 0 0 0 0.0274 0"/>
<feBlend mode="normal" in2="BackgroundImageFix" result="effect1_dropShadow_218_3936"/>
<feColorMatrix in="SourceAlpha" type="matrix" values="0 0 0 0 0 0 0 0 0 0 0 0 0 0 0 0 0 0 127 0" result="hardAlpha"/>
<feOffset dy="0.751293"/>
<feGaussianBlur stdDeviation="1.37737"/>
<feColorMatrix type="matrix" values="0 0 0 0 0.137255 0 0 0 0 0.0627451 0 0 0 0 0.266667 0 0 0 0.035 0"/>
<feBlend mode="normal" in2="effect1_dropShadow_218_3936" result="effect2_dropShadow_218_3936"/>
<feColorMatrix in="SourceAlpha" type="matrix" values="0 0 0 0 0 0 0 0 0 0 0 0 0 0 0 0 0 0 127 0" result="hardAlpha"/>
<feOffset dy="1.80882"/>
<feGaussianBlur stdDeviation="3.31618"/>
<feColorMatrix type="matrix" values="0 0 0 0 0.137255 0 0 0 0 0.0627451 0 0 0 0 0.266667 0 0 0 0.0426 0"/>
<feBlend mode="normal" in2="effect2_dropShadow_218_3936" result="effect3_dropShadow_218_3936"/>
<feColorMatrix in="SourceAlpha" type="matrix" values="0 0 0 0 0 0 0 0 0 0 0 0 0 0 0 0 0 0 127 0" result="hardAlpha"/>
<feOffset dy="6"/>
<feGaussianBlur stdDeviation="11"/>
<feColorMatrix type="matrix" values="0 0 0 0 0.137255 0 0 0 0 0.0627451 0 0 0 0 0.266667 0 0 0 0.05 0"/>
<feBlend mode="normal" in2="effect3_dropShadow_218_3936" result="effect4_dropShadow_218_3936"/>
<feBlend mode="normal" in="SourceGraphic" in2="effect4_dropShadow_218_3936" result="shape"/>
</filter>
<filter id="filter4_dddd_218_3936" x="288" y="2" width="108" height="108" filterUnits="userSpaceOnUse" color-interpolation-filters="sRGB">
<feFlood flood-opacity="0" result="BackgroundImageFix"/>
<feColorMatrix in="SourceAlpha" type="matrix" values="0 0 0 0 0 0 0 0 0 0 0 0 0 0 0 0 0 0 127 0" result="hardAlpha"/>
<feOffset dy="0.271728"/>
<feGaussianBlur stdDeviation="0.498168"/>
<feColorMatrix type="matrix" values="0 0 0 0 0.137255 0 0 0 0 0.0627451 0 0 0 0 0.266667 0 0 0 0.0274 0"/>
<feBlend mode="normal" in2="BackgroundImageFix" result="effect1_dropShadow_218_3936"/>
<feColorMatrix in="SourceAlpha" type="matrix" values="0 0 0 0 0 0 0 0 0 0 0 0 0 0 0 0 0 0 127 0" result="hardAlpha"/>
<feOffset dy="0.751293"/>
<feGaussianBlur stdDeviation="1.37737"/>
<feColorMatrix type="matrix" values="0 0 0 0 0.137255 0 0 0 0 0.0627451 0 0 0 0 0.266667 0 0 0 0.035 0"/>
<feBlend mode="normal" in2="effect1_dropShadow_218_3936" result="effect2_dropShadow_218_3936"/>
<feColorMatrix in="SourceAlpha" type="matrix" values="0 0 0 0 0 0 0 0 0 0 0 0 0 0 0 0 0 0 127 0" result="hardAlpha"/>
<feOffset dy="1.80882"/>
<feGaussianBlur stdDeviation="3.31618"/>
<feColorMatrix type="matrix" values="0 0 0 0 0.137255 0 0 0 0 0.0627451 0 0 0 0 0.266667 0 0 0 0.0426 0"/>
<feBlend mode="normal" in2="effect2_dropShadow_218_3936" result="effect3_dropShadow_218_3936"/>
<feColorMatrix in="SourceAlpha" type="matrix" values="0 0 0 0 0 0 0 0 0 0 0 0 0 0 0 0 0 0 127 0" result="hardAlpha"/>
<feOffset dy="6"/>
<feGaussianBlur stdDeviation="11"/>
<feColorMatrix type="matrix" values="0 0 0 0 0.137255 0 0 0 0 0.0627451 0 0 0 0 0.266667 0 0 0 0.05 0"/>
<feBlend mode="normal" in2="effect3_dropShadow_218_3936" result="effect4_dropShadow_218_3936"/>
<feBlend mode="normal" in="SourceGraphic" in2="effect4_dropShadow_218_3936" result="shape"/>
</filter>
<filter id="filter5_dddd_218_3936" x="384" y="2" width="108" height="108" filterUnits="userSpaceOnUse" color-interpolation-filters="sRGB">
<feFlood flood-opacity="0" result="BackgroundImageFix"/>
<feColorMatrix in="SourceAlpha" type="matrix" values="0 0 0 0 0 0 0 0 0 0 0 0 0 0 0 0 0 0 127 0" result="hardAlpha"/>
<feOffset dy="0.271728"/>
<feGaussianBlur stdDeviation="0.498168"/>
<feColorMatrix type="matrix" values="0 0 0 0 0.137255 0 0 0 0 0.0627451 0 0 0 0 0.266667 0 0 0 0.0274 0"/>
<feBlend mode="normal" in2="BackgroundImageFix" result="effect1_dropShadow_218_3936"/>
<feColorMatrix in="SourceAlpha" type="matrix" values="0 0 0 0 0 0 0 0 0 0 0 0 0 0 0 0 0 0 127 0" result="hardAlpha"/>
<feOffset dy="0.751293"/>
<feGaussianBlur stdDeviation="1.37737"/>
<feColorMatrix type="matrix" values="0 0 0 0 0.137255 0 0 0 0 0.0627451 0 0 0 0 0.266667 0 0 0 0.035 0"/>
<feBlend mode="normal" in2="effect1_dropShadow_218_3936" result="effect2_dropShadow_218_3936"/>
<feColorMatrix in="SourceAlpha" type="matrix" values="0 0 0 0 0 0 0 0 0 0 0 0 0 0 0 0 0 0 127 0" result="hardAlpha"/>
<feOffset dy="1.80882"/>
<feGaussianBlur stdDeviation="3.31618"/>
<feColorMatrix type="matrix" values="0 0 0 0 0.137255 0 0 0 0 0.0627451 0 0 0 0 0.266667 0 0 0 0.0426 0"/>
<feBlend mode="normal" in2="effect2_dropShadow_218_3936" result="effect3_dropShadow_218_3936"/>
<feColorMatrix in="SourceAlpha" type="matrix" values="0 0 0 0 0 0 0 0 0 0 0 0 0 0 0 0 0 0 127 0" result="hardAlpha"/>
<feOffset dy="6"/>
<feGaussianBlur stdDeviation="11"/>
<feColorMatrix type="matrix" values="0 0 0 0 0.137255 0 0 0 0 0.0627451 0 0 0 0 0.266667 0 0 0 0.05 0"/>
<feBlend mode="normal" in2="effect3_dropShadow_218_3936" result="effect4_dropShadow_218_3936"/>
<feBlend mode="normal" in="SourceGraphic" in2="effect4_dropShadow_218_3936" result="shape"/>
</filter>
<filter id="filter6_dddd_218_3936" x="384" y="2" width="108" height="108" filterUnits="userSpaceOnUse" color-interpolation-filters="sRGB">
<feFlood flood-opacity="0" result="BackgroundImageFix"/>
<feColorMatrix in="SourceAlpha" type="matrix" values="0 0 0 0 0 0 0 0 0 0 0 0 0 0 0 0 0 0 127 0" result="hardAlpha"/>
<feOffset dy="0.271728"/>
<feGaussianBlur stdDeviation="0.498168"/>
<feColorMatrix type="matrix" values="0 0 0 0 0.137255 0 0 0 0 0.0627451 0 0 0 0 0.266667 0 0 0 0.0274 0"/>
<feBlend mode="normal" in2="BackgroundImageFix" result="effect1_dropShadow_218_3936"/>
<feColorMatrix in="SourceAlpha" type="matrix" values="0 0 0 0 0 0 0 0 0 0 0 0 0 0 0 0 0 0 127 0" result="hardAlpha"/>
<feOffset dy="0.751293"/>
<feGaussianBlur stdDeviation="1.37737"/>
<feColorMatrix type="matrix" values="0 0 0 0 0.137255 0 0 0 0 0.0627451 0 0 0 0 0.266667 0 0 0 0.035 0"/>
<feBlend mode="normal" in2="effect1_dropShadow_218_3936" result="effect2_dropShadow_218_3936"/>
<feColorMatrix in="SourceAlpha" type="matrix" values="0 0 0 0 0 0 0 0 0 0 0 0 0 0 0 0 0 0 127 0" result="hardAlpha"/>
<feOffset dy="1.80882"/>
<feGaussianBlur stdDeviation="3.31618"/>
<feColorMatrix type="matrix" values="0 0 0 0 0.137255 0 0 0 0 0.0627451 0 0 0 0 0.266667 0 0 0 0.0426 0"/>
<feBlend mode="normal" in2="effect2_dropShadow_218_3936" result="effect3_dropShadow_218_3936"/>
<feColorMatrix in="SourceAlpha" type="matrix" values="0 0 0 0 0 0 0 0 0 0 0 0 0 0 0 0 0 0 127 0" result="hardAlpha"/>
<feOffset dy="6"/>
<feGaussianBlur stdDeviation="11"/>
<feColorMatrix type="matrix" values="0 0 0 0 0.137255 0 0 0 0 0.0627451 0 0 0 0 0.266667 0 0 0 0.05 0"/>
<feBlend mode="normal" in2="effect3_dropShadow_218_3936" result="effect4_dropShadow_218_3936"/>
<feBlend mode="normal" in="SourceGraphic" in2="effect4_dropShadow_218_3936" result="shape"/>
</filter>
<linearGradient id="paint0_linear_218_3936" x1="322.191" y1="30.7066" x2="342.901" y2="48.3683" gradientUnits="userSpaceOnUse">
<stop stop-color="#5A9FD4"/>
<stop offset="1" stop-color="#306998"/>
</linearGradient>
<linearGradient id="paint1_linear_218_3936" x1="350.694" y1="59.3469" x2="343.267" y2="48.9315" gradientUnits="userSpaceOnUse">
<stop stop-color="#FFD43B"/>
<stop offset="1" stop-color="#FFE873"/>
</linearGradient>
<radialGradient id="paint2_radial_218_3936" cx="0" cy="0" r="1" gradientUnits="userSpaceOnUse" gradientTransform="translate(341.735 68.606) rotate(-90) scale(2.33393 10.2596)">
<stop stop-color="#B8B8B8" stop-opacity="0.498"/>
<stop offset="1" stop-color="#7F7F7F" stop-opacity="0"/>
</radialGradient>
<clipPath id="clip0_218_3936">
<rect x="22" y="18" width="64" height="64" rx="32" fill="white"/>
</clipPath>
<clipPath id="clip1_218_3936">
<rect x="118" y="18" width="64" height="64" rx="12" fill="white"/>
</clipPath>
<clipPath id="clip2_218_3936">
<rect x="214" y="18" width="64" height="64" rx="12" fill="white"/>
</clipPath>
<clipPath id="clip3_218_3936">
<rect x="310" y="18" width="64" height="64" rx="12" fill="white"/>
</clipPath>
<clipPath id="clip4_218_3936">
<rect x="406" y="18" width="64" height="64" rx="12" fill="white"/>
</clipPath>
</defs>
</svg>
