<svg width="43" height="42" viewBox="0 0 43 42" fill="none" xmlns="http://www.w3.org/2000/svg">
<path fill-rule="evenodd" clip-rule="evenodd" d="M16.8959 0H25.4209C33.2539 0 37.1705 0 39.6039 2.43342C42.0373 4.86684 42.0373 8.78337 42.0373 16.6164V25.1414C42.0373 32.9744 42.0373 36.891 39.6039 39.3244C37.1705 41.7578 33.2539 41.7578 25.4209 41.7578H16.8959C9.06285 41.7578 5.14632 41.7578 2.7129 39.3244C0.27948 36.891 0.27948 32.9744 0.27948 25.1414V16.6164C0.27948 8.78337 0.27948 4.86684 2.7129 2.43342C5.14632 0 9.06285 0 16.8959 0ZM32.2005 35.0045C30.2651 35.0045 29.1707 33.9951 28.3296 32.6217L25.1408 34.4743C26.2928 36.7504 28.6471 38.487 32.2913 38.487C36.0184 38.487 38.7936 36.5516 38.7936 33.0187C38.7936 29.7417 36.9112 28.2842 33.5772 26.8545L32.5962 26.4342C30.9126 25.7051 30.1835 25.2286 30.1835 24.0514C30.1835 23.0989 30.912 22.3698 32.0613 22.3698C33.1881 22.3698 33.9139 22.8451 34.5867 24.0514L37.6423 22.0894C36.3498 19.816 34.5562 18.9477 32.0613 18.9477C28.557 18.9477 26.3146 21.188 26.3146 24.1309C26.3146 27.3257 28.1957 28.837 31.0273 30.0433L32.0083 30.4642C33.7979 31.247 34.865 31.7236 34.865 33.0691C34.865 34.1919 33.8264 35.0045 32.2005 35.0045ZM16.9934 34.98C15.6452 34.98 15.0844 34.0554 14.468 32.9617L11.2739 34.8955C12.1992 36.8538 14.0186 38.4797 17.1604 38.4797C20.6376 38.4797 23.0197 36.6304 23.0197 32.5673V19.1717H19.0958V32.5143C19.0958 34.4756 18.2826 34.98 16.9934 34.98Z" fill="#FAFBFD"/>
</svg>
