<svg width="55" height="23" viewBox="0 0 55 23" fill="none" xmlns="http://www.w3.org/2000/svg">
<g opacity="0.5">
<g clip-path="url(#clip0_661_1573)">
<path d="M11.3904 20.3186L2.87709 11.1924C2.12873 10.421 1.63477 9.42642 1.46517 8.3495C1.29557 7.27258 1.45894 6.16794 1.93214 5.19208C2.28959 4.45531 2.81171 3.81665 3.4555 3.32872C4.09929 2.8408 4.84631 2.51757 5.63501 2.38568C6.42372 2.25378 7.23153 2.317 7.99189 2.57011C8.75226 2.82322 9.44341 3.25898 10.0084 3.8415L11.4 5.27628L12.7916 3.8415C13.3566 3.25898 14.0477 2.82322 14.8081 2.57011C15.5685 2.317 16.3763 2.25378 17.165 2.38568C17.9537 2.51757 18.7007 2.8408 19.3445 3.32872C19.9883 3.81665 20.5104 4.45531 20.8679 5.19208C21.341 6.16794 21.5044 7.27258 21.3348 8.3495C21.1652 9.42642 20.6713 10.421 19.9229 11.1924C17.1789 14.1348 11.3904 20.3186 11.3904 20.3186Z" stroke="#0E061A" stroke-width="1.5" stroke-linecap="round" stroke-linejoin="round"/>
</g>
<path d="M34.72 9.9866C35.776 9.9866 36.672 10.2959 37.408 10.9146C38.1333 11.5439 38.496 12.4079 38.496 13.5066C38.496 14.5946 38.1227 15.4533 37.376 16.0826C36.6293 16.7119 35.7227 17.0266 34.656 17.0266C33.8027 17.0266 33.04 16.8186 32.368 16.4026C31.696 15.9973 31.2267 15.4053 30.96 14.6266L32.224 13.9066C32.3733 14.4506 32.6613 14.8613 33.088 15.1386C33.5147 15.4266 34.0373 15.5706 34.656 15.5706C35.36 15.5706 35.9307 15.3893 36.368 15.0266C36.8053 14.6639 37.024 14.1573 37.024 13.5066C37.024 12.8559 36.8053 12.3439 36.368 11.9706C35.9307 11.6079 35.3707 11.4266 34.688 11.4266H31.52L31.936 5.6186H38.064V7.0106H33.28L33.088 9.9866H34.72ZM46.055 5.6186V6.9466L41.975 16.8186H40.423L44.471 7.0266H39.063V5.6186H46.055ZM53.6565 14.6906H52.2965V16.8186H50.8085V14.6906H45.0965V13.2986L49.1125 5.6186H50.7125L46.6965 13.2986H50.8085V10.1306H52.2965V13.2986H53.6565V14.6906Z" fill="#0E061A"/>
</g>
<defs>
<clipPath id="clip0_661_1573">
<rect width="22" height="22" fill="white" transform="translate(0.399994 0.318604)"/>
</clipPath>
</defs>
</svg>
