<svg width="91" height="18" viewBox="0 0 91 18" fill="none" xmlns="http://www.w3.org/2000/svg">
<path d="M33.5918 0.57843H36.9772L42.7335 10.9912L48.4898 0.578439H51.8019V17.6886H49.0398V4.57494L43.9923 13.6556H41.4014L36.3538 4.57494V17.6886H33.5918V0.57843Z" fill="#0E061A"/>
<path d="M60.7108 17.9942C59.4315 17.9942 58.3071 17.7111 57.3376 17.1448C56.368 16.5785 55.6123 15.7943 55.0705 14.7921C54.5286 13.7899 54.2577 12.6411 54.2578 11.3457C54.2578 10.0339 54.5226 8.87289 55.0522 7.86251C55.5818 6.85234 56.3171 6.06198 57.2582 5.49145C58.1993 4.92127 59.2809 4.63611 60.503 4.63596C61.717 4.63596 62.7619 4.92315 63.6379 5.49753C64.5136 6.07208 65.1878 6.87669 65.6605 7.91136C66.1329 8.94619 66.3692 10.1602 66.3693 11.5534V12.311H56.9954C57.1666 13.3541 57.5882 14.175 58.2604 14.7737C58.9326 15.3726 59.782 15.672 60.8085 15.672C61.6314 15.672 62.3403 15.5498 62.9351 15.3053C63.5298 15.0609 64.0879 14.6902 64.6095 14.1932L66.076 15.9898C64.6174 17.3261 62.829 17.9943 60.7108 17.9942ZM62.7273 7.84409C62.1487 7.25347 61.391 6.95811 60.4542 6.958C59.5415 6.958 58.7777 7.2595 58.1626 7.8625C57.5473 8.46545 57.1583 9.27615 56.9954 10.2946H63.7173C63.6358 9.25165 63.3058 8.43481 62.7273 7.84409Z" fill="#0E061A"/>
<path d="M69.7184 7.20256H67.1763V4.94154H69.7184V1.20178H72.3827V4.94154H76.2446V7.20256H72.3827V12.9344C72.3827 13.8876 72.5456 14.5679 72.8715 14.9754C73.1973 15.3829 73.7554 15.5866 74.5459 15.5864C74.8961 15.5864 75.1935 15.5722 75.4381 15.5437C75.6825 15.5152 75.9513 15.4765 76.2446 15.4275V17.664C75.91 17.7609 75.569 17.8344 75.2241 17.8841C74.8296 17.9422 74.4313 17.9708 74.0325 17.9697C71.1563 17.9697 69.7183 16.3972 69.7184 13.2522V7.20256Z" fill="#0E061A"/>
<path d="M90.1292 17.6886H87.5138V15.9042C87.0494 16.5724 86.4587 17.0878 85.7417 17.4502C85.0247 17.8127 84.2099 17.994 83.2974 17.9942C82.173 17.9942 81.177 17.7069 80.3092 17.1325C79.4415 16.5581 78.7591 15.7678 78.2621 14.7615C77.7651 13.7553 77.5166 12.6044 77.5166 11.309C77.5166 10.0054 77.7692 8.85244 78.2744 7.85018C78.7795 6.84812 79.4781 6.06188 80.3703 5.49145C81.2625 4.92128 82.2871 4.63611 83.444 4.63596C84.3158 4.63596 85.098 4.80505 85.7906 5.14323C86.4738 5.47372 87.0655 5.96679 87.5138 6.57919V4.94157H90.1292V17.6886ZM87.465 9.40241C87.1796 8.67725 86.7295 8.10485 86.1144 7.68519C85.4992 7.26563 84.7883 7.05586 83.9818 7.05586C82.841 7.05586 81.9325 7.43878 81.2564 8.20463C80.58 8.97053 80.2419 10.0053 80.2421 11.309C80.2421 12.6209 80.568 13.6597 81.2198 14.4255C81.8715 15.1914 82.7555 15.5743 83.8719 15.5743C84.6946 15.5743 85.4279 15.3624 86.0717 14.9387C86.7152 14.5152 87.1796 13.9449 87.465 13.2277V9.40241Z" fill="#0E061A"/>
<path d="M20.2457 0C18.0246 0 16.2884 1.67285 14.7167 3.79787C12.5569 1.04787 10.7507 0 8.58911 0C4.18222 0 0.805664 5.73517 0.805664 11.8055C0.805664 15.6041 2.64339 18 5.72153 18C7.93698 18 9.53033 16.9555 12.3629 12.0041C12.3629 12.0041 13.5437 9.919 14.356 8.48265C14.6406 8.94222 14.9404 9.43743 15.2553 9.96828L16.5836 12.2028C19.171 16.5326 20.6127 18 23.225 18C26.2237 18 27.8926 15.5714 27.8926 11.6938C27.8926 5.33793 24.4399 0 20.2457 0ZM10.2029 10.6634C7.90635 14.2634 7.11187 15.0703 5.83325 15.0703C4.51739 15.0703 3.73532 13.9151 3.73532 11.8552C3.73532 7.44828 5.93256 2.94207 8.55187 2.94207C9.97029 2.94207 11.1556 3.76125 12.9713 6.36051C11.2472 9.0049 10.2029 10.6634 10.2029 10.6634ZM18.8704 10.2102L17.2823 7.56158C16.8525 6.8626 16.4395 6.21922 16.0432 5.63144C17.4745 3.4222 18.6552 2.32138 20.0595 2.32138C22.9767 2.32138 25.3105 6.61656 25.3105 11.8924C25.3105 13.9035 24.6518 15.0703 23.287 15.0703C21.979 15.0703 21.3541 14.2065 18.8704 10.2102Z" fill="#0E061A"/>
</svg>
