<svg width="40" height="41" viewBox="0 0 40 41" fill="none" xmlns="http://www.w3.org/2000/svg">
<g clip-path="url(#clip0_661_1553)">
<rect width="40" height="40" transform="translate(0 0.318604)" fill="#FCFCFE"/>
<path d="M21.6855 31.3062C21.6667 31.0786 21.6555 30.9307 21.6555 30.9307C21.6555 30.9307 20.9351 26.2777 20.0775 24.8892C19.9418 24.669 20.0923 23.765 20.4709 22.4261C20.6922 22.7927 21.6266 24.361 21.8142 24.8664C22.0255 25.4377 22.0699 25.6014 22.0699 25.6014C22.0699 25.6014 21.5575 23.0755 20.7166 21.6015C20.9009 21.0056 21.121 20.347 21.3702 19.6429C21.6888 20.1783 22.4513 21.4745 22.6192 21.9241C22.6531 22.0165 22.6817 22.095 22.7074 22.1668C22.7156 22.1237 22.7239 22.0805 22.7321 22.0373C22.5396 21.2547 22.1614 19.893 21.6437 18.8869C22.7923 13.1595 26.7098 5.50422 30.7261 2.08865H4.52658C2.77066 2.08865 1.33398 3.46522 1.33398 5.14731V32.8267C1.33398 34.5087 2.77066 35.885 4.52658 35.885H21.7822C21.6578 34.4422 21.6164 32.8459 21.6855 31.3062Z" fill="#0F80CC"/>
<path d="M20.4713 22.4258C20.6927 22.7924 21.627 24.3607 21.8146 24.8661C22.0259 25.4374 22.0704 25.6011 22.0704 25.6011C22.0704 25.6011 21.5579 23.0752 20.717 21.6012C20.9013 21.0053 21.1215 20.3467 21.3707 19.6426C21.6619 20.1323 22.3238 21.2569 22.5631 21.7898C22.5719 21.6892 22.5808 21.5886 22.59 21.489C22.3781 20.7086 22.0562 19.6871 21.6441 18.8866C22.7019 13.6133 26.1067 6.70835 29.7747 2.98063H4.52704C3.28024 2.98063 2.26562 3.95237 2.26562 5.14702V30.8069C7.98368 28.7045 14.8785 26.7827 20.8125 26.8651C20.5922 26.0513 20.3413 25.3154 20.0779 24.8889C19.9423 24.6688 20.0927 23.7647 20.4713 22.4258Z" fill="url(#paint0_linear_661_1553)"/>
<path d="M36.838 1.18755C35.0437 -0.345406 32.8712 0.270355 30.7269 2.09338C30.4087 2.36422 30.0911 2.6647 29.7751 2.98566C26.1071 6.71338 22.7023 13.6183 21.6446 18.8916C22.0566 19.6921 22.3785 20.7137 22.5904 21.494C22.6448 21.6942 22.6938 21.8821 22.733 22.042C22.8261 22.4203 22.8761 22.6656 22.8761 22.6656C22.8761 22.6656 22.8432 22.5464 22.7083 22.1716C22.6826 22.0997 22.654 22.0212 22.6201 21.9288C22.6056 21.8907 22.5855 21.8443 22.5635 21.7948C22.3242 21.262 21.6623 20.1373 21.3711 19.6477C21.1219 20.3517 20.9017 21.0104 20.7174 21.6063C21.5583 23.0802 22.0708 25.6061 22.0708 25.6061C22.0708 25.6061 22.0263 25.4424 21.815 24.8711C21.6274 24.3658 20.6931 22.7974 20.4717 22.4308C20.0931 23.7698 19.9427 24.6738 20.0783 24.8939C20.3417 25.3204 20.5926 26.0563 20.8129 26.8701C21.3105 28.7035 21.6564 30.9354 21.6564 30.9354C21.6564 30.9354 21.6676 31.0833 21.6864 31.311C21.6172 32.8506 21.6587 34.4469 21.7831 35.8897C21.948 37.7997 22.2584 39.4405 22.654 40.3186L22.9225 40.1783C22.3416 38.4483 22.1057 36.181 22.209 33.5663C22.3653 29.5696 23.3254 24.7498 25.0993 19.7262C28.0963 12.1427 32.2544 6.0582 36.06 3.15245C32.5914 6.15342 27.8968 15.8673 26.4915 19.4645C24.918 23.4927 23.8029 27.2727 23.1309 30.8944C24.2904 27.4991 28.0394 26.0397 28.0394 26.0397C28.0394 26.0397 29.8781 23.8672 32.027 20.7635C30.7398 21.0447 28.6262 21.5262 27.9182 21.8112C26.8739 22.2309 26.5925 22.374 26.5925 22.374C26.5925 22.374 29.9752 20.4006 32.8774 19.507C36.8686 13.4849 41.217 4.92977 36.838 1.18755Z" fill="#003B57"/>
</g>
<defs>
<linearGradient id="paint0_linear_661_1553" x1="18.1278" y1="3.55008" x2="18.1278" y2="29.2594" gradientUnits="userSpaceOnUse">
<stop stop-color="#97D9F6"/>
<stop offset="0.920245" stop-color="#0F80CC"/>
<stop offset="1" stop-color="#0F80CC"/>
</linearGradient>
<clipPath id="clip0_661_1553">
<rect width="40" height="40" fill="white" transform="translate(0 0.318604)"/>
</clipPath>
</defs>
</svg>
