<svg width="43" height="42" viewBox="0 0 43 42" fill="none" xmlns="http://www.w3.org/2000/svg">
<g clip-path="url(#clip0_661_1001)">
<path d="M21.0017 0.000320873C19.2984 0.00838965 17.6725 0.153224 16.2411 0.406584C12.0252 1.15133 11.2603 2.71022 11.2603 5.58553V9.38229H21.2224V10.6479H7.52122C4.62614 10.6479 2.09093 12.3879 1.29777 15.6993C0.382774 19.4937 0.34243 21.8619 1.29777 25.824C2.00581 28.7736 3.69702 30.8747 6.5925 30.8747H10.0181V26.3231C10.0181 23.0346 12.8627 20.1343 16.2415 20.1343H26.1924C28.9624 20.1343 31.1732 17.8533 31.1732 15.072V5.58593C31.1732 2.88571 28.8954 0.857628 26.1924 0.406987C24.4802 0.122159 22.7046 -0.00734446 21.0017 0.000320873ZM15.6142 3.05395C16.643 3.05395 17.4837 3.90803 17.4837 4.95858C17.4837 6.0047 16.6434 6.85071 15.6142 6.85071C14.5814 6.85071 13.7451 6.0047 13.7451 4.95858C13.7447 3.90803 14.5814 3.05395 15.6142 3.05395Z" fill="#FAFBFD"/>
<path opacity="0.5" d="M32.4163 10.6471V15.0712C32.4163 18.5005 29.5083 21.3871 26.1928 21.3871H16.242C13.5164 21.3871 11.2612 23.7202 11.2612 26.4498V35.9367C11.2612 38.6361 13.6084 40.2244 16.242 40.9986C19.3953 41.9253 22.4195 42.0932 26.1928 40.9986C28.7006 40.272 31.1737 38.8108 31.1737 35.9367V32.1395H21.2233V30.8735H36.1554C39.0504 30.8735 40.13 28.8543 41.137 25.8229C42.1771 22.7023 42.1323 19.7011 41.137 15.6982C40.4213 12.8156 39.0549 10.6467 36.1554 10.6467H32.4163V10.6471ZM26.8194 34.6707C27.8526 34.6707 28.6889 35.5167 28.6889 36.5636C28.6889 37.6134 27.8522 38.4675 26.8194 38.4675C25.7906 38.4675 24.9502 37.6134 24.9502 36.5636C24.9502 35.5167 25.7906 34.6707 26.8194 34.6707Z" fill="#FAFBFD"/>
</g>
<defs>
<clipPath id="clip0_661_1001">
<rect x="0.596313" width="41.7578" height="41.7578" rx="7.01006" fill="white"/>
</clipPath>
</defs>
</svg>
