<svg width="49" height="49" viewBox="0 0 49 49" fill="none" xmlns="http://www.w3.org/2000/svg">
<path d="M3.67538 24.8794C3.67538 33.1317 8.47538 40.2394 15.4169 43.6179L5.48462 16.4055C4.29195 19.0714 3.67544 21.9589 3.67538 24.8794ZM24.5 45.704C26.9185 45.704 29.2446 45.2794 31.4231 44.5225L31.2754 44.2455L24.8692 26.7071L18.6292 44.8548C20.4754 45.4086 22.4508 45.704 24.5 45.704ZM27.3615 15.1132L34.8938 37.5071L36.98 30.5655C37.8662 27.6855 38.5492 25.6179 38.5492 23.8271C38.5492 21.2425 37.6262 19.4702 36.8508 18.104C35.78 16.3686 34.8015 14.9102 34.8015 13.2117C34.8015 11.2917 36.2415 9.51939 38.3092 9.51939H38.5677C34.7305 5.99677 29.7089 4.0461 24.5 4.05478C21.051 4.05414 17.656 4.91089 14.6203 6.54796C11.5847 8.18504 9.00356 10.5511 7.10923 13.4332L8.43846 13.4702C10.6169 13.4702 13.9769 13.1932 13.9769 13.1932C15.1215 13.1379 15.2508 14.7809 14.1246 14.9102C14.1246 14.9102 12.9985 15.0579 11.7246 15.1132L19.3308 37.6732L23.8908 24.0117L20.6415 15.1132C19.9137 15.0731 19.1873 15.0115 18.4631 14.9286C17.3369 14.8548 17.4662 13.1379 18.5923 13.1932C18.5923 13.1932 22.0262 13.4702 24.0754 13.4702C26.2538 13.4702 29.6138 13.1932 29.6138 13.1932C30.74 13.1379 30.8877 14.7809 29.7615 14.9102C29.7615 14.9102 28.6354 15.0394 27.3615 15.1132ZM34.9677 42.8794C38.118 41.0476 40.7326 38.4212 42.55 35.2625C44.3674 32.1039 45.3242 28.5236 45.3246 24.8794C45.3246 21.2609 44.4015 17.864 42.7769 14.8917C43.1068 18.1618 42.6118 21.4624 41.3369 24.4917L34.9677 42.8794ZM24.5 48.8794C18.1348 48.8794 12.0303 46.3508 7.52944 41.85C3.02856 37.3491 0.5 31.2446 0.5 24.8794C0.5 18.5142 3.02856 12.4097 7.52944 7.90883C12.0303 3.40796 18.1348 0.879395 24.5 0.879395C30.8652 0.879395 36.9697 3.40796 41.4706 7.90883C45.9714 12.4097 48.5 18.5142 48.5 24.8794C48.5 31.2446 45.9714 37.3491 41.4706 41.85C36.9697 46.3508 30.8652 48.8794 24.5 48.8794Z" fill="black"/>
</svg>
