<svg width="43" height="42" viewBox="0 0 43 42" fill="none" xmlns="http://www.w3.org/2000/svg">
<g clip-path="url(#clip0_661_989)">
<path d="M42.2163 20.1803L40.4618 19.0958V18.582L41.9683 17.174C42.0441 17.1014 42.101 17.0115 42.1343 16.9121C42.1675 16.8127 42.176 16.7067 42.1591 16.6032C42.1354 16.5051 42.0884 16.414 42.022 16.3378C41.9556 16.2617 41.8718 16.2026 41.7776 16.1656L39.8706 15.4426C39.7985 15.2849 39.7156 15.1323 39.6227 14.9859L40.8432 13.3115C40.89 13.2203 40.9145 13.1192 40.9145 13.0166C40.9145 12.9141 40.89 12.813 40.8432 12.7217C40.8048 12.6271 40.7424 12.544 40.6622 12.4806C40.582 12.4173 40.4866 12.3758 40.3855 12.3602L38.3449 12.0177C38.3449 11.8655 38.1924 11.7133 38.097 11.561L38.9552 9.65833C39.003 9.56498 39.0249 9.46061 39.0188 9.35598C39.0127 9.25135 38.9788 9.15022 38.9205 9.06301C38.8623 8.97581 38.7817 8.90567 38.6873 8.85981C38.5928 8.81395 38.4878 8.79404 38.3831 8.80211H36.3235L35.9802 8.40254L36.457 6.38567C36.484 6.28555 36.4841 6.18009 36.4573 6.07992C36.4305 5.97974 36.3777 5.88839 36.3042 5.81507C36.2307 5.74175 36.1391 5.68906 36.0387 5.66229C35.9383 5.63553 35.8326 5.63565 35.7323 5.66264L33.7108 6.13832C33.586 6.02025 33.4521 5.9121 33.3103 5.81486V3.7409C33.3153 3.63672 33.2933 3.53301 33.2466 3.43973C33.1998 3.34644 33.1298 3.26669 33.0433 3.20814C32.9535 3.15637 32.8515 3.12912 32.7477 3.12912C32.644 3.12912 32.542 3.15637 32.4521 3.20814L30.5451 4.06436L30.0874 3.81701L29.9158 1.81916C29.9001 1.71827 29.8585 1.62315 29.795 1.54311C29.7315 1.46306 29.6483 1.40084 29.5534 1.36251C29.4619 1.31576 29.3606 1.29138 29.2578 1.29138C29.155 1.29138 29.0537 1.31576 28.9622 1.36251L27.2459 2.63733L26.75 2.48511L26.0254 0.582403C25.9883 0.488464 25.9291 0.404826 25.8527 0.338581C25.7764 0.272336 25.6851 0.225437 25.5867 0.201861C25.4831 0.184963 25.3768 0.193451 25.2772 0.226596C25.1775 0.25974 25.0874 0.316549 25.0146 0.392132L23.6034 1.89527H23.0885L22.0396 0.0496442C21.9845 -0.0367946 21.9084 -0.107962 21.8184 -0.157267C21.7284 -0.206572 21.6274 -0.232422 21.5247 -0.232422C21.422 -0.232422 21.321 -0.206572 21.231 -0.157267C21.141 -0.107962 21.0649 -0.0367946 21.0098 0.0496442L19.9228 1.80014H19.4079L17.9967 0.354078C17.9264 0.279606 17.8385 0.22398 17.7411 0.192332C17.6436 0.160683 17.5398 0.154031 17.4391 0.172989C17.3384 0.191947 17.2441 0.235905 17.1649 0.300807C17.0857 0.36571 17.0241 0.449466 16.9859 0.544349L16.2612 2.44706L15.8036 2.63733L14.0872 1.4196C14.0027 1.36022 13.9044 1.32325 13.8016 1.31215C13.6988 1.30104 13.5949 1.31617 13.4996 1.35611C13.4043 1.39605 13.3207 1.4595 13.2567 1.54049C13.1927 1.62148 13.1504 1.71738 13.1337 1.81916L12.7904 3.85506L12.3327 4.10242L10.4257 3.2462C10.3358 3.19443 10.2338 3.16717 10.1301 3.16717C10.0263 3.16717 9.92434 3.19443 9.83447 3.2462C9.74796 3.30475 9.67797 3.38449 9.63122 3.47778C9.58447 3.57107 9.56252 3.67477 9.56748 3.77896V5.85291L9.167 6.17637L7.25995 5.73875C7.1596 5.71176 7.0539 5.71164 6.9535 5.7384C6.85309 5.76516 6.76153 5.81786 6.68805 5.89118C6.61456 5.9645 6.56174 6.05585 6.53492 6.15603C6.5081 6.2562 6.50822 6.36166 6.53527 6.46178L7.01203 8.47865L6.68783 8.87822H4.60914C4.50472 8.87327 4.40078 8.89517 4.30727 8.94181C4.21377 8.98846 4.13385 9.05828 4.07516 9.1446C4.02328 9.23427 3.99596 9.33598 3.99596 9.43952C3.99596 9.54306 4.02328 9.64477 4.07516 9.73444L4.93334 11.6371L4.68542 12.0938L2.60673 12.3221C2.50561 12.3377 2.41027 12.3792 2.33004 12.4426C2.24982 12.506 2.18745 12.589 2.14904 12.6836C2.10218 12.7749 2.07774 12.876 2.07774 12.9786C2.07774 13.0811 2.10218 13.1822 2.14904 13.2735L3.42677 14.9859C3.36472 15.1472 3.31374 15.3125 3.2742 15.4806L1.36715 16.2037C1.27299 16.2406 1.18916 16.2997 1.12277 16.3759C1.05637 16.4521 1.00937 16.5431 0.985735 16.6413C0.968798 16.7447 0.977306 16.8507 1.01053 16.9502C1.04375 17.0496 1.10068 17.1395 1.17644 17.2121L2.68301 18.6201V19.1338L0.928523 20.2184C0.841887 20.2734 0.770557 20.3493 0.721139 20.4391C0.671722 20.5289 0.645813 20.6297 0.645813 20.7321C0.645813 20.8346 0.671722 20.9353 0.721139 21.0251C0.770557 21.1149 0.841887 21.1909 0.928523 21.2458L2.68301 22.3304V22.8441L1.17644 24.2521C1.10068 24.3247 1.04375 24.4146 1.01053 24.5141C0.977306 24.6135 0.968798 24.7195 0.985735 24.8229C1.00937 24.9211 1.05637 25.0121 1.12277 25.0883C1.18916 25.1645 1.27299 25.2236 1.36715 25.2606L3.2742 25.9836C3.31374 26.1518 3.36472 26.317 3.42677 26.4783L2.20625 28.1527C2.15939 28.244 2.13495 28.345 2.13495 28.4476C2.13495 28.5501 2.15939 28.6512 2.20625 28.7425C2.24466 28.8371 2.30703 28.9202 2.38725 28.9836C2.46748 29.0469 2.56282 29.0884 2.66394 29.104L4.70449 29.4465L4.95241 29.9032L4.09423 31.8059C4.04235 31.8955 4.01503 31.9973 4.01503 32.1008C4.01503 32.2043 4.04235 32.3061 4.09423 32.3957C4.15292 32.482 4.23284 32.5519 4.32635 32.5985C4.41985 32.6451 4.52379 32.667 4.62821 32.6621H6.7069C6.80436 32.8035 6.91276 32.9371 7.0311 33.0617L6.55434 35.0785C6.52729 35.1787 6.52717 35.2841 6.55399 35.3843C6.58081 35.4845 6.63363 35.5758 6.70712 35.6491C6.7806 35.7225 6.87216 35.7752 6.97257 35.8019C7.07297 35.8287 7.17867 35.8286 7.27902 35.8016L9.3005 35.3259L9.70098 35.6494V37.7233C9.69602 37.8275 9.71797 37.9312 9.76472 38.0245C9.81147 38.1178 9.88145 38.1975 9.96797 38.2561C10.0578 38.3078 10.1598 38.3351 10.2636 38.3351C10.3673 38.3351 10.4693 38.3078 10.5592 38.2561L12.4662 37.3998L12.9239 37.6472L13.2672 39.6831C13.2828 39.784 13.3244 39.8791 13.3879 39.9592C13.4514 40.0392 13.5347 40.1014 13.6295 40.1398C13.721 40.1865 13.8223 40.2109 13.9251 40.2109C14.0279 40.2109 14.1292 40.1865 14.2207 40.1398L15.8036 38.7508L16.2994 38.903L17.0241 40.8057C17.0611 40.8996 17.1204 40.9833 17.1967 41.0495C17.2731 41.1158 17.3643 41.1627 17.4627 41.1862C17.5664 41.2031 17.6726 41.1947 17.7723 41.1615C17.8719 41.1284 17.962 41.0716 18.0348 40.996L19.446 39.4928H19.9609L21.048 41.2433C21.1031 41.3298 21.1791 41.4009 21.2692 41.4502C21.3592 41.4995 21.4602 41.5254 21.5629 41.5254C21.6655 41.5254 21.7666 41.4995 21.8566 41.4502C21.9466 41.4009 22.0227 41.3298 22.0778 41.2433L23.1648 39.4928H23.6797L25.0909 40.996C25.1637 41.0716 25.2538 41.1284 25.3535 41.1615C25.4531 41.1947 25.5594 41.2031 25.663 41.1862C25.7614 41.1627 25.8527 41.1158 25.929 41.0495C26.0054 40.9833 26.0646 40.8996 26.1017 40.8057L26.8263 38.903L27.3222 38.7508L29.0004 39.9685C29.0919 40.0153 29.1932 40.0396 29.296 40.0396C29.3988 40.0396 29.5001 40.0153 29.5916 39.9685C29.6864 39.9302 29.7697 39.868 29.8332 39.7879C29.8967 39.7079 29.9383 39.6128 29.9539 39.5119L30.2972 37.476L30.7549 37.2286L32.6619 38.0848C32.7518 38.1366 32.8537 38.1638 32.9575 38.1638C33.0613 38.1638 33.1632 38.1366 33.2531 38.0848C33.3396 38.0263 33.4096 37.9465 33.4564 37.8532C33.5031 37.76 33.5251 37.6562 33.5201 37.5521V35.4781C33.6618 35.3809 33.7957 35.2727 33.9206 35.1547L35.9421 35.6303C36.0424 35.6573 36.1481 35.6574 36.2485 35.6307C36.3489 35.6039 36.4405 35.5512 36.514 35.4779C36.5874 35.4046 36.6403 35.3132 36.6671 35.2131C36.6939 35.1129 36.6938 35.0074 36.6667 34.9073L36.19 32.8904L36.5332 32.4909H38.5929C38.6976 32.4989 38.8026 32.479 38.8971 32.4332C38.9915 32.3873 39.072 32.3172 39.1303 32.23C39.1886 32.1427 39.2225 32.0416 39.2286 31.937C39.2347 31.8324 39.2127 31.728 39.165 31.6346L38.3068 29.7319C38.4022 29.5797 38.4784 29.4275 38.5547 29.2753L40.5953 28.9328C40.6964 28.9172 40.7917 28.8757 40.872 28.8123C40.9522 28.749 41.0146 28.6659 41.053 28.5713C41.0998 28.48 41.1243 28.3789 41.1243 28.2764C41.1243 28.1738 41.0998 28.0727 41.053 27.9814L39.6227 26.4022C39.6847 26.2409 39.7357 26.0756 39.7752 25.9075L41.6823 25.1844C41.7764 25.1475 41.8603 25.0884 41.9267 25.0122C41.9931 24.936 42.0401 24.845 42.0637 24.7468C42.0806 24.6434 42.0721 24.5374 42.0389 24.438C42.0057 24.3385 41.9488 24.2486 41.873 24.176L40.3664 22.768V22.2543L42.1209 21.1697C42.2076 21.1147 42.2789 21.0388 42.3283 20.949C42.3777 20.8592 42.4036 20.7584 42.4036 20.656C42.4036 20.5536 42.3777 20.4528 42.3283 20.363C42.2789 20.2732 42.2076 20.1973 42.1209 20.1423L42.2163 20.1803ZM30.4307 34.7551C30.107 34.687 29.8236 34.4933 29.643 34.2168C29.4624 33.9402 29.3993 33.6034 29.4676 33.2805C29.5359 32.9575 29.73 32.6748 30.0071 32.4946C30.2843 32.3144 30.6219 32.2515 30.9456 32.3196C31.268 32.3925 31.5488 32.589 31.7272 32.8667C31.9056 33.1444 31.9674 33.481 31.8991 33.8037C31.8675 33.9635 31.804 34.1154 31.7125 34.2503C31.621 34.3851 31.5033 34.5004 31.3664 34.5891C31.2295 34.6778 31.0761 34.7382 30.9154 34.7667C30.7547 34.7952 30.5898 34.7913 30.4307 34.7551ZM29.8204 30.7213C29.6751 30.6908 29.5252 30.6892 29.3793 30.7167C29.2334 30.7442 29.0944 30.8002 28.9703 30.8816C28.8462 30.963 28.7394 31.068 28.6562 31.1907C28.573 31.3135 28.515 31.4514 28.4855 31.5966L27.8561 34.5077C25.8712 35.4245 23.712 35.9046 21.5247 35.9157C19.2935 35.9142 17.0887 35.4341 15.0598 34.5077L14.4305 31.5395C14.4034 31.3931 14.3469 31.2536 14.2643 31.1296C14.1818 31.0055 14.0749 30.8994 13.9502 30.8176C13.8255 30.7359 13.6855 30.6801 13.5386 30.6538C13.3917 30.6274 13.241 30.631 13.0955 30.6643L10.521 31.216C10.0402 30.7209 9.59413 30.1932 9.18607 29.6368H21.7154C21.868 29.6368 21.9443 29.6368 21.9443 29.4846V25.0703C21.9443 24.9371 21.9443 24.9181 21.7154 24.9181H18.0539V22.1021H22.0206C22.6111 22.1124 23.1793 22.3297 23.6255 22.7158C24.0717 23.1019 24.3677 23.6322 24.4616 24.2141C24.6141 24.842 24.9574 26.8398 25.1863 27.4867C25.4151 28.1336 26.3877 29.6368 27.4175 29.6368H33.8824C33.4432 30.2204 32.9721 30.7794 32.4712 31.3112L29.8204 30.7213ZM12.4853 34.698C12.3261 34.7342 12.1613 34.7381 12.0005 34.7096C11.8398 34.6811 11.6864 34.6207 11.5495 34.532C11.4126 34.4433 11.2949 34.3281 11.2034 34.1932C11.1119 34.0583 11.0485 33.9064 11.0168 33.7466C10.9804 33.5867 10.9763 33.421 11.0047 33.2594C11.033 33.0978 11.0933 32.9435 11.1821 32.8053C11.2708 32.6672 11.3862 32.5481 11.5216 32.4549C11.6569 32.3617 11.8095 32.2963 11.9704 32.2625C12.2941 32.1944 12.6316 32.2574 12.9088 32.4376C13.186 32.6178 13.3801 32.9004 13.4483 33.2234C13.5166 33.5464 13.4535 33.8832 13.2729 34.1597C13.0923 34.4362 12.809 34.6299 12.4853 34.698ZM7.73671 15.4616C7.8359 15.6851 7.86652 15.9328 7.82469 16.1736C7.78287 16.4144 7.67047 16.6375 7.5017 16.8146C7.33293 16.9917 7.11534 17.115 6.87641 17.1688C6.63748 17.2226 6.38792 17.2047 6.15923 17.1171C5.93054 17.0296 5.73297 16.8764 5.59148 16.6769C5.44998 16.4774 5.37089 16.2405 5.36419 15.9962C5.35749 15.7519 5.42349 15.5111 5.55385 15.3042C5.68421 15.0973 5.87309 14.9336 6.09664 14.8337C6.2452 14.7645 6.40621 14.7258 6.57006 14.7201C6.73391 14.7143 6.89725 14.7415 7.05032 14.8001C7.2034 14.8588 7.34307 14.9475 7.46099 15.0612C7.57892 15.1748 7.67269 15.311 7.73671 15.4616ZM6.26828 18.9245L8.95723 17.7258C9.09499 17.6661 9.21939 17.5795 9.32309 17.4711C9.42678 17.3627 9.50767 17.2347 9.561 17.0946C9.61432 16.9545 9.63898 16.8052 9.63355 16.6555C9.62811 16.5057 9.59268 16.3586 9.52934 16.2227L8.9763 14.9859H11.1503V24.7659H6.76411C6.24526 22.8648 6.07725 20.8855 6.26828 18.9245ZM18.0539 17.9732V15.0811H23.222C23.489 15.0811 25.1291 15.3855 25.1291 16.6032C25.1291 17.821 23.8895 17.9732 22.8787 17.9732H18.0539ZM36.7812 20.5609C36.7812 20.9414 36.7812 21.3219 36.7812 21.7025H35.2555C35.0839 21.7025 35.0267 21.7976 35.0267 21.9498V22.5968C35.0267 24.2902 34.0731 24.6707 33.234 24.7659C32.3949 24.861 31.5368 24.4234 31.4223 23.9287C31.368 23.0834 31.1132 22.2631 30.6789 21.5353C30.2445 20.8075 29.6431 20.1931 28.9241 19.7427C29.7666 19.3297 30.4943 18.7162 31.0431 17.9564C31.5918 17.1965 31.9448 16.3136 32.0707 15.3855C32.0379 14.5668 31.8009 13.7693 31.3814 13.065C30.9618 12.3606 30.3729 11.7718 29.6678 11.3517C28.6784 10.7163 27.5429 10.3431 26.3686 10.2672H10.0824C12.3453 7.77177 15.3671 6.08713 18.6832 5.47237L20.5903 7.48924C20.6966 7.59567 20.8229 7.68012 20.962 7.73774C21.101 7.79536 21.2502 7.82502 21.4008 7.82502C21.5514 7.82502 21.7005 7.79536 21.8396 7.73774C21.9786 7.68012 22.105 7.59567 22.2113 7.48924L24.3472 5.47237C26.5419 5.885 28.6204 6.76929 30.4382 8.06385C32.2561 9.35841 33.7697 11.0322 34.8741 12.969L33.4057 16.2798C33.3423 16.4156 33.3069 16.5628 33.3015 16.7125C33.296 16.8623 33.3207 17.0116 33.374 17.1517C33.4273 17.2918 33.5082 17.4198 33.6119 17.5282C33.7156 17.6366 33.84 17.7232 33.9778 17.7829L36.8002 19.0387C36.823 19.546 36.8166 20.0543 36.7812 20.5609ZM20.514 3.81701C20.7498 3.58347 21.0685 3.4524 21.4008 3.4524C21.733 3.4524 22.0518 3.58347 22.2875 3.81701C22.4029 3.93188 22.4944 4.06831 22.5568 4.2185C22.6192 4.36868 22.6513 4.52967 22.6513 4.69226C22.6513 4.85484 22.6192 5.01583 22.5568 5.16602C22.4944 5.3162 22.4029 5.45263 22.2875 5.5675C22.0518 5.80105 21.733 5.93211 21.4008 5.93211C21.0685 5.93211 20.7498 5.80105 20.514 5.5675C20.4035 5.4477 20.3178 5.30732 20.2619 5.15442C20.2059 5.00151 20.1808 4.83908 20.1878 4.67646C20.1949 4.51383 20.2341 4.35419 20.3032 4.20671C20.3722 4.05923 20.4698 3.92679 20.5903 3.81701H20.514ZM35.103 15.5187C35.1775 15.3732 35.2802 15.2439 35.4051 15.1383C35.5301 15.0327 35.6747 14.9528 35.8307 14.9033C35.9868 14.8537 36.1511 14.8355 36.3142 14.8497C36.4774 14.8639 36.6361 14.9102 36.7812 14.9859C37.0047 15.0858 37.1936 15.2495 37.324 15.4565C37.4543 15.6634 37.5203 15.9042 37.5136 16.1485C37.5069 16.3928 37.4278 16.6296 37.2863 16.8291C37.1448 17.0286 36.9473 17.1818 36.7186 17.2693C36.4899 17.3569 36.2403 17.3749 36.0014 17.321C35.7625 17.2672 35.5449 17.1439 35.3761 16.9668C35.2073 16.7897 35.0949 16.5666 35.0531 16.3258C35.0113 16.085 35.0419 15.8373 35.1411 15.6138L35.103 15.5187Z" fill="#FAFBFD"/>
</g>
<defs>
<clipPath id="clip0_661_989">
<rect x="0.645813" width="41.7578" height="41.7578" rx="5.53881" fill="white"/>
</clipPath>
</defs>
</svg>
